<svg xmlns="http://www.w3.org/2000/svg" xmlns:xlink="http://www.w3.org/1999/xlink" viewBox="0 0 26.29 39.74"><defs><style>.cls-1{fill:url(#linear-gradient);}.cls-2{fill:url(#linear-gradient-2);}.cls-3{fill:url(#linear-gradient-3);}.cls-4{fill:url(#linear-gradient-4);}.cls-5{fill:url(#linear-gradient-5);}.cls-6{fill:url(#linear-gradient-6);}.cls-7{fill:url(#linear-gradient-7);}.cls-8{fill:url(#linear-gradient-8);}.cls-9{fill:url(#linear-gradient-9);}.cls-10{fill:url(#linear-gradient-10);}.cls-11{fill:url(#linear-gradient-11);}.cls-12{fill:url(#linear-gradient-12);}.cls-13{fill:url(#linear-gradient-13);}.cls-14{fill:url(#linear-gradient-14);}.cls-15{fill:url(#linear-gradient-15);}.cls-16{fill:url(#linear-gradient-16);}.cls-17{fill:url(#linear-gradient-17);}.cls-18{fill:url(#linear-gradient-18);}.cls-19{fill:url(#linear-gradient-19);}.cls-20{fill:url(#linear-gradient-20);}.cls-21{fill:url(#linear-gradient-21);}.cls-22{fill:url(#linear-gradient-22);}.cls-23{fill:url(#linear-gradient-23);}.cls-24{fill:url(#linear-gradient-24);}.cls-25{fill:url(#linear-gradient-25);}.cls-26{fill:url(#linear-gradient-26);}.cls-27{fill:url(#linear-gradient-27);}.cls-28{fill:url(#linear-gradient-28);}.cls-29{fill:url(#linear-gradient-29);}.cls-30{fill:url(#linear-gradient-30);}.cls-31{fill:url(#linear-gradient-31);}.cls-32{fill:url(#linear-gradient-32);}.cls-33{fill:url(#linear-gradient-33);}.cls-34{fill:url(#linear-gradient-34);}.cls-35{fill:url(#linear-gradient-35);}.cls-36{fill:url(#linear-gradient-36);}.cls-37{fill:url(#linear-gradient-37);}.cls-38{fill:url(#linear-gradient-38);}.cls-39{fill:url(#linear-gradient-39);}.cls-40{fill:url(#linear-gradient-40);}.cls-41{fill:url(#linear-gradient-41);}.cls-42{fill:url(#linear-gradient-42);}.cls-43{fill:url(#linear-gradient-43);}.cls-44{fill:url(#linear-gradient-44);}.cls-45{fill:url(#linear-gradient-45);}.cls-46{fill:url(#linear-gradient-46);}.cls-47{fill:url(#linear-gradient-47);}.cls-48{fill:url(#linear-gradient-48);}.cls-49{fill:url(#linear-gradient-49);}.cls-50{fill:url(#linear-gradient-50);}.cls-51{fill:url(#linear-gradient-51);}.cls-52{fill:url(#linear-gradient-52);}.cls-53{fill:url(#linear-gradient-53);}.cls-54{fill:url(#linear-gradient-54);}.cls-55{fill:url(#linear-gradient-55);}.cls-56{fill:url(#linear-gradient-56);}.cls-57{fill:url(#linear-gradient-57);}.cls-58{fill:url(#linear-gradient-58);}.cls-59{fill:url(#linear-gradient-59);}.cls-60{fill:url(#linear-gradient-60);}.cls-61{fill:url(#linear-gradient-61);}.cls-62{fill:url(#linear-gradient-62);}.cls-63{fill:url(#linear-gradient-63);}.cls-64{fill:url(#linear-gradient-64);}.cls-65{fill:url(#linear-gradient-65);}.cls-66{fill:url(#linear-gradient-66);}.cls-67{fill:url(#linear-gradient-67);}.cls-68{fill:url(#linear-gradient-68);}.cls-69{fill:url(#linear-gradient-69);}.cls-70{fill:url(#linear-gradient-70);}.cls-71{fill:url(#linear-gradient-71);}.cls-72{fill:url(#linear-gradient-72);}.cls-73{fill:url(#linear-gradient-73);}.cls-74{fill:url(#linear-gradient-74);}.cls-75{fill:url(#linear-gradient-75);}.cls-76{fill:url(#linear-gradient-76);}.cls-77{fill:url(#linear-gradient-77);}.cls-78{fill:url(#linear-gradient-78);}.cls-79{fill:url(#linear-gradient-79);}.cls-80{fill:url(#linear-gradient-80);}.cls-81{fill:url(#linear-gradient-81);}.cls-82{fill:url(#linear-gradient-82);}.cls-83{fill:url(#linear-gradient-83);}.cls-84{fill:url(#linear-gradient-84);}.cls-85{fill:url(#linear-gradient-85);}.cls-86{fill:url(#linear-gradient-86);}.cls-87{fill:url(#linear-gradient-87);}.cls-88{fill:url(#linear-gradient-88);}.cls-89{fill:url(#linear-gradient-89);}.cls-90{fill:url(#linear-gradient-90);}.cls-91{fill:url(#linear-gradient-91);}.cls-92{fill:url(#linear-gradient-92);}.cls-93{fill:url(#linear-gradient-93);}.cls-94{fill:url(#linear-gradient-94);}.cls-95{fill:url(#linear-gradient-95);}.cls-96{fill:url(#linear-gradient-96);}.cls-97{fill:url(#linear-gradient-97);}.cls-98{fill:url(#linear-gradient-98);}.cls-99{fill:url(#linear-gradient-99);}.cls-100{fill:url(#linear-gradient-100);}.cls-101{fill:url(#linear-gradient-101);}.cls-102{fill:url(#linear-gradient-102);}.cls-103{fill:url(#linear-gradient-103);}.cls-104{fill:url(#linear-gradient-104);}.cls-105{fill:url(#linear-gradient-105);}.cls-106{fill:url(#linear-gradient-106);}.cls-107{fill:url(#linear-gradient-107);}.cls-108{fill:url(#linear-gradient-108);}.cls-109{fill:url(#linear-gradient-109);}.cls-110{fill:url(#linear-gradient-110);}.cls-111{fill:url(#linear-gradient-111);}.cls-112{fill:url(#linear-gradient-112);}</style><linearGradient id="linear-gradient" x1="-233.47" y1="-91.46" x2="-269.47" y2="100.54" gradientTransform="translate(271.93 -48.85)" gradientUnits="userSpaceOnUse"><stop offset="0" stop-color="#29abe2"/><stop offset="1" stop-color="#4f00bc"/></linearGradient><linearGradient id="linear-gradient-2" x1="-227.18" y1="-90.28" x2="-263.18" y2="101.72" xlink:href="#linear-gradient"/><linearGradient id="linear-gradient-3" x1="-230.26" y1="-90.86" x2="-266.26" y2="101.14" xlink:href="#linear-gradient"/><linearGradient id="linear-gradient-4" x1="-232.09" y1="-91.2" x2="-268.09" y2="100.8" xlink:href="#linear-gradient"/><linearGradient id="linear-gradient-5" x1="-230.65" y1="-90.93" x2="-266.65" y2="101.07" xlink:href="#linear-gradient"/><linearGradient id="linear-gradient-6" x1="-230.07" y1="-90.83" x2="-266.07" y2="101.17" xlink:href="#linear-gradient"/><linearGradient id="linear-gradient-7" x1="-229.49" y1="-90.72" x2="-265.49" y2="101.28" xlink:href="#linear-gradient"/><linearGradient id="linear-gradient-8" x1="-230.89" y1="-90.98" x2="-266.89" y2="101.02" xlink:href="#linear-gradient"/><linearGradient id="linear-gradient-9" x1="-231.15" y1="-91.03" x2="-267.15" y2="100.97" xlink:href="#linear-gradient"/><linearGradient id="linear-gradient-10" x1="-231.41" y1="-91.08" x2="-267.41" y2="100.92" xlink:href="#linear-gradient"/><linearGradient id="linear-gradient-11" x1="-232.13" y1="-91.21" x2="-268.13" y2="100.79" xlink:href="#linear-gradient"/><linearGradient id="linear-gradient-12" x1="-231.27" y1="-91.05" x2="-267.27" y2="100.95" xlink:href="#linear-gradient"/><linearGradient id="linear-gradient-13" x1="-239.46" y1="-92.59" x2="-275.46" y2="99.41" xlink:href="#linear-gradient"/><linearGradient id="linear-gradient-14" x1="-237.54" y1="-92.23" x2="-273.54" y2="99.77" xlink:href="#linear-gradient"/><linearGradient id="linear-gradient-15" x1="-235.62" y1="-91.87" x2="-271.62" y2="100.13" xlink:href="#linear-gradient"/><linearGradient id="linear-gradient-16" x1="-221.42" y1="-89.2" x2="-257.42" y2="102.8" xlink:href="#linear-gradient"/><linearGradient id="linear-gradient-17" x1="-219.5" y1="-88.84" x2="-255.5" y2="103.16" xlink:href="#linear-gradient"/><linearGradient id="linear-gradient-18" x1="-217.58" y1="-88.48" x2="-253.58" y2="103.52" xlink:href="#linear-gradient"/><linearGradient id="linear-gradient-19" x1="-239.74" y1="-92.64" x2="-275.74" y2="99.36" xlink:href="#linear-gradient"/><linearGradient id="linear-gradient-20" x1="-237.8" y1="-92.28" x2="-273.8" y2="99.73" xlink:href="#linear-gradient"/><linearGradient id="linear-gradient-21" x1="-235.87" y1="-91.91" x2="-271.87" y2="100.09" xlink:href="#linear-gradient"/><linearGradient id="linear-gradient-22" x1="-221.72" y1="-89.26" x2="-257.72" y2="102.74" xlink:href="#linear-gradient"/><linearGradient id="linear-gradient-23" x1="-219.78" y1="-88.9" x2="-255.78" y2="103.1" xlink:href="#linear-gradient"/><linearGradient id="linear-gradient-24" x1="-217.85" y1="-88.53" x2="-253.85" y2="103.47" xlink:href="#linear-gradient"/><linearGradient id="linear-gradient-25" x1="-240.26" y1="-92.73" x2="-276.26" y2="99.27" xlink:href="#linear-gradient"/><linearGradient id="linear-gradient-26" x1="-238.95" y1="-92.49" x2="-274.95" y2="99.51" xlink:href="#linear-gradient"/><linearGradient id="linear-gradient-27" x1="-218.37" y1="-88.63" x2="-254.37" y2="103.37" xlink:href="#linear-gradient"/><linearGradient id="linear-gradient-28" x1="-217.06" y1="-88.39" x2="-253.06" y2="103.61" xlink:href="#linear-gradient"/><linearGradient id="linear-gradient-29" x1="-231.23" y1="-91.04" x2="-267.23" y2="100.96" xlink:href="#linear-gradient"/><linearGradient id="linear-gradient-30" x1="-231.7" y1="-91.13" x2="-267.7" y2="100.87" xlink:href="#linear-gradient"/><linearGradient id="linear-gradient-31" x1="-231.56" y1="-91.1" x2="-267.56" y2="100.9" xlink:href="#linear-gradient"/><linearGradient id="linear-gradient-32" x1="-231.41" y1="-91.08" x2="-267.41" y2="100.92" xlink:href="#linear-gradient"/><linearGradient id="linear-gradient-33" x1="-229.81" y1="-90.78" x2="-265.81" y2="101.22" xlink:href="#linear-gradient"/><linearGradient id="linear-gradient-34" x1="-230.28" y1="-90.86" x2="-266.28" y2="101.14" xlink:href="#linear-gradient"/><linearGradient id="linear-gradient-35" x1="-230.14" y1="-90.84" x2="-266.14" y2="101.16" xlink:href="#linear-gradient"/><linearGradient id="linear-gradient-36" x1="-229.99" y1="-90.81" x2="-265.99" y2="101.19" xlink:href="#linear-gradient"/><linearGradient id="linear-gradient-37" x1="-228.39" y1="-90.51" x2="-264.39" y2="101.49" xlink:href="#linear-gradient"/><linearGradient id="linear-gradient-38" x1="-228.86" y1="-90.6" x2="-264.86" y2="101.4" xlink:href="#linear-gradient"/><linearGradient id="linear-gradient-39" x1="-228.72" y1="-90.57" x2="-264.72" y2="101.43" xlink:href="#linear-gradient"/><linearGradient id="linear-gradient-40" x1="-228.57" y1="-90.54" x2="-264.57" y2="101.46" xlink:href="#linear-gradient"/><linearGradient id="linear-gradient-41" x1="-226.97" y1="-90.24" x2="-262.97" y2="101.76" xlink:href="#linear-gradient"/><linearGradient id="linear-gradient-42" x1="-227.44" y1="-90.33" x2="-263.44" y2="101.67" xlink:href="#linear-gradient"/><linearGradient id="linear-gradient-43" x1="-227.3" y1="-90.3" x2="-263.3" y2="101.7" xlink:href="#linear-gradient"/><linearGradient id="linear-gradient-44" x1="-227.15" y1="-90.28" x2="-263.15" y2="101.72" xlink:href="#linear-gradient"/><linearGradient id="linear-gradient-45" x1="-225.55" y1="-89.98" x2="-261.55" y2="102.02" xlink:href="#linear-gradient"/><linearGradient id="linear-gradient-46" x1="-226.02" y1="-90.07" x2="-262.02" y2="101.93" xlink:href="#linear-gradient"/><linearGradient id="linear-gradient-47" x1="-225.87" y1="-90.04" x2="-261.87" y2="101.96" xlink:href="#linear-gradient"/><linearGradient id="linear-gradient-48" x1="-225.73" y1="-90.01" x2="-261.73" y2="101.99" xlink:href="#linear-gradient"/><linearGradient id="linear-gradient-49" x1="-224.13" y1="-89.71" x2="-260.13" y2="102.29" xlink:href="#linear-gradient"/><linearGradient id="linear-gradient-50" x1="-224.6" y1="-89.8" x2="-260.6" y2="102.2" xlink:href="#linear-gradient"/><linearGradient id="linear-gradient-51" x1="-224.45" y1="-89.77" x2="-260.45" y2="102.23" xlink:href="#linear-gradient"/><linearGradient id="linear-gradient-52" x1="-224.31" y1="-89.74" x2="-260.31" y2="102.26" xlink:href="#linear-gradient"/><linearGradient id="linear-gradient-53" x1="-236.6" y1="-92.05" x2="-272.6" y2="99.95" xlink:href="#linear-gradient"/><linearGradient id="linear-gradient-54" x1="-236.43" y1="-92.02" x2="-272.43" y2="99.98" xlink:href="#linear-gradient"/><linearGradient id="linear-gradient-55" x1="-236.26" y1="-91.99" x2="-272.26" y2="100.01" xlink:href="#linear-gradient"/><linearGradient id="linear-gradient-56" x1="-236.78" y1="-92.08" x2="-272.78" y2="99.92" xlink:href="#linear-gradient"/><linearGradient id="linear-gradient-57" x1="-219.07" y1="-88.76" x2="-255.07" y2="103.24" xlink:href="#linear-gradient"/><linearGradient id="linear-gradient-58" x1="-218.9" y1="-88.73" x2="-254.9" y2="103.27" xlink:href="#linear-gradient"/><linearGradient id="linear-gradient-59" x1="-218.73" y1="-88.7" x2="-254.73" y2="103.3" xlink:href="#linear-gradient"/><linearGradient id="linear-gradient-60" x1="-219.25" y1="-88.8" x2="-255.25" y2="103.2" xlink:href="#linear-gradient"/><linearGradient id="linear-gradient-61" x1="-220.72" y1="-89.07" x2="-256.72" y2="102.93" xlink:href="#linear-gradient"/><linearGradient id="linear-gradient-62" x1="-220.89" y1="-89.1" x2="-256.89" y2="102.9" xlink:href="#linear-gradient"/><linearGradient id="linear-gradient-63" x1="-221.06" y1="-89.13" x2="-257.06" y2="102.87" xlink:href="#linear-gradient"/><linearGradient id="linear-gradient-64" x1="-220.54" y1="-89.04" x2="-256.54" y2="102.96" xlink:href="#linear-gradient"/><linearGradient id="linear-gradient-65" x1="-238.25" y1="-92.36" x2="-274.25" y2="99.64" xlink:href="#linear-gradient"/><linearGradient id="linear-gradient-66" x1="-238.42" y1="-92.39" x2="-274.42" y2="99.61" xlink:href="#linear-gradient"/><linearGradient id="linear-gradient-67" x1="-238.58" y1="-92.42" x2="-274.58" y2="99.58" xlink:href="#linear-gradient"/><linearGradient id="linear-gradient-68" x1="-238.07" y1="-92.32" x2="-274.07" y2="99.68" xlink:href="#linear-gradient"/><linearGradient id="linear-gradient-69" x1="-238.12" y1="-92.33" x2="-274.12" y2="99.67" xlink:href="#linear-gradient"/><linearGradient id="linear-gradient-70" x1="-237.58" y1="-92.23" x2="-273.58" y2="99.77" xlink:href="#linear-gradient"/><linearGradient id="linear-gradient-71" x1="-237.9" y1="-92.29" x2="-273.9" y2="99.71" xlink:href="#linear-gradient"/><linearGradient id="linear-gradient-72" x1="-216.24" y1="-88.23" x2="-252.24" y2="103.77" xlink:href="#linear-gradient"/><linearGradient id="linear-gradient-73" x1="-215.7" y1="-88.13" x2="-251.7" y2="103.87" xlink:href="#linear-gradient"/><linearGradient id="linear-gradient-74" x1="-216.01" y1="-88.19" x2="-252.01" y2="103.81" xlink:href="#linear-gradient"/><linearGradient id="linear-gradient-75" x1="-241.64" y1="-92.99" x2="-277.64" y2="99.01" xlink:href="#linear-gradient"/><linearGradient id="linear-gradient-76" x1="-241.09" y1="-92.89" x2="-277.09" y2="99.11" xlink:href="#linear-gradient"/><linearGradient id="linear-gradient-77" x1="-241.41" y1="-92.95" x2="-277.41" y2="99.05" xlink:href="#linear-gradient"/><linearGradient id="linear-gradient-78" x1="-219.75" y1="-88.89" x2="-255.75" y2="103.11" xlink:href="#linear-gradient"/><linearGradient id="linear-gradient-79" x1="-219.21" y1="-88.79" x2="-255.21" y2="103.21" xlink:href="#linear-gradient"/><linearGradient id="linear-gradient-80" x1="-219.53" y1="-88.85" x2="-255.53" y2="103.15" xlink:href="#linear-gradient"/><linearGradient id="linear-gradient-81" x1="-228.65" y1="-90.56" x2="-264.65" y2="101.44" xlink:href="#linear-gradient"/><linearGradient id="linear-gradient-82" x1="-230.96" y1="-90.99" x2="-266.96" y2="101.01" xlink:href="#linear-gradient"/><linearGradient id="linear-gradient-83" x1="-228.09" y1="-90.45" x2="-264.09" y2="101.55" xlink:href="#linear-gradient"/><linearGradient id="linear-gradient-84" x1="-225.25" y1="-89.92" x2="-261.25" y2="102.08" xlink:href="#linear-gradient"/><linearGradient id="linear-gradient-85" x1="-228.99" y1="-90.62" x2="-264.99" y2="101.38" xlink:href="#linear-gradient"/><linearGradient id="linear-gradient-86" x1="-228.99" y1="-90.62" x2="-264.99" y2="101.38" xlink:href="#linear-gradient"/><linearGradient id="linear-gradient-87" x1="-228.99" y1="-90.62" x2="-264.99" y2="101.38" xlink:href="#linear-gradient"/><linearGradient id="linear-gradient-88" x1="-229.39" y1="-90.7" x2="-265.39" y2="101.3" xlink:href="#linear-gradient"/><linearGradient id="linear-gradient-89" x1="-228.59" y1="-90.55" x2="-264.59" y2="101.45" xlink:href="#linear-gradient"/><linearGradient id="linear-gradient-90" x1="-226.87" y1="-90.22" x2="-262.87" y2="101.78" xlink:href="#linear-gradient"/><linearGradient id="linear-gradient-91" x1="-231.11" y1="-91.02" x2="-267.11" y2="100.98" xlink:href="#linear-gradient"/><linearGradient id="linear-gradient-92" x1="-227.77" y1="-90.39" x2="-263.77" y2="101.61" xlink:href="#linear-gradient"/><linearGradient id="linear-gradient-93" x1="-230.21" y1="-90.85" x2="-266.21" y2="101.15" xlink:href="#linear-gradient"/><linearGradient id="linear-gradient-94" x1="-227.21" y1="-90.29" x2="-263.21" y2="101.71" xlink:href="#linear-gradient"/><linearGradient id="linear-gradient-95" x1="-230.77" y1="-90.96" x2="-266.77" y2="101.04" xlink:href="#linear-gradient"/><linearGradient id="linear-gradient-96" x1="-229.26" y1="-94.61" x2="-265.26" y2="97.39" xlink:href="#linear-gradient"/><linearGradient id="linear-gradient-97" x1="-227.39" y1="-94.25" x2="-263.39" y2="97.75" xlink:href="#linear-gradient"/><linearGradient id="linear-gradient-98" x1="-225.73" y1="-93.94" x2="-261.73" y2="98.06" xlink:href="#linear-gradient"/><linearGradient id="linear-gradient-99" x1="-223.6" y1="-93.54" x2="-259.6" y2="98.46" xlink:href="#linear-gradient"/><linearGradient id="linear-gradient-100" x1="-221.48" y1="-93.15" x2="-257.48" y2="98.85" xlink:href="#linear-gradient"/><linearGradient id="linear-gradient-101" x1="-234.01" y1="-95.5" x2="-270.01" y2="96.5" xlink:href="#linear-gradient"/><linearGradient id="linear-gradient-102" x1="-232.48" y1="-95.21" x2="-268.48" y2="96.79" xlink:href="#linear-gradient"/><linearGradient id="linear-gradient-103" x1="-230.98" y1="-94.93" x2="-266.98" y2="97.07" xlink:href="#linear-gradient"/><linearGradient id="linear-gradient-104" x1="-229.38" y1="-94.63" x2="-265.38" y2="97.37" xlink:href="#linear-gradient"/><linearGradient id="linear-gradient-105" x1="-227.36" y1="-94.25" x2="-263.36" y2="97.75" xlink:href="#linear-gradient"/><linearGradient id="linear-gradient-106" x1="-226" y1="-93.99" x2="-262" y2="98.01" xlink:href="#linear-gradient"/><linearGradient id="linear-gradient-107" x1="-224.57" y1="-93.73" x2="-260.57" y2="98.27" xlink:href="#linear-gradient"/><linearGradient id="linear-gradient-108" x1="-222.59" y1="-93.35" x2="-258.59" y2="98.65" xlink:href="#linear-gradient"/><linearGradient id="linear-gradient-109" x1="-220.8" y1="-93.02" x2="-256.8" y2="98.98" xlink:href="#linear-gradient"/><linearGradient id="linear-gradient-110" x1="-219.38" y1="-92.75" x2="-255.38" y2="99.25" xlink:href="#linear-gradient"/><linearGradient id="linear-gradient-111" x1="-217.82" y1="-92.46" x2="-253.82" y2="99.54" xlink:href="#linear-gradient"/><linearGradient id="linear-gradient-112" x1="-215.53" y1="-92.03" x2="-251.53" y2="99.97" xlink:href="#linear-gradient"/></defs><title>Asset 4</title><g id="Layer_2" data-name="Layer 2"><g id="_ÎÓÈ_1" data-name="—ÎÓÈ_1"><path class="cls-1" d="M9.88,13.3h0a.19.19,0,0,1-.18-.2l.13-2.74a.2.2,0,0,1,.2-.18.19.19,0,0,1,.18.2l-.13,2.74A.19.19,0,0,1,9.88,13.3Z"/><path class="cls-2" d="M16.53,13.3a.19.19,0,0,1-.19-.18l-.13-2.74a.19.19,0,0,1,.18-.2h0a.19.19,0,0,1,.19.18l.13,2.74a.19.19,0,0,1-.18.2Z"/><path class="cls-3" d="M18.22,13.3H8.08a.19.19,0,0,1-.19-.19V11.68a.19.19,0,0,1,0-.05L9.16,7a.19.19,0,0,1,.19-.14h7.58a.19.19,0,0,1,.19.14l1.28,4.66a.2.2,0,0,1,0,.05v1.41A.19.19,0,0,1,18.22,13.3Zm-9.95-.39H18V11.72L16.79,7.23H9.5L8.27,11.71Z"/><path class="cls-4" d="M13.05,6.09c-1.37,0-2.33-1.77-2.33-3.35A2.47,2.47,0,0,1,13.05,0a2.47,2.47,0,0,1,2.33,2.74C15.38,4.32,14.43,6.09,13.05,6.09Zm0-5.7c-1.14,0-1.94,1-1.94,2.35,0,1.55.93,3,1.94,3S15,4.29,15,2.74C15,1.35,14.2.39,13.05.39Z"/><path class="cls-5" d="M13.48,8.67a.2.2,0,0,1-.14-.06.2.2,0,0,1-.06-.14.19.19,0,0,1,.06-.14.2.2,0,0,1,.27,0,.19.19,0,0,1-.14.33Z"/><path class="cls-6" d="M13.56,12.46a.19.19,0,0,1,.18-.21h0a.19.19,0,0,1,.21.18h0a.19.19,0,0,1-.18.21h0A.19.19,0,0,1,13.56,12.46Zm0-.66a.19.19,0,0,1,.18-.21h0a.19.19,0,0,1,.21.18h0a.19.19,0,0,1-.18.21h0A.19.19,0,0,1,13.52,11.8Zm0-.66a.19.19,0,0,1,.18-.21h0a.19.19,0,0,1,.21.18h0a.19.19,0,0,1-.18.21h0A.2.2,0,0,1,13.47,11.13Zm0-.66a.19.19,0,0,1,.18-.21h0a.2.2,0,0,1,.21.18h0a.19.19,0,0,1-.18.21h0A.19.19,0,0,1,13.42,10.47Zm0-.66a.19.19,0,0,1,.18-.21h0a.19.19,0,0,1,.21.18h0a.19.19,0,0,1-.18.21h0A.19.19,0,0,1,13.38,9.81Zm0-.66a.19.19,0,0,1,.18-.21h0a.19.19,0,0,1,.21.18h0a.19.19,0,0,1-.18.21h0A.19.19,0,0,1,13.33,9.15Z"/><path class="cls-7" d="M13.81,13.3a.2.2,0,0,1-.14-.06.2.2,0,0,1,0-.27.2.2,0,0,1,.27,0,.19.19,0,0,1,0,.27A.2.2,0,0,1,13.81,13.3Z"/><path class="cls-8" d="M12.36,13.3a.19.19,0,0,1-.14-.33.2.2,0,0,1,.27,0,.2.2,0,0,1,0,.27A.2.2,0,0,1,12.36,13.3Z"/><path class="cls-9" d="M12.39,12.64a.19.19,0,0,1-.18-.21h0a.2.2,0,0,1,.21-.18h0a.19.19,0,0,1,.18.21h0a.19.19,0,0,1-.19.18h0Zm0-.66a.19.19,0,0,1-.18-.21h0a.19.19,0,0,1,.21-.18h0a.19.19,0,0,1,.18.21h0a.19.19,0,0,1-.19.18h0Zm0-.66a.19.19,0,0,1-.18-.21h0a.19.19,0,0,1,.21-.18h0a.19.19,0,0,1,.18.21h0a.19.19,0,0,1-.19.18h0Zm0-.66a.19.19,0,0,1-.18-.21h0a.19.19,0,0,1,.21-.18h0a.19.19,0,0,1,.18.21h0a.19.19,0,0,1-.19.18h0Zm0-.66a.19.19,0,0,1-.18-.21h0a.19.19,0,0,1,.21-.18h0a.19.19,0,0,1,.18.21h0a.19.19,0,0,1-.19.18h0Zm0-.66a.19.19,0,0,1-.18-.21h0a.19.19,0,0,1,.21-.18h0a.19.19,0,0,1,.18.21h0a.19.19,0,0,1-.19.18h0Z"/><path class="cls-10" d="M12.69,8.67a.19.19,0,0,1-.19-.19.19.19,0,0,1,.06-.14.2.2,0,0,1,.27,0,.19.19,0,0,1,0,.27A.19.19,0,0,1,12.69,8.67Z"/><path class="cls-11" d="M10.92,3.16a.19.19,0,0,1-.15-.31l1.1-1.39a.19.19,0,0,1,.2-.07l3.15.73a.19.19,0,1,1-.09.38l-3-.7-1,1.29A.19.19,0,0,1,10.92,3.16Z"/><path class="cls-12" d="M13.75,8.67h-1.4a.19.19,0,0,1-.19-.17L12,7a.19.19,0,0,1,.39,0l.15,1.28h1.05L13.73,7a.19.19,0,1,1,.39,0L13.95,8.5A.19.19,0,0,1,13.75,8.67Z"/><path class="cls-13" d="M1.82,22.19a.19.19,0,0,1-.14-.33.2.2,0,0,1,.27,0,.19.19,0,0,1-.14.33Z"/><path class="cls-14" d="M4.94,22a.19.19,0,0,1,.19-.19h0a.19.19,0,0,1,.19.19h0a.19.19,0,0,1-.19.19h0A.19.19,0,0,1,4.94,22Zm-.66,0a.19.19,0,0,1,.19-.19h0a.19.19,0,0,1,.19.19h0a.19.19,0,0,1-.19.19h0A.19.19,0,0,1,4.28,22Zm-.66,0a.19.19,0,0,1,.19-.19h0A.19.19,0,0,1,4,22H4a.19.19,0,0,1-.19.19h0A.19.19,0,0,1,3.61,22ZM3,22a.19.19,0,0,1,.19-.19h0a.19.19,0,0,1,.19.19h0a.19.19,0,0,1-.19.19h0A.19.19,0,0,1,3,22Zm-.66,0a.19.19,0,0,1,.19-.19h0a.19.19,0,0,1,.19.19h0a.19.19,0,0,1-.19.19h0A.19.19,0,0,1,2.29,22Z"/><path class="cls-15" d="M5.8,22.19A.19.19,0,0,1,5.6,22a.19.19,0,0,1,.06-.14A.19.19,0,0,1,6,22a.19.19,0,0,1-.06.14A.19.19,0,0,1,5.8,22.19Z"/><path class="cls-16" d="M20.5,22.19A.19.19,0,0,1,20.3,22a.2.2,0,0,1,.06-.14.2.2,0,0,1,.27,0,.19.19,0,0,1,0,.27A.19.19,0,0,1,20.5,22.19Z"/><path class="cls-17" d="M23.62,22a.19.19,0,0,1,.19-.19h0A.19.19,0,0,1,24,22h0a.19.19,0,0,1-.19.19h0A.19.19,0,0,1,23.62,22ZM23,22a.19.19,0,0,1,.19-.19h0a.19.19,0,0,1,.19.19h0a.19.19,0,0,1-.19.19h0A.19.19,0,0,1,23,22Zm-.66,0a.19.19,0,0,1,.19-.19h0a.19.19,0,0,1,.19.19h0a.19.19,0,0,1-.19.19h0A.19.19,0,0,1,22.29,22Zm-.66,0a.19.19,0,0,1,.19-.19h0A.19.19,0,0,1,22,22h0a.19.19,0,0,1-.19.19h0A.19.19,0,0,1,21.63,22ZM21,22a.19.19,0,0,1,.19-.19h0a.19.19,0,0,1,.19.19h0a.19.19,0,0,1-.19.19h0A.19.19,0,0,1,21,22Z"/><path class="cls-18" d="M24.47,22.19a.19.19,0,0,1-.14-.06.19.19,0,0,1,0-.27.19.19,0,0,1,.33.14.19.19,0,0,1-.19.19Z"/><path class="cls-19" d="M1.82,20.67a.2.2,0,0,1-.14-.06.2.2,0,0,1-.06-.14.19.19,0,0,1,.06-.14.2.2,0,0,1,.27,0,.19.19,0,0,1-.14.33Z"/><path class="cls-20" d="M5,20.48a.19.19,0,0,1,.19-.19h0a.19.19,0,0,1,.19.19h0a.19.19,0,0,1-.19.19h0A.19.19,0,0,1,5,20.48Zm-.67,0a.19.19,0,0,1,.19-.19h0a.19.19,0,0,1,.19.19h0a.19.19,0,0,1-.19.19h0A.19.19,0,0,1,4.29,20.48Zm-.67,0a.19.19,0,0,1,.19-.19h0a.19.19,0,0,1,.19.19H4a.19.19,0,0,1-.19.19h0A.19.19,0,0,1,3.63,20.48Zm-.67,0a.19.19,0,0,1,.19-.19h0a.19.19,0,0,1,.19.19h0a.19.19,0,0,1-.19.19h0A.19.19,0,0,1,3,20.48Zm-.67,0a.19.19,0,0,1,.19-.19h0a.19.19,0,0,1,.19.19h0a.19.19,0,0,1-.19.19h0A.19.19,0,0,1,2.29,20.48Z"/><path class="cls-21" d="M5.82,20.67a.19.19,0,0,1-.14-.33.2.2,0,0,1,.27,0,.2.2,0,0,1,.06.14.2.2,0,0,1-.06.14A.2.2,0,0,1,5.82,20.67Z"/><path class="cls-22" d="M20.47,20.67a.2.2,0,0,1-.14-.06.19.19,0,0,1-.06-.14.2.2,0,0,1,.06-.14.2.2,0,0,1,.27,0,.19.19,0,0,1,.06.14.19.19,0,0,1-.19.19Z"/><path class="cls-23" d="M23.61,20.48a.19.19,0,0,1,.19-.19h0a.19.19,0,0,1,.19.19h0a.19.19,0,0,1-.19.19h0A.19.19,0,0,1,23.61,20.48Zm-.67,0a.19.19,0,0,1,.19-.19h0a.19.19,0,0,1,.19.19h0a.19.19,0,0,1-.19.19h0A.19.19,0,0,1,22.95,20.48Zm-.67,0a.19.19,0,0,1,.19-.19h0a.19.19,0,0,1,.19.19h0a.19.19,0,0,1-.19.19h0A.19.19,0,0,1,22.28,20.48Zm-.67,0a.19.19,0,0,1,.19-.19h0a.19.19,0,0,1,.19.19h0a.19.19,0,0,1-.19.19h0A.19.19,0,0,1,21.61,20.48Zm-.67,0a.19.19,0,0,1,.19-.19h0a.19.19,0,0,1,.19.19h0a.19.19,0,0,1-.19.19h0A.19.19,0,0,1,20.94,20.48Z"/><path class="cls-24" d="M24.47,20.67a.19.19,0,0,1-.14-.33.2.2,0,0,1,.27,0,.2.2,0,0,1,.06.14.19.19,0,0,1-.19.19Z"/><path class="cls-25" d="M1.82,20.68a.19.19,0,0,1-.19-.19V14.77a.19.19,0,0,1,.39,0v5.71A.19.19,0,0,1,1.82,20.68Z"/><path class="cls-26" d="M1.82,27.83a.19.19,0,0,1-.19-.19V22A.19.19,0,0,1,2,22v5.64A.19.19,0,0,1,1.82,27.83Z"/><path class="cls-27" d="M24.48,20.68a.19.19,0,0,1-.19-.19V14.77a.19.19,0,1,1,.39,0v5.71A.19.19,0,0,1,24.48,20.68Z"/><path class="cls-28" d="M24.48,27.83a.19.19,0,0,1-.19-.19V22a.19.19,0,1,1,.39,0v5.64A.19.19,0,0,1,24.48,27.83Z"/><path class="cls-29" d="M9.47,27.83a.19.19,0,0,1-.19-.19v-2a.19.19,0,1,1,.39,0v2A.19.19,0,0,1,9.47,27.83Z"/><path class="cls-30" d="M9.47,24.23a.2.2,0,0,1-.14-.06.2.2,0,0,1,0-.27.2.2,0,0,1,.27,0,.19.19,0,0,1-.14.33Z"/><path class="cls-31" d="M9.28,24.84a.19.19,0,0,1,.19-.19h0a.19.19,0,0,1,.19.19h0a.19.19,0,0,1-.19.19h0A.19.19,0,0,1,9.28,24.84Z"/><path class="cls-32" d="M9.47,25.83a.2.2,0,0,1-.14-.06.19.19,0,0,1-.06-.14.2.2,0,0,1,.06-.14.2.2,0,0,1,.27,0,.19.19,0,0,1,0,.27A.2.2,0,0,1,9.47,25.83Z"/><path class="cls-33" d="M10.94,27.83a.19.19,0,0,1-.19-.19v-2a.19.19,0,1,1,.39,0v2A.19.19,0,0,1,10.94,27.83Z"/><path class="cls-34" d="M10.94,24.23a.2.2,0,0,1-.14-.06.2.2,0,0,1,0-.27.2.2,0,0,1,.27,0,.19.19,0,0,1,0,.27A.2.2,0,0,1,10.94,24.23Z"/><path class="cls-35" d="M10.75,24.84a.19.19,0,0,1,.19-.19h0a.19.19,0,0,1,.19.19h0a.19.19,0,0,1-.19.19h0A.19.19,0,0,1,10.75,24.84Z"/><path class="cls-36" d="M10.94,25.83a.2.2,0,0,1-.14-.06.2.2,0,0,1,0-.27.2.2,0,0,1,.27,0,.19.19,0,0,1,0,.27A.2.2,0,0,1,10.94,25.83Z"/><path class="cls-37" d="M12.41,27.83a.19.19,0,0,1-.19-.19v-2a.19.19,0,1,1,.39,0v2A.19.19,0,0,1,12.41,27.83Z"/><path class="cls-38" d="M12.41,24.23a.2.2,0,0,1-.14-.06.2.2,0,0,1,0-.27.2.2,0,0,1,.27,0,.19.19,0,0,1,0,.27A.2.2,0,0,1,12.41,24.23Z"/><path class="cls-39" d="M12.22,24.84a.19.19,0,0,1,.19-.19h0a.19.19,0,0,1,.19.19h0a.19.19,0,0,1-.19.19h0A.19.19,0,0,1,12.22,24.84Z"/><path class="cls-40" d="M12.41,25.83a.2.2,0,0,1-.14-.06.2.2,0,0,1,0-.27.2.2,0,0,1,.27,0,.19.19,0,0,1,0,.27A.2.2,0,0,1,12.41,25.83Z"/><path class="cls-41" d="M13.88,27.83a.19.19,0,0,1-.19-.19v-2a.19.19,0,1,1,.39,0v2A.19.19,0,0,1,13.88,27.83Z"/><path class="cls-42" d="M13.88,24.23a.2.2,0,0,1-.14-.06.2.2,0,0,1,0-.27.2.2,0,0,1,.27,0,.19.19,0,0,1-.14.33Z"/><path class="cls-43" d="M13.69,24.84a.19.19,0,0,1,.19-.19h0a.19.19,0,0,1,.19.19h0a.19.19,0,0,1-.19.19h0A.19.19,0,0,1,13.69,24.84Z"/><path class="cls-44" d="M13.88,25.83a.2.2,0,0,1-.14-.06.2.2,0,0,1,0-.27.2.2,0,0,1,.27,0,.19.19,0,0,1-.14.33Z"/><path class="cls-45" d="M15.35,27.83a.19.19,0,0,1-.19-.19v-2a.19.19,0,1,1,.39,0v2A.19.19,0,0,1,15.35,27.83Z"/><path class="cls-46" d="M15.35,24.23a.2.2,0,0,1-.14-.06.2.2,0,0,1,0-.27.2.2,0,0,1,.27,0,.19.19,0,0,1,0,.27A.2.2,0,0,1,15.35,24.23Z"/><path class="cls-47" d="M15.16,24.84a.19.19,0,0,1,.19-.19h0a.19.19,0,0,1,.19.19h0a.19.19,0,0,1-.19.19h0A.19.19,0,0,1,15.16,24.84Z"/><path class="cls-48" d="M15.35,25.83a.2.2,0,0,1-.14-.06.2.2,0,0,1,0-.27.2.2,0,0,1,.27,0,.19.19,0,0,1-.14.33Z"/><path class="cls-49" d="M16.82,27.83a.19.19,0,0,1-.19-.19v-2a.19.19,0,1,1,.39,0v2A.19.19,0,0,1,16.82,27.83Z"/><path class="cls-50" d="M16.82,24.23a.2.2,0,0,1-.14-.06.2.2,0,0,1,0-.27.2.2,0,0,1,.27,0,.19.19,0,0,1-.14.33Z"/><path class="cls-51" d="M16.63,24.84a.19.19,0,0,1,.19-.19h0a.19.19,0,0,1,.19.19h0a.19.19,0,0,1-.19.19h0A.19.19,0,0,1,16.63,24.84Z"/><path class="cls-52" d="M16.82,25.83a.2.2,0,0,1-.14-.06.2.2,0,0,1,0-.27.2.2,0,0,1,.27,0,.19.19,0,0,1-.14.33Z"/><path class="cls-53" d="M4.08,26a.19.19,0,0,1-.19-.19.2.2,0,0,1,.06-.14.2.2,0,0,1,.27,0,.19.19,0,0,1-.14.33Z"/><path class="cls-54" d="M3.88,27a.19.19,0,0,1,.19-.19h0a.19.19,0,0,1,.19.19h0a.19.19,0,0,1-.19.19h0A.19.19,0,0,1,3.88,27Zm0-.62a.19.19,0,0,1,.19-.19h0a.19.19,0,0,1,.19.19h0a.19.19,0,0,1-.19.19h0A.19.19,0,0,1,3.88,26.4Z"/><path class="cls-55" d="M4.08,27.83a.19.19,0,0,1-.14-.33.2.2,0,0,1,.27,0,.2.2,0,0,1,.06.14.2.2,0,0,1-.06.14A.2.2,0,0,1,4.08,27.83Z"/><path class="cls-56" d="M4.08,26a.19.19,0,0,1-.19-.19v-2a.19.19,0,0,1,.39,0v2A.19.19,0,0,1,4.08,26Z"/><path class="cls-57" d="M22.22,26a.19.19,0,0,1-.19-.19.19.19,0,0,1,.06-.14.2.2,0,0,1,.27,0,.2.2,0,0,1,.06.14.2.2,0,0,1-.06.14A.2.2,0,0,1,22.22,26Z"/><path class="cls-58" d="M22,27a.19.19,0,0,1,.19-.19h0a.19.19,0,0,1,.19.19h0a.19.19,0,0,1-.19.19h0A.19.19,0,0,1,22,27Zm0-.62a.19.19,0,0,1,.19-.19h0a.19.19,0,0,1,.19.19h0a.19.19,0,0,1-.19.19h0A.19.19,0,0,1,22,26.4Z"/><path class="cls-59" d="M22.22,27.83a.2.2,0,0,1-.14-.06.2.2,0,0,1,0-.27.2.2,0,0,1,.27,0,.2.2,0,0,1,.06.14.2.2,0,0,1-.06.14A.2.2,0,0,1,22.22,27.83Z"/><path class="cls-60" d="M22.22,26a.19.19,0,0,1-.19-.19v-2a.19.19,0,0,1,.39,0v2A.19.19,0,0,1,22.22,26Z"/><path class="cls-61" d="M22.22,16.86a.19.19,0,0,1-.19-.19.2.2,0,0,1,.06-.14.2.2,0,0,1,.27,0,.2.2,0,0,1,.06.14.2.2,0,0,1-.06.14A.2.2,0,0,1,22.22,16.86Z"/><path class="cls-62" d="M22,16.05a.19.19,0,0,1,.19-.19h0a.19.19,0,0,1,.19.19h0a.19.19,0,0,1-.19.19h0A.19.19,0,0,1,22,16.05Zm0-.62a.19.19,0,0,1,.19-.19h0a.19.19,0,0,1,.19.19h0a.19.19,0,0,1-.19.19h0A.19.19,0,0,1,22,15.43Z"/><path class="cls-63" d="M22.22,15a.19.19,0,0,1-.14-.33.2.2,0,0,1,.27,0,.2.2,0,0,1,.06.14.2.2,0,0,1-.06.14A.2.2,0,0,1,22.22,15Z"/><path class="cls-64" d="M22.22,18.83a.19.19,0,0,1-.19-.19v-2a.19.19,0,0,1,.39,0v2A.19.19,0,0,1,22.22,18.83Z"/><path class="cls-65" d="M4.08,16.86a.19.19,0,0,1-.14-.33.2.2,0,0,1,.27,0,.19.19,0,0,1,.06.14.19.19,0,0,1-.19.19Z"/><path class="cls-66" d="M3.88,16.05a.19.19,0,0,1,.19-.19h0a.19.19,0,0,1,.19.19h0a.19.19,0,0,1-.19.19h0A.19.19,0,0,1,3.88,16.05Zm0-.62a.19.19,0,0,1,.19-.19h0a.19.19,0,0,1,.19.19h0a.19.19,0,0,1-.19.19h0A.19.19,0,0,1,3.88,15.43Z"/><path class="cls-67" d="M4.08,15a.19.19,0,0,1-.14-.33.2.2,0,0,1,.27,0,.19.19,0,0,1,.06.14.19.19,0,0,1-.19.19Z"/><path class="cls-68" d="M4.08,18.83a.19.19,0,0,1-.19-.19v-2a.19.19,0,0,1,.39,0v2A.19.19,0,0,1,4.08,18.83Z"/><path class="cls-69" d="M1.82,30.69c-.56,0-.95-.69-.95-1.31a1,1,0,0,1,.95-1.09,1,1,0,0,1,.95,1.09C2.77,30,2.38,30.69,1.82,30.69Zm0-2c-.34,0-.56.28-.56.7s.28.92.56.92.56-.46.56-.92S2.16,28.68,1.82,28.68Z"/><path class="cls-70" d="M3.41,33.35H.23A.19.19,0,0,1,0,33.18c0-.18,0-1,0-1.12a1.65,1.65,0,0,1,1.55-1.81.19.19,0,1,1,.08.38c-.76.16-1.23.45-1.23,1.43,0,.16,0,.63,0,.9H3.23c0-.27,0-.74,0-.9,0-1-.47-1.28-1.23-1.43a.19.19,0,0,1,.08-.38,1.65,1.65,0,0,1,1.55,1.81c0,.12,0,.95,0,1.12A.19.19,0,0,1,3.41,33.35Z"/><path class="cls-71" d="M1.82,31.31a1.27,1.27,0,0,1-1-.56.19.19,0,0,1,.32-.22.89.89,0,0,0,.71.4.89.89,0,0,0,.71-.4.19.19,0,1,1,.32.22A1.27,1.27,0,0,1,1.82,31.31Z"/><path class="cls-72" d="M24.47,30.69c-.56,0-.95-.69-.95-1.31a1,1,0,1,1,1.9,0C25.42,30,25,30.69,24.47,30.69Zm0-2c-.34,0-.56.28-.56.7s.28.92.56.92.56-.46.56-.92S24.81,28.68,24.47,28.68Z"/><path class="cls-73" d="M26.06,33.35H22.88a.19.19,0,0,1-.19-.16c0-.18,0-1,0-1.12a1.65,1.65,0,0,1,1.55-1.81.19.19,0,1,1,.08.38c-.76.16-1.23.45-1.23,1.43,0,.16,0,.63,0,.9h2.83c0-.27,0-.74,0-.9,0-1-.47-1.28-1.23-1.43a.19.19,0,0,1,.08-.38,1.65,1.65,0,0,1,1.55,1.81c0,.12,0,.95,0,1.12A.19.19,0,0,1,26.06,33.35Z"/><path class="cls-74" d="M24.47,31.31a1.27,1.27,0,0,1-1-.56.19.19,0,0,1,.32-.22.84.84,0,0,0,1.43,0,.19.19,0,1,1,.32.22A1.27,1.27,0,0,1,24.47,31.31Z"/><path class="cls-75" d="M1.82,11.29c-.56,0-.95-.69-.95-1.31a1,1,0,0,1,.95-1.09A1,1,0,0,1,2.77,10C2.77,10.6,2.38,11.29,1.82,11.29Zm0-2c-.34,0-.56.28-.56.7s.28.92.56.92.56-.46.56-.92S2.16,9.28,1.82,9.28Z"/><path class="cls-76" d="M3.41,13.95H.23A.19.19,0,0,1,0,13.78c0-.17,0-1,0-1.12a1.65,1.65,0,0,1,1.55-1.81.19.19,0,1,1,.08.38c-.76.16-1.23.45-1.23,1.43,0,.16,0,.63,0,.9H3.23c0-.27,0-.74,0-.9,0-1-.47-1.28-1.23-1.43a.19.19,0,0,1,.08-.38,1.65,1.65,0,0,1,1.55,1.81c0,.12,0,.95,0,1.12A.19.19,0,0,1,3.41,13.95Z"/><path class="cls-77" d="M1.82,11.91a1.27,1.27,0,0,1-1-.56.19.19,0,0,1,.32-.22.89.89,0,0,0,.71.4.89.89,0,0,0,.71-.4.19.19,0,1,1,.32.22A1.27,1.27,0,0,1,1.82,11.91Z"/><path class="cls-78" d="M24.47,11.29c-.56,0-.95-.69-.95-1.31a1,1,0,1,1,1.9,0C25.42,10.6,25,11.29,24.47,11.29Zm0-2c-.34,0-.56.28-.56.7s.28.92.56.92S25,10.45,25,10,24.81,9.28,24.47,9.28Z"/><path class="cls-79" d="M26.06,13.95H22.88a.19.19,0,0,1-.19-.16c0-.18,0-1,0-1.12a1.65,1.65,0,0,1,1.55-1.81.19.19,0,1,1,.08.38c-.76.16-1.23.45-1.23,1.43,0,.16,0,.63,0,.9h2.83c0-.27,0-.74,0-.9,0-1-.47-1.28-1.23-1.43a.19.19,0,0,1,.08-.38,1.65,1.65,0,0,1,1.55,1.81c0,.12,0,.95,0,1.12A.19.19,0,0,1,26.06,13.95Z"/><path class="cls-80" d="M24.47,11.91a1.27,1.27,0,0,1-1-.56.19.19,0,0,1,.32-.22.84.84,0,0,0,1.43,0,.19.19,0,1,1,.32.22A1.27,1.27,0,0,1,24.47,11.91Z"/><path class="cls-81" d="M17.84,24.23H8.45a2.94,2.94,0,0,1,0-5.89h0a4.8,4.8,0,0,1,9.35,0h0a2.94,2.94,0,1,1,0,5.89Zm-9.39-5.5a2.56,2.56,0,1,0,0,5.11h9.39a2.56,2.56,0,1,0,0-5.11h-.16a.19.19,0,0,1-.2-.16,4.41,4.41,0,0,0-8.66,0,.19.19,0,0,1-.2.16H8.45Z"/><path class="cls-82" d="M9.46,29a.19.19,0,0,1-.14-.06l-.57-.57a.19.19,0,0,1,0-.27l.57-.57a.2.2,0,0,1,.27,0l.57.57a.19.19,0,0,1,0,.27l-.57.57A.19.19,0,0,1,9.46,29Zm-.29-.76.29.29.29-.29-.29-.29Z"/><path class="cls-83" d="M12.43,29a.19.19,0,0,1-.14-.06l-.57-.57a.19.19,0,0,1,0-.27l.57-.57a.19.19,0,0,1,.14-.06h0a.19.19,0,0,1,.14.06l.57.57a.19.19,0,0,1,0,.27l-.57.57A.19.19,0,0,1,12.43,29Zm-.29-.76.29.29.29-.29-.29-.29Z"/><path class="cls-84" d="M15.37,29a.19.19,0,0,1-.14-.06l-.57-.57a.19.19,0,0,1,0-.27l.57-.57a.2.2,0,0,1,.27,0l.57.57a.19.19,0,0,1,0,.27l-.57.57A.19.19,0,0,1,15.37,29Zm-.29-.76.29.29.29-.29-.29-.29Z"/><path class="cls-85" d="M13.61,23.33h-.92a.19.19,0,0,1-.19-.19v-.21l-.12,0-.09.19a.19.19,0,0,1-.25.09l-.85-.37a.19.19,0,0,1-.1-.25l.08-.2h0l-.16.14a.19.19,0,0,1-.27,0L10,21.85a.19.19,0,0,1,0-.27l.14-.16-.07-.1-.2.07a.19.19,0,0,1-.24-.11l-.34-.86a.19.19,0,0,1,.1-.25l.19-.09v0H9.41a.19.19,0,0,1-.19-.19v-.92a.19.19,0,0,1,.19-.19h.21l0-.12-.19-.09a.19.19,0,0,1-.09-.25l.36-.85a.19.19,0,0,1,.25-.1l.2.08v0L10,17.22A.19.19,0,0,1,10,17l.65-.65a.19.19,0,0,1,.27,0l.16.14.1-.07-.07-.2a.19.19,0,0,1,.11-.24l.86-.34a.19.19,0,0,1,.25.1l.09.19h0v-.21a.19.19,0,0,1,.19-.19h.92a.19.19,0,0,1,.19.19v.21l.12,0,.09-.19a.19.19,0,0,1,.25-.09l.85.37a.19.19,0,0,1,.1.25l-.08.2h0l.16-.14a.19.19,0,0,1,.27,0l.65.65a.19.19,0,0,1,0,.27l-.14.16.07.1.2-.07a.19.19,0,0,1,.24.11l.34.86a.19.19,0,0,1-.1.25l-.19.09v0h.21a.19.19,0,0,1,.19.19v.92a.19.19,0,0,1-.19.19h-.21l0,.12.19.09a.19.19,0,0,1,.09.25l-.36.85a.19.19,0,0,1-.25.1l-.2-.08v0l.14.16a.19.19,0,0,1,0,.27l-.65.65a.19.19,0,0,1-.27,0l-.16-.14-.1.07.07.2a.19.19,0,0,1-.11.24l-.86.34a.19.19,0,0,1-.25-.1l-.09-.19h0v.21A.19.19,0,0,1,13.61,23.33Zm-.74-.39h.55v-.19a.19.19,0,0,1,.17-.18l.3-.06a.19.19,0,0,1,.22.11l.08.17.51-.2-.06-.18a.19.19,0,0,1,.09-.23l.33-.22a.19.19,0,0,1,.25,0l.14.13.39-.39-.13-.14a.19.19,0,0,1,0-.25l.17-.25a.19.19,0,0,1,.23-.08l.17.07.22-.51-.17-.08a.19.19,0,0,1-.1-.23,3.15,3.15,0,0,0,.08-.39.19.19,0,0,1,.18-.17h.19v-.55H16.5a.19.19,0,0,1-.18-.17c0-.1,0-.2-.06-.3a.19.19,0,0,1,.11-.22l.17-.08-.2-.51-.17.06a.19.19,0,0,1-.23-.09,3.19,3.19,0,0,0-.22-.33.19.19,0,0,1,0-.25l.13-.14-.39-.39-.14.13a.19.19,0,0,1-.25,0l-.25-.17a.19.19,0,0,1-.08-.23l.07-.17L14.29,16l-.08.17a.19.19,0,0,1-.23.1l-.39-.08a.19.19,0,0,1-.17-.18v-.19h-.55v.19a.19.19,0,0,1-.17.18l-.3.06a.19.19,0,0,1-.22-.11L12.1,16l-.51.2.06.18a.19.19,0,0,1-.09.23l-.33.22a.19.19,0,0,1-.25,0l-.14-.13-.39.39.13.14a.19.19,0,0,1,0,.25l-.17.25a.19.19,0,0,1-.23.08L10,17.75l-.22.51.17.08a.19.19,0,0,1,.1.23A3.19,3.19,0,0,0,10,19a.19.19,0,0,1-.18.17H9.61v.55H9.8a.19.19,0,0,1,.18.17c0,.1,0,.2.06.3a.19.19,0,0,1-.11.22l-.17.08L10,21l.17-.06a.19.19,0,0,1,.23.09,3.21,3.21,0,0,0,.22.33.19.19,0,0,1,0,.25l-.13.14.39.39L11,22a.19.19,0,0,1,.25,0l.25.17a.19.19,0,0,1,.08.23l-.07.17.51.22.08-.17a.19.19,0,0,1,.22-.1l.39.08a.19.19,0,0,1,.17.18Z"/><path class="cls-86" d="M13.16,20.6a.19.19,0,0,1,.16-.22h0a.19.19,0,0,1,.22.16h0a.19.19,0,0,1-.16.22h0A.19.19,0,0,1,13.16,20.6Zm-.7,0a.19.19,0,0,1-.07-.26h0a.19.19,0,0,1,.27-.07h0a.19.19,0,0,1,.07.26h0a.19.19,0,0,1-.17.1h0Zm1.47-.28a.19.19,0,0,1,0-.27h0a.19.19,0,0,1,.27,0h0a.19.19,0,0,1,0,.27h0a.19.19,0,0,1-.15.07h0A.2.2,0,0,1,13.93,20.31Zm-2.08-.44h0a.19.19,0,0,1,.12-.25h0a.2.2,0,0,1,.25.12h0a.19.19,0,0,1-.12.25H12A.19.19,0,0,1,11.85,19.88Zm2.29-.47h0a.19.19,0,0,1,.19-.19h0a.19.19,0,0,1,.19.19h0a.19.19,0,0,1-.19.19h0A.19.19,0,0,1,14.14,19.4ZM12,19.18a.19.19,0,0,1-.12-.25h0a.19.19,0,0,1,.25-.12h0a.19.19,0,0,1,.12.25h0a.19.19,0,0,1-.18.13H12Zm1.94-.42a.19.19,0,0,1,0-.27h0a.19.19,0,0,1,.27,0h0a.19.19,0,0,1,0,.27h0a.19.19,0,0,1-.12,0h0A.19.19,0,0,1,13.9,18.76Zm-1.52-.29a.19.19,0,0,1,.07-.27h0a.19.19,0,0,1,.26.07h0a.19.19,0,0,1-.07.26h0a.19.19,0,0,1-.1,0h0A.19.19,0,0,1,12.38,18.48Zm.93,0a.19.19,0,0,1-.16-.22h0a.19.19,0,0,1,.22-.16h0a.19.19,0,0,1,.16.22h0a.19.19,0,0,1-.19.16h0Z"/><path class="cls-87" d="M13.15,20.23A.83.83,0,1,1,14,19.4.83.83,0,0,1,13.15,20.23Zm0-1.27a.44.44,0,1,0,.44.44A.44.44,0,0,0,13.15,19Z"/><path class="cls-88" d="M13.15,17.8a.59.59,0,1,1,.59-.59A.59.59,0,0,1,13.15,17.8Zm0-.8a.21.21,0,1,0,.21.21A.21.21,0,0,0,13.15,17Z"/><path class="cls-89" d="M13.15,22.19a.59.59,0,1,1,.59-.59A.59.59,0,0,1,13.15,22.19Zm0-.8a.21.21,0,1,0,.21.21A.21.21,0,0,0,13.15,21.39Z"/><path class="cls-90" d="M15.34,20a.59.59,0,1,1,.59-.59A.59.59,0,0,1,15.34,20Zm0-.8a.21.21,0,1,0,.21.21A.21.21,0,0,0,15.34,19.2Z"/><path class="cls-91" d="M11,20a.59.59,0,1,1,.59-.59A.59.59,0,0,1,11,20Zm0-.8a.21.21,0,1,0,.21.21A.21.21,0,0,0,11,19.2Z"/><path class="cls-92" d="M14.7,18.28a.43.43,0,1,1,.31-.13A.43.43,0,0,1,14.7,18.28Zm0-.48h0a0,0,0,0,0,0,.06,0,0,0,0,0,.06,0,0,0,0,0,0,0,0,0,0,0,0,0,0,0Z"/><path class="cls-93" d="M11.59,21.39a.43.43,0,1,1,.31-.13A.43.43,0,0,1,11.59,21.39Zm0-.48h0a0,0,0,0,0,0,.06,0,0,0,0,0,.06,0,0,0,0,0,0,0-.06Z"/><path class="cls-94" d="M14.7,21.39a.43.43,0,1,1,.31-.13A.43.43,0,0,1,14.7,21.39Zm0-.48h0a0,0,0,0,0,0,.06,0,0,0,0,0,.06,0,0,0,0,0,0,0-.06Z"/><path class="cls-95" d="M11.59,18.28a.43.43,0,1,1,.31-.13A.43.43,0,0,1,11.59,18.28Zm0-.48h0a0,0,0,0,0,0,.06,0,0,0,0,0,.06,0,0,0,0,0,0,0-.06Z"/><path class="cls-96" d="M9.2,36c-.74,0-.92-.47-.92-1s.18-1,.92-1,.9.37.9.78H9.75a.49.49,0,0,0-.55-.5c-.47,0-.57.33-.57.74s.1.73.57.73a.48.48,0,0,0,.55-.5h.35C10.1,35.65,9.86,36,9.2,36Z"/><path class="cls-97" d="M10.59,36V34h.34V35.7h.76V36Z"/><path class="cls-98" d="M12.86,36c-.77,0-1-.48-1-1s.19-1,1-1,1,.47,1,1S13.63,36,12.86,36Zm0-1.75c-.5,0-.6.32-.6.73s.11.74.6.74.6-.33.6-.73S13.36,34.25,12.86,34.25Z"/><path class="cls-99" d="M16,35.08c0,.65-.24.92-.85.92s-.85-.27-.85-.92V34h.35v1.08c0,.41.09.63.5.63s.5-.22.5-.63V34H16Z"/><path class="cls-100" d="M17.24,36h-.73V34h.76c.6,0,.91.35.91,1A.89.89,0,0,1,17.24,36Zm0-1.71h-.35V35.7h.33c.44,0,.67-.19.67-.73S17.63,34.26,17.19,34.26Z"/><path class="cls-101" d="M3.56,39.72H2.83v-2h.76c.6,0,.91.35.91,1A.89.89,0,0,1,3.56,39.72Zm0-1.71H3.17v1.43H3.5c.44,0,.67-.19.67-.73S4,38,3.52,38Z"/><path class="cls-102" d="M5,39.72v-2h.34v2Z"/><path class="cls-103" d="M6.75,39.74c-.65,0-.89-.29-.9-.74h.34c0,.25.14.44.55.44s.48-.14.48-.29c0-.47-1.3-.14-1.31-.84,0-.36.22-.61.8-.61s.82.27.82.7H7.19c0-.27-.16-.41-.5-.41s-.45.11-.45.29c0,.43,1.31.12,1.31.86C7.55,39.42,7.37,39.74,6.75,39.74Z"/><path class="cls-104" d="M8.71,38v1.71H8.37V38H7.8v-.28H9.28V38Z"/><path class="cls-105" d="M10.82,39.72l-.8-.78v.78H9.67v-2h.71c.75,0,.83.38.83.64,0,.49-.39.61-.78.61l.84.75ZM10.4,38H10v.71h.39c.41,0,.46-.19.46-.35S10.81,38,10.4,38Z"/><path class="cls-106" d="M11.71,39.72v-2h.34v2Z"/><path class="cls-107" d="M13.41,39.72h-.79v-2h.78c.53,0,.74.22.74.5a.41.41,0,0,1-.26.44.48.48,0,0,1,.33.48C14.2,39.44,14,39.72,13.41,39.72Zm0-1.71H13v.57h.47c.32,0,.38-.15.38-.28S13.74,38,13.41,38Zm0,.83H13v.6h.46c.37,0,.43-.13.43-.3S13.64,38.84,13.43,38.84Z"/><path class="cls-108" d="M16.33,38.82c0,.65-.24.92-.85.92s-.85-.26-.85-.92v-1.1H15v1.08c0,.41.09.63.5.63s.5-.22.5-.63V37.72h.35Z"/><path class="cls-109" d="M17.6,38v1.71h-.33V38h-.57v-.28h1.48V38Z"/><path class="cls-110" d="M18.56,39.72v-2h.34v2Z"/><path class="cls-111" d="M20.35,39.74c-.77,0-1-.48-1-1s.19-1,1-1,1,.47,1,1S21.12,39.74,20.35,39.74Zm0-1.75c-.5,0-.6.32-.6.73s.11.74.6.74.6-.33.6-.73S20.85,38,20.35,38Z"/><path class="cls-112" d="M23.2,39.72l-1-1.56v1.56h-.34v-2h.44l1,1.55V37.72h.34v2Z"/></g></g></svg>