<svg id="a1489958557394" xmlns="http://www.w3.org/2000/svg" viewBox="0 0 334.66 67.79"><defs><style>.cls-1{fill:#593bff;}</style></defs><title>color_logo_transparent_background</title><g id="SvgjsUse2243"><path class="cls-1" d="M143,31q0,.46-.08,1.63A12.42,12.42,0,0,1,140.51,39a14.18,14.18,0,0,1-5.34,4.41A16,16,0,0,1,128.11,45a15.31,15.31,0,0,1-7.65-2,15,15,0,0,1-5.55-5.34,14.17,14.17,0,0,1,0-14.69,15,15,0,0,1,5.55-5.36,15.31,15.31,0,0,1,7.65-2,15.06,15.06,0,0,1,7.3,1.84,15.5,15.5,0,0,1,5.52,5l-5.26,3.06a11.67,11.67,0,0,0-3.37-3.1,7.92,7.92,0,0,0-4.18-1.2,8.8,8.8,0,0,0-4.59,1.26,9.46,9.46,0,0,0-3.35,3.35,8.66,8.66,0,0,0-1.24,4.49,8.76,8.76,0,0,0,1.24,4.51,9.41,9.41,0,0,0,3.35,3.37,8.8,8.8,0,0,0,4.59,1.26,9.19,9.19,0,0,0,3.52-.72,9.44,9.44,0,0,0,3-2,6.16,6.16,0,0,0,1.7-2.71H125.79V28.68H142.9Q143,30.23,143,31Zm10.6-2.26a6.16,6.16,0,0,0-3.06,1.92A6.29,6.29,0,0,0,149.12,35v9.41h-5.77V23.14h5.77V26a7.11,7.11,0,0,1,3.5-2.57,11.4,11.4,0,0,1,3.77-.64v5.65A8.59,8.59,0,0,0,153.57,28.7Zm7,14.75a11.29,11.29,0,0,1-4.2-4,10.74,10.74,0,0,1,0-11.11,11.29,11.29,0,0,1,4.2-4,12,12,0,0,1,11.59,0,11.4,11.4,0,0,1,4.24,4,10.62,10.62,0,0,1,0,11.11,11.4,11.4,0,0,1-4.24,4,12,12,0,0,1-11.59,0Zm2.85-14.83a5.72,5.72,0,0,0-2.13,2.17,6.08,6.08,0,0,0-.77,3,6.36,6.36,0,0,0,.75,3.12,5.63,5.63,0,0,0,2.09,2.17,5.76,5.76,0,0,0,3,.79,5.71,5.71,0,0,0,5.07-3,6.27,6.27,0,0,0,.77-3.1,6.08,6.08,0,0,0-.77-3,5.77,5.77,0,0,0-2.11-2.17,5.89,5.89,0,0,0-5.9,0Zm12.81-5.4h6.15L186,32.66l5.15-10.61,5.23,10.65L200,23.22h6.12L197,45.32,191.1,34l-5.81,11.3Zm50.19-1.78v23h-6.15v-23H212v-5.3h22.61v5.3ZM252,25.12q2,2.36,2,6.74V44.43h-5.88V31.85a4.18,4.18,0,0,0-1.14-3.29,4.37,4.37,0,0,0-3-1,4,4,0,0,0-2.86,1.26q-1.28,1.26-1.2,4.35V44.43h-5.77V15.13h5.77V25a7.54,7.54,0,0,1,2.63-1.66,8.4,8.4,0,0,1,3.06-.62Q250,22.75,252,25.12ZM261,43.93a10.2,10.2,0,0,1-6.45-10.06,10.34,10.34,0,0,1,1.92-6.5,10.68,10.68,0,0,1,4.59-3.52,13.93,13.93,0,0,1,5.07-1,11.85,11.85,0,0,1,5.3,1.24,10.34,10.34,0,0,1,5.81,9.33q0,1,0,1.74a8.85,8.85,0,0,1-.08.93h-16.8a4,4,0,0,0,2.32,3.06,8.73,8.73,0,0,0,3.48.81,6.36,6.36,0,0,0,3.33-.75,9.79,9.79,0,0,0,2.13-1.72L276.12,40a11.68,11.68,0,0,1-9.95,5,14,14,0,0,1-5.13-1ZM262.22,29a4.18,4.18,0,0,0-1.7,2.88h10.65a4.15,4.15,0,0,0-.77-1.94,5.16,5.16,0,0,0-4.26-2.13A6.16,6.16,0,0,0,262.22,29Zm20.49,14.4a11.29,11.29,0,0,1-4.2-4,10.74,10.74,0,0,1,0-11.11,11.29,11.29,0,0,1,4.2-4,12,12,0,0,1,11.59,0,11.4,11.4,0,0,1,4.24,4,10.62,10.62,0,0,1,0,11.11,11.4,11.4,0,0,1-4.24,4,12,12,0,0,1-11.59,0Zm2.85-14.83a5.72,5.72,0,0,0-2.13,2.17,6.08,6.08,0,0,0-.77,3,6.36,6.36,0,0,0,.75,3.12,5.63,5.63,0,0,0,2.09,2.17,5.76,5.76,0,0,0,3,.79,5.71,5.71,0,0,0,5.07-3,6.27,6.27,0,0,0,.77-3.1,6.08,6.08,0,0,0-.77-3,5.77,5.77,0,0,0-2.11-2.17,5.89,5.89,0,0,0-5.9,0ZM311,28.7a6.16,6.16,0,0,0-3.06,1.92A6.29,6.29,0,0,0,306.53,35v9.41h-5.77V23.14h5.77V26a7.11,7.11,0,0,1,3.5-2.57,11.4,11.4,0,0,1,3.77-.64v5.65A8.59,8.59,0,0,0,311,28.7Zm5.41,23.71,3.68-8.75-9.14-20.44h6.7L323,36.77l5-13.55h6.7L322.78,52.41Z"/></g><g id="SvgjsUse2244"><path class="cls-1" d="M100.77,64.12H1.83a1.83,1.83,0,0,0,0,3.66h98.93a1.83,1.83,0,0,0,0-3.66Z"/><path class="cls-1" d="M.79,56.47A1.83,1.83,0,0,0,3.34,56L15.5,38.32,30.22,53.85,49.67,23.08l22,26.62L102.3,2.84a1.83,1.83,0,0,0-3.07-2l-28,42.7-22-26.69L29.63,47.91,15,32.52.32,53.93A1.83,1.83,0,0,0,.79,56.47Z"/></g></svg>