<svg xmlns="http://www.w3.org/2000/svg" xmlns:xlink="http://www.w3.org/1999/xlink" viewBox="0 0 32.47 28.58"><defs><style>.cls-1{fill:url(#linear-gradient);}.cls-2{fill:url(#linear-gradient-2);}.cls-3{fill:url(#linear-gradient-3);}.cls-4{fill:url(#linear-gradient-4);}.cls-5{fill:url(#linear-gradient-5);}.cls-6{fill:url(#linear-gradient-6);}.cls-7{fill:url(#linear-gradient-7);}.cls-8{fill:url(#linear-gradient-8);}.cls-9{fill:url(#linear-gradient-9);}.cls-10{fill:url(#linear-gradient-10);}.cls-11{fill:url(#linear-gradient-11);}.cls-12{fill:url(#linear-gradient-12);}.cls-13{fill:url(#linear-gradient-13);}.cls-14{fill:url(#linear-gradient-14);}.cls-15{fill:url(#linear-gradient-15);}.cls-16{fill:url(#linear-gradient-16);}.cls-17{fill:url(#linear-gradient-17);}.cls-18{fill:url(#linear-gradient-18);}.cls-19{fill:url(#linear-gradient-19);}.cls-20{fill:url(#linear-gradient-20);}.cls-21{fill:url(#linear-gradient-21);}.cls-22{fill:url(#linear-gradient-22);}.cls-23{fill:url(#linear-gradient-23);}.cls-24{fill:url(#linear-gradient-24);}.cls-25{fill:url(#linear-gradient-25);}.cls-26{fill:url(#linear-gradient-26);}.cls-27{fill:url(#linear-gradient-27);}.cls-28{fill:url(#linear-gradient-28);}.cls-29{fill:url(#linear-gradient-29);}.cls-30{fill:url(#linear-gradient-30);}.cls-31{fill:url(#linear-gradient-31);}.cls-32{fill:url(#linear-gradient-32);}.cls-33{fill:url(#linear-gradient-33);}.cls-34{fill:url(#linear-gradient-34);}.cls-35{fill:url(#linear-gradient-35);}.cls-36{fill:url(#linear-gradient-36);}.cls-37{fill:url(#linear-gradient-37);}.cls-38{fill:url(#linear-gradient-38);}.cls-39{fill:url(#linear-gradient-39);}.cls-40{fill:url(#linear-gradient-40);}.cls-41{fill:url(#linear-gradient-41);}.cls-42{fill:url(#linear-gradient-42);}.cls-43{fill:url(#linear-gradient-43);}.cls-44{fill:url(#linear-gradient-44);}.cls-45{fill:url(#linear-gradient-45);}.cls-46{fill:url(#linear-gradient-46);}.cls-47{fill:url(#linear-gradient-47);}</style><linearGradient id="linear-gradient" x1="859.25" y1="-20.02" x2="832.25" y2="171.98" gradientTransform="translate(-815.92 -49.51)" gradientUnits="userSpaceOnUse"><stop offset="0" stop-color="#29abe2"/><stop offset="1" stop-color="#4f00bc"/></linearGradient><linearGradient id="linear-gradient-2" x1="859.84" y1="-19.94" x2="832.84" y2="172.06" xlink:href="#linear-gradient"/><linearGradient id="linear-gradient-3" x1="852.21" y1="-21.01" x2="825.21" y2="170.99" xlink:href="#linear-gradient"/><linearGradient id="linear-gradient-4" x1="843.33" y1="-22.26" x2="816.33" y2="169.74" xlink:href="#linear-gradient"/><linearGradient id="linear-gradient-5" x1="841.33" y1="-22.54" x2="814.33" y2="169.46" xlink:href="#linear-gradient"/><linearGradient id="linear-gradient-6" x1="856.51" y1="-20.41" x2="829.51" y2="171.59" xlink:href="#linear-gradient"/><linearGradient id="linear-gradient-7" x1="857.96" y1="-20.2" x2="830.96" y2="171.8" xlink:href="#linear-gradient"/><linearGradient id="linear-gradient-8" x1="834.91" y1="-23.44" x2="807.91" y2="168.56" xlink:href="#linear-gradient"/><linearGradient id="linear-gradient-9" x1="837.89" y1="-23.02" x2="810.9" y2="168.98" xlink:href="#linear-gradient"/><linearGradient id="linear-gradient-10" x1="850.65" y1="-21.23" x2="823.65" y2="170.77" xlink:href="#linear-gradient"/><linearGradient id="linear-gradient-11" x1="844.72" y1="-22.06" x2="817.72" y2="169.94" xlink:href="#linear-gradient"/><linearGradient id="linear-gradient-12" x1="846.68" y1="-21.79" x2="819.68" y2="170.21" xlink:href="#linear-gradient"/><linearGradient id="linear-gradient-13" x1="844.4" y1="-22.11" x2="817.4" y2="169.89" xlink:href="#linear-gradient"/><linearGradient id="linear-gradient-14" x1="842.45" y1="-22.38" x2="815.45" y2="169.62" xlink:href="#linear-gradient"/><linearGradient id="linear-gradient-15" x1="844.56" y1="-22.09" x2="817.56" y2="169.91" xlink:href="#linear-gradient"/><linearGradient id="linear-gradient-16" x1="844.55" y1="-22.09" x2="817.55" y2="169.91" xlink:href="#linear-gradient"/><linearGradient id="linear-gradient-17" x1="850.5" y1="-21.25" x2="823.5" y2="170.75" xlink:href="#linear-gradient"/><linearGradient id="linear-gradient-18" x1="831.99" y1="-23.85" x2="804.99" y2="168.15" xlink:href="#linear-gradient"/><linearGradient id="linear-gradient-19" x1="830.49" y1="-24.06" x2="803.49" y2="167.94" xlink:href="#linear-gradient"/><linearGradient id="linear-gradient-20" x1="829" y1="-24.27" x2="802" y2="167.73" xlink:href="#linear-gradient"/><linearGradient id="linear-gradient-21" x1="836.66" y1="-23.2" x2="809.66" y2="168.8" xlink:href="#linear-gradient"/><linearGradient id="linear-gradient-22" x1="837.01" y1="-23.15" x2="810.01" y2="168.85" xlink:href="#linear-gradient"/><linearGradient id="linear-gradient-23" x1="843.55" y1="-22.23" x2="816.55" y2="169.77" xlink:href="#linear-gradient"/><linearGradient id="linear-gradient-24" x1="840.88" y1="-22.6" x2="813.88" y2="169.4" xlink:href="#linear-gradient"/><linearGradient id="linear-gradient-25" x1="843.05" y1="-22.3" x2="816.05" y2="169.7" xlink:href="#linear-gradient"/><linearGradient id="linear-gradient-26" x1="845.22" y1="-21.99" x2="818.22" y2="170.01" xlink:href="#linear-gradient"/><linearGradient id="linear-gradient-27" x1="845.71" y1="-21.92" x2="818.71" y2="170.08" xlink:href="#linear-gradient"/><linearGradient id="linear-gradient-28" x1="840.89" y1="-22.6" x2="813.89" y2="169.4" xlink:href="#linear-gradient"/><linearGradient id="linear-gradient-29" x1="843.51" y1="-22.23" x2="816.51" y2="169.77" xlink:href="#linear-gradient"/><linearGradient id="linear-gradient-30" x1="846.96" y1="-21.75" x2="819.96" y2="170.25" xlink:href="#linear-gradient"/><linearGradient id="linear-gradient-31" x1="846.2" y1="-21.86" x2="819.2" y2="170.14" xlink:href="#linear-gradient"/><linearGradient id="linear-gradient-32" x1="841.34" y1="-22.54" x2="814.34" y2="169.46" xlink:href="#linear-gradient"/><linearGradient id="linear-gradient-33" x1="836.44" y1="-23.23" x2="809.44" y2="168.77" xlink:href="#linear-gradient"/><linearGradient id="linear-gradient-34" x1="830.57" y1="-24.05" x2="803.57" y2="167.95" xlink:href="#linear-gradient"/><linearGradient id="linear-gradient-35" x1="836.96" y1="-23.15" x2="809.97" y2="168.85" xlink:href="#linear-gradient"/><linearGradient id="linear-gradient-36" x1="843.36" y1="-22.25" x2="816.36" y2="169.75" xlink:href="#linear-gradient"/><linearGradient id="linear-gradient-37" x1="829.01" y1="-24.27" x2="802.01" y2="167.73" xlink:href="#linear-gradient"/><linearGradient id="linear-gradient-38" x1="830.63" y1="-24.04" x2="803.63" y2="167.96" xlink:href="#linear-gradient"/><linearGradient id="linear-gradient-39" x1="830.88" y1="-24.01" x2="803.88" y2="167.99" xlink:href="#linear-gradient"/><linearGradient id="linear-gradient-40" x1="831.13" y1="-23.97" x2="804.13" y2="168.03" xlink:href="#linear-gradient"/><linearGradient id="linear-gradient-41" x1="832.5" y1="-23.78" x2="805.5" y2="168.22" xlink:href="#linear-gradient"/><linearGradient id="linear-gradient-42" x1="831.44" y1="-23.93" x2="804.44" y2="168.07" xlink:href="#linear-gradient"/><linearGradient id="linear-gradient-43" x1="831.94" y1="-23.86" x2="804.94" y2="168.14" xlink:href="#linear-gradient"/><linearGradient id="linear-gradient-44" x1="831.34" y1="-23.95" x2="804.34" y2="168.06" xlink:href="#linear-gradient"/><linearGradient id="linear-gradient-45" x1="828.32" y1="-24.37" x2="801.32" y2="167.63" xlink:href="#linear-gradient"/><linearGradient id="linear-gradient-46" x1="827.57" y1="-24.47" x2="800.57" y2="167.53" xlink:href="#linear-gradient"/><linearGradient id="linear-gradient-47" x1="828.72" y1="-24.31" x2="801.72" y2="167.69" xlink:href="#linear-gradient"/></defs><title>Asset 16</title><g id="Layer_2" data-name="Layer 2"><g id="_ÎÓÈ_1" data-name="—ÎÓÈ_1"><path class="cls-1" d="M29.89,19.53a.2.2,0,0,1,0-.4l1.93-.28a.2.2,0,0,1,.06.4l-1.93.28Z"/><path class="cls-2" d="M30.31,22.4a.2.2,0,0,1,0-.4l1.49-.22a.2.2,0,0,1,.06.4l-1.49.22Z"/><path class="cls-3" d="M22.16,26.36h-.05l-3.86-1.07L14,25.8a.2.2,0,0,1,0-.4l4.34-.53h.08L22.18,26l7.23-.64,2.16-.9.07-8.58a.2.2,0,0,1,.2-.2h0a.2.2,0,0,1,.2.2L32,24.54a.2.2,0,0,1-.12.18l-2.32,1h-.06l-7.3.65Z"/><path class="cls-4" d="M14.07,26.77a.2.2,0,0,1-.2-.17l-.5-3.38a.2.2,0,0,1,.4-.06l.5,3.38a.2.2,0,0,1-.17.23Z"/><path class="cls-5" d="M13,19.8a.2.2,0,0,1-.2-.17L12.31,16a.2.2,0,1,1,.4-.06l.53,3.62a.2.2,0,0,1-.17.23Z"/><path class="cls-6" d="M28.56,19.28a.2.2,0,0,1-.2-.17l-.49-3.33a.2.2,0,1,1,.4-.06L28.76,19a.2.2,0,0,1-.17.23Z"/><path class="cls-7" d="M29.26,24.09a.2.2,0,0,1-.2-.17l-.4-2.7a.2.2,0,0,1,.4-.06l.4,2.7a.2.2,0,0,1-.17.23Z"/><path class="cls-8" d="M.2,18a.2.2,0,0,1,0-.4l12.31-1.81a.2.2,0,0,1,.06.4L.23,18Z"/><path class="cls-9" d="M1.76,28.58a.2.2,0,0,1,0-.4L14,26.37a.2.2,0,1,1,.06.4L1.79,28.58Z"/><path class="cls-10" d="M12.68,17.32a.2.2,0,0,1,0-.4l4.54-.66,2.35-3.81,0,0L22.45,9.6,23.17,6a.2.2,0,0,1,.28-.14l1.66.76a.2.2,0,0,1,.12.16l.36,3.33a.2.2,0,0,1,0,.1l-1,2.26,1.06,1,6.22-.61a.2.2,0,0,1,.22.17l.41,2.78a.2.2,0,0,1-.17.23l-2.84.42a.2.2,0,1,1-.06-.4L32,15.6l-.35-2.39-6.11.6a.2.2,0,0,1-.16-.05l-1.24-1.12a.2.2,0,0,1,0-.23l1-2.35-.34-3.16-1.32-.61-.68,3.45a.2.2,0,0,1-.06.11l-2.91,2.85-2.38,3.86a.2.2,0,0,1-.14.09l-4.63.67Z"/><path class="cls-11" d="M16.41,18.41a.2.2,0,0,1-.2-.17L16,16.64a.2.2,0,0,1,.4-.06l.23,1.6a.2.2,0,0,1-.17.23Z"/><path class="cls-12" d="M17.43,25.37a.2.2,0,0,1-.2-.17L17,23.59a.2.2,0,0,1,.4-.06l.24,1.61a.2.2,0,0,1-.17.23Z"/><path class="cls-13" d="M15.06,25.66a.2.2,0,0,1-.2-.17l-.23-1.55a.2.2,0,1,1,.4-.06l.23,1.55a.2.2,0,0,1-.17.23Z"/><path class="cls-14" d="M14,18.76a.2.2,0,0,1-.2-.17L13.61,17a.2.2,0,1,1,.4-.06l.24,1.6a.2.2,0,0,1-.17.23Z"/><path class="cls-15" d="M15.61,24.22a3.17,3.17,0,0,1-3.12-2.7,3.16,3.16,0,0,1,2.67-3.59,3.16,3.16,0,1,1,.46,6.28Zm0-5.92-.4,0a2.76,2.76,0,0,0-2.32,3.13,2.77,2.77,0,0,0,2.72,2.35l.4,0a2.76,2.76,0,0,0-.4-5.48Z"/><path class="cls-16" d="M15.69,23a.2.2,0,0,1,.17-.23h0a.2.2,0,0,1,.23.17h0a.2.2,0,0,1-.17.23h0A.2.2,0,0,1,15.69,23Zm-.77.07h0a.2.2,0,0,1-.12-.26h0a.2.2,0,0,1,.26-.12h0a.2.2,0,0,1,.12.26h0A.2.2,0,0,1,15,23h-.07Zm1.64-.33a.2.2,0,0,1,0-.28h0a.2.2,0,0,1,.28,0h0a.2.2,0,0,1,0,.28h0a.2.2,0,0,1-.12,0h0A.2.2,0,0,1,16.57,22.7Zm-2.48-.22a.2.2,0,0,1,0-.29h0a.2.2,0,0,1,.29,0h0a.2.2,0,0,1,0,.28h0a.2.2,0,0,1-.14.05h0A.2.2,0,0,1,14.09,22.48Zm3.13-.41a.2.2,0,0,1-.09-.27h0a.2.2,0,0,1,.27-.09h0a.2.2,0,0,1,.09.27h0a.2.2,0,0,1-.18.11h0Zm-3.62-.46a.2.2,0,0,1,.14-.25h0a.2.2,0,0,1,.25.14h0a.2.2,0,0,1-.14.25H13.8A.2.2,0,0,1,13.6,21.61Zm3.7-.6h0a.2.2,0,0,1,.2-.21h0a.2.2,0,0,1,.21.2h0a.2.2,0,0,1-.2.21h0A.2.2,0,0,1,17.3,21Zm-3.57-.16a.2.2,0,0,1-.15-.24h0a.2.2,0,0,1,.24-.15h0a.2.2,0,0,1,.15.24h0a.2.2,0,0,1-.2.16h0Zm3.36-.62h0a.2.2,0,0,1,.08-.28h0a.2.2,0,0,1,.27.08h0a.2.2,0,0,1-.08.27h0l-.1,0h0A.2.2,0,0,1,17.09,20.23ZM14,20a.2.2,0,0,1,0-.28h0a.2.2,0,0,1,.28,0h0a.2.2,0,0,1,0,.28h0a.2.2,0,0,1-.15.07h0A.21.21,0,0,1,14,20Zm2.49-.35h0a.2.2,0,0,1-.06-.28h0a.2.2,0,0,1,.28-.06h0a.2.2,0,0,1,.06.28h0a.2.2,0,0,1-.17.09h0A.2.2,0,0,1,16.54,19.64Zm-1.82-.26a.2.2,0,0,1,.11-.26h0a.2.2,0,0,1,.26.11h0a.2.2,0,0,1-.11.26H14.9A.2.2,0,0,1,14.71,19.39Zm1.06,0a.2.2,0,0,1-.18-.22h0a.2.2,0,0,1,.22-.18h0a.2.2,0,0,1,.18.22h0a.2.2,0,0,1-.2.18h0Z"/><path class="cls-17" d="M22.7,9.54a.2.2,0,0,1,0-.4L23.74,9l0-2-.55-.25a.2.2,0,1,1,.16-.37l.67.3a.2.2,0,0,1,.12.18l0,2.28a.2.2,0,0,1-.18.2l-1.24.11Z"/><path class="cls-18" d="M1.76,28.58a.2.2,0,0,1-.2-.2.2.2,0,0,1,.06-.14.21.21,0,0,1,.29,0,.2.2,0,0,1,.06.14.21.21,0,0,1-.06.14A.2.2,0,0,1,1.76,28.58Z"/><path class="cls-19" d="M1.43,27.53a.2.2,0,0,1,.17-.23h0a.2.2,0,0,1,.23.17h0a.2.2,0,0,1-.17.23h0A.2.2,0,0,1,1.43,27.53Zm-.13-.88a.2.2,0,0,1,.17-.23h0a.2.2,0,0,1,.23.17h0a.2.2,0,0,1-.17.23h0A.2.2,0,0,1,1.3,26.65Zm-.13-.88a.2.2,0,0,1,.17-.23h0a.2.2,0,0,1,.23.17h0a.2.2,0,0,1-.17.23h0A.2.2,0,0,1,1.17,25.76ZM1,24.88a.2.2,0,0,1,.17-.23h0a.2.2,0,0,1,.23.17h0a.2.2,0,0,1-.17.23h0A.2.2,0,0,1,1,24.88ZM.91,24a.2.2,0,0,1,.17-.23h0a.2.2,0,0,1,.23.17h0a.2.2,0,0,1-.17.23h0A.2.2,0,0,1,.91,24Zm-.13-.88A.2.2,0,0,1,1,22.89H1a.2.2,0,0,1,.23.17h0a.2.2,0,0,1-.17.23H1A.2.2,0,0,1,.78,23.12Zm-.13-.88A.2.2,0,0,1,.82,22h0a.2.2,0,0,1,.23.17h0a.2.2,0,0,1-.17.23h0A.2.2,0,0,1,.65,22.23Zm-.13-.88a.2.2,0,0,1,.17-.23h0a.2.2,0,0,1,.23.17h0a.2.2,0,0,1-.17.23h0A.2.2,0,0,1,.52,21.35Zm-.13-.88a.2.2,0,0,1,.17-.23h0a.2.2,0,0,1,.23.17h0a.2.2,0,0,1-.17.23h0A.2.2,0,0,1,.39,20.47Zm-.13-.88a.2.2,0,0,1,.17-.23h0a.2.2,0,0,1,.23.17h0a.2.2,0,0,1-.17.23h0A.2.2,0,0,1,.26,19.58ZM.13,18.7a.2.2,0,0,1,.17-.23h0a.2.2,0,0,1,.23.17h0a.2.2,0,0,1-.17.23h0A.2.2,0,0,1,.13,18.7Z"/><path class="cls-20" d="M.2,18a.21.21,0,0,1-.14-.06.2.2,0,0,1,0-.29.21.21,0,0,1,.29,0A.2.2,0,0,1,.2,18Z"/><path class="cls-21" d="M15.57,13.86H2.52a.2.2,0,0,1-.2-.2V7.3a.2.2,0,1,1,.4,0v6.15H15.37V10a.2.2,0,0,1,.4,0v3.68A.2.2,0,0,1,15.57,13.86Z"/><path class="cls-22" d="M12.92,5H7.47a.2.2,0,1,1,0-.4h5.45a.2.2,0,1,1,0,.4Z"/><path class="cls-23" d="M20.42,10.17H12.92a.2.2,0,0,1-.2-.2V2.48a.2.2,0,0,1,.2-.2h1.55a.2.2,0,1,1,0,.4H13.12V9.77h7.09V2.68H18.9a.2.2,0,0,1,0-.4h1.52a.2.2,0,0,1,.2.2V10A.2.2,0,0,1,20.42,10.17Z"/><path class="cls-24" d="M14.47,2.68a.21.21,0,0,1-.14-.06.2.2,0,0,1-.06-.14.21.21,0,0,1,.06-.14.21.21,0,0,1,.29,0,.21.21,0,0,1,.06.14.2.2,0,0,1-.2.2Z"/><path class="cls-25" d="M17.81,2.48a.2.2,0,0,1,.2-.2h0a.2.2,0,0,1,.2.2h0a.2.2,0,0,1-.2.2h0A.2.2,0,0,1,17.81,2.48Zm-.89,0a.2.2,0,0,1,.2-.2h0a.2.2,0,0,1,.2.2h0a.2.2,0,0,1-.2.2h0A.2.2,0,0,1,16.93,2.48Zm-.88,0a.2.2,0,0,1,.2-.2h0a.2.2,0,0,1,.2.2h0a.2.2,0,0,1-.2.2h0A.2.2,0,0,1,16,2.48Zm-.89,0a.2.2,0,0,1,.2-.2h0a.2.2,0,0,1,.2.2h0a.2.2,0,0,1-.2.2h0A.2.2,0,0,1,15.16,2.48Z"/><path class="cls-26" d="M18.9,2.68a.2.2,0,0,1-.2-.2.21.21,0,0,1,.06-.14.21.21,0,0,1,.29,0,.21.21,0,0,1,.06.14.2.2,0,0,1-.06.14A.21.21,0,0,1,18.9,2.68Z"/><path class="cls-27" d="M17.2,10.17l-.09,0A.2.2,0,0,1,17,9.88l3.22-6.59a.2.2,0,1,1,.36.18l-3.22,6.59A.2.2,0,0,1,17.2,10.17Z"/><path class="cls-28" d="M13.07,10.17a.2.2,0,0,1-.16-.32l.92-1.32a.2.2,0,0,1,.33.23l-.92,1.32A.2.2,0,0,1,13.07,10.17Z"/><path class="cls-29" d="M17.9,8.72a.2.2,0,0,1-.16-.08L15.92,6.26,15,7.53a.2.2,0,1,1-.33-.23l1.05-1.5a.2.2,0,0,1,.16-.09.2.2,0,0,1,.16.08l2,2.6a.2.2,0,0,1-.16.32Z"/><path class="cls-30" d="M19.87,7.09l-.09,0a.2.2,0,0,1-.09-.27l.49-1a.2.2,0,1,1,.36.18l-.49,1A.2.2,0,0,1,19.87,7.09Z"/><path class="cls-31" d="M18.66,9.58l-.09,0a.2.2,0,0,1-.09-.27l.75-1.54a.2.2,0,1,1,.36.18l-.75,1.54A.2.2,0,0,1,18.66,9.58Z"/><path class="cls-32" d="M15.25,8.86H12.92a.2.2,0,0,1,0-.4h2.2A.7.7,0,1,0,13.79,8a.2.2,0,0,1-.3.12.37.37,0,0,0-.43,0,.2.2,0,1,1-.27-.3.78.78,0,0,1,.7-.17,1.1,1.1,0,1,1,1.94,1A.2.2,0,0,1,15.25,8.86Z"/><path class="cls-33" d="M7.89,11.16l-.09,0A.2.2,0,0,1,7.69,11V7.42A.2.2,0,0,1,8,7.26L10.47,9a.2.2,0,0,1,0,.33L8,11.12A.2.2,0,0,1,7.89,11.16Zm.2-3.35v2.75L10,9.19Z"/><path class="cls-34" d="M2.52,12.89a.2.2,0,0,1-.14-.35.21.21,0,0,1,.29,0,.2.2,0,0,1-.14.35Z"/><path class="cls-35" d="M14.44,12.68a.2.2,0,0,1,.2-.2h0a.2.2,0,0,1,.2.2h0a.2.2,0,0,1-.2.2h0A.2.2,0,0,1,14.44,12.68Zm-.93,0a.2.2,0,0,1,.2-.2h0a.2.2,0,0,1,.2.2h0a.2.2,0,0,1-.2.2h0A.2.2,0,0,1,13.51,12.68Zm-.93,0a.2.2,0,0,1,.2-.2h0a.2.2,0,0,1,.2.2h0a.2.2,0,0,1-.2.2h0A.2.2,0,0,1,12.57,12.68Zm-.93,0a.2.2,0,0,1,.2-.2h0a.2.2,0,0,1,.2.2h0a.2.2,0,0,1-.2.2h0A.2.2,0,0,1,11.64,12.68Zm-.93,0a.2.2,0,0,1,.2-.2h0a.2.2,0,0,1,.2.2h0a.2.2,0,0,1-.2.2h0A.2.2,0,0,1,10.71,12.68Zm-.93,0a.2.2,0,0,1,.2-.2h0a.2.2,0,0,1,.2.2h0a.2.2,0,0,1-.2.2h0A.2.2,0,0,1,9.78,12.68Zm-.93,0a.2.2,0,0,1,.2-.2H9a.2.2,0,0,1,.2.2h0a.2.2,0,0,1-.2.2H9A.2.2,0,0,1,8.84,12.68Zm-.93,0a.2.2,0,0,1,.2-.2h0a.2.2,0,0,1,.2.2h0a.2.2,0,0,1-.2.2h0A.2.2,0,0,1,7.91,12.68Zm-.93,0a.2.2,0,0,1,.2-.2h0a.2.2,0,0,1,.2.2h0a.2.2,0,0,1-.2.2h0A.2.2,0,0,1,7,12.68Zm-.93,0a.2.2,0,0,1,.2-.2h0a.2.2,0,0,1,.2.2h0a.2.2,0,0,1-.2.2h0A.2.2,0,0,1,6,12.68Zm-.93,0a.2.2,0,0,1,.2-.2h0a.2.2,0,0,1,.2.2h0a.2.2,0,0,1-.2.2h0A.2.2,0,0,1,5.12,12.68Zm-.93,0a.2.2,0,0,1,.2-.2h0a.2.2,0,0,1,.2.2h0a.2.2,0,0,1-.2.2h0A.2.2,0,0,1,4.18,12.68Zm-.93,0a.2.2,0,0,1,.2-.2h0a.2.2,0,0,1,.2.2h0a.2.2,0,0,1-.2.2h0A.2.2,0,0,1,3.25,12.68Z"/><path class="cls-36" d="M15.57,12.89a.21.21,0,0,1-.14-.06.2.2,0,0,1-.06-.14.2.2,0,0,1,.06-.14.21.21,0,0,1,.28,0,.2.2,0,0,1,0,.29A.2.2,0,0,1,15.57,12.89Z"/><path class="cls-37" d="M2.67,5.91a.2.2,0,0,1-.2-.2V2.55l-.82.82a.2.2,0,0,1-.29-.29L2.52,1.92a.2.2,0,0,1,.34.14V5.71A.2.2,0,0,1,2.67,5.91Z"/><path class="cls-38" d="M4.08,2.26a.2.2,0,0,1-.14-.35.21.21,0,0,1,.29,0,.21.21,0,0,1,.06.14.2.2,0,0,1-.06.14A.21.21,0,0,1,4.08,2.26Z"/><path class="cls-39" d="M3.88,4.8a.2.2,0,0,1,.2-.2h0a.2.2,0,0,1,.2.2h0a.2.2,0,0,1-.2.2h0A.2.2,0,0,1,3.88,4.8Zm0-.91a.2.2,0,0,1,.2-.2h0a.2.2,0,0,1,.2.2h0a.2.2,0,0,1-.2.2h0A.2.2,0,0,1,3.88,3.89Zm0-.91a.2.2,0,0,1,.2-.2h0a.2.2,0,0,1,.2.2h0a.2.2,0,0,1-.2.2h0A.2.2,0,0,1,3.88,3Z"/><path class="cls-40" d="M4.08,5.91a.2.2,0,0,1-.14-.35.21.21,0,0,1,.29,0,.2.2,0,0,1-.14.35Z"/><path class="cls-41" d="M5.73,5.91a.2.2,0,0,1-.2-.2V2.06a.2.2,0,0,1,.4,0V5.71A.2.2,0,0,1,5.73,5.91Z"/><path class="cls-42" d="M5.73,2.26H4.08a.2.2,0,1,1,0-.4H5.73a.2.2,0,1,1,0,.4Z"/><path class="cls-43" d="M5.73,5.91H4.08a.2.2,0,1,1,0-.4H5.73a.2.2,0,1,1,0,.4Z"/><path class="cls-44" d="M3.9,7.77A3.89,3.89,0,0,1,1,6.44a.2.2,0,0,1,.3-.27A3.48,3.48,0,1,0,2.43.73.2.2,0,0,1,2.26.36,3.89,3.89,0,1,1,3.9,7.77Z"/><path class="cls-45" d="M1.13,6.51A.2.2,0,0,1,1,6.45a.21.21,0,0,1-.06-.14A.2.2,0,0,1,1,6.17a.21.21,0,0,1,.29,0,.2.2,0,0,1,.06.14.2.2,0,0,1-.2.2Z"/><path class="cls-46" d="M.47,5.7h0a.2.2,0,0,1,.08-.27h0a.2.2,0,0,1,.27.08h0a.2.2,0,0,1-.08.27h0l-.09,0h0A.2.2,0,0,1,.47,5.7ZM.14,4.86a.2.2,0,0,1,.14-.25h0a.2.2,0,0,1,.25.14h0A.2.2,0,0,1,.39,5H.34A.2.2,0,0,1,.14,4.86ZM0,4a.2.2,0,0,1,.2-.21h0A.2.2,0,0,1,.42,4h0a.2.2,0,0,1-.2.21h0A.2.2,0,0,1,0,4Zm.24-.66A.2.2,0,0,1,.1,3.08h0a.2.2,0,0,1,.24-.16h0a.2.2,0,0,1,.16.24h0a.2.2,0,0,1-.2.16h0ZM.48,2.5a.2.2,0,0,1-.1-.27h0a.2.2,0,0,1,.27-.1h0a.2.2,0,0,1,.1.27h0a.2.2,0,0,1-.18.11h0Zm.41-.75a.2.2,0,0,1,0-.28h0a.2.2,0,0,1,.28,0h0a.2.2,0,0,1,0,.28h0A.2.2,0,0,1,1,1.79H1A.2.2,0,0,1,.89,1.75Zm.57-.63a.2.2,0,0,1,0-.28h0a.2.2,0,0,1,.28,0h0a.2.2,0,0,1,0,.28h0a.2.2,0,0,1-.13,0h0A.2.2,0,0,1,1.46,1.12Z"/><path class="cls-47" d="M2.35.75A.2.2,0,0,1,2.21.4a.21.21,0,0,1,.29,0,.2.2,0,0,1,.06.14.2.2,0,0,1-.2.2Z"/></g></g></svg>