<svg xmlns="http://www.w3.org/2000/svg" xmlns:xlink="http://www.w3.org/1999/xlink" viewBox="0 0 34.53 45.86"><defs><style>.cls-1{fill:url(#linear-gradient);}.cls-2{fill:url(#linear-gradient-2);}.cls-3{fill:url(#linear-gradient-3);}.cls-4{fill:url(#linear-gradient-4);}.cls-5{fill:url(#linear-gradient-5);}.cls-6{fill:url(#linear-gradient-6);}.cls-7{fill:url(#linear-gradient-7);}.cls-8{fill:url(#linear-gradient-8);}.cls-9{fill:url(#linear-gradient-9);}.cls-10{fill:url(#linear-gradient-10);}.cls-11{fill:url(#linear-gradient-11);}.cls-12{fill:url(#linear-gradient-12);}.cls-13{fill:url(#linear-gradient-13);}.cls-14{fill:url(#linear-gradient-14);}.cls-15{fill:url(#linear-gradient-15);}.cls-16{fill:url(#linear-gradient-16);}.cls-17{fill:url(#linear-gradient-17);}.cls-18{fill:url(#linear-gradient-18);}.cls-19{fill:url(#linear-gradient-19);}.cls-20{fill:url(#linear-gradient-20);}.cls-21{fill:url(#linear-gradient-21);}.cls-22{fill:url(#linear-gradient-22);}.cls-23{fill:url(#linear-gradient-23);}.cls-24{fill:url(#linear-gradient-24);}.cls-25{fill:url(#linear-gradient-25);}.cls-26{fill:url(#linear-gradient-26);}.cls-27{fill:url(#linear-gradient-27);}.cls-28{fill:url(#linear-gradient-28);}.cls-29{fill:url(#linear-gradient-29);}.cls-30{fill:url(#linear-gradient-30);}.cls-31{fill:url(#linear-gradient-31);}.cls-32{fill:url(#linear-gradient-32);}.cls-33{fill:url(#linear-gradient-33);}.cls-34{fill:url(#linear-gradient-34);}.cls-35{fill:url(#linear-gradient-35);}.cls-36{fill:url(#linear-gradient-36);}.cls-37{fill:url(#linear-gradient-37);}.cls-38{fill:url(#linear-gradient-38);}.cls-39{fill:url(#linear-gradient-39);}.cls-40{fill:url(#linear-gradient-40);}.cls-41{fill:url(#linear-gradient-41);}.cls-42{fill:url(#linear-gradient-42);}.cls-43{fill:url(#linear-gradient-43);}.cls-44{fill:url(#linear-gradient-44);}.cls-45{fill:url(#linear-gradient-45);}.cls-46{fill:url(#linear-gradient-46);}.cls-47{fill:url(#linear-gradient-47);}.cls-48{fill:url(#linear-gradient-48);}.cls-49{fill:url(#linear-gradient-49);}.cls-50{fill:url(#linear-gradient-50);}.cls-51{fill:url(#linear-gradient-51);}.cls-52{fill:url(#linear-gradient-52);}.cls-53{fill:url(#linear-gradient-53);}.cls-54{fill:url(#linear-gradient-54);}.cls-55{fill:url(#linear-gradient-55);}.cls-56{fill:url(#linear-gradient-56);}.cls-57{fill:url(#linear-gradient-57);}.cls-58{fill:url(#linear-gradient-58);}.cls-59{fill:url(#linear-gradient-59);}.cls-60{fill:url(#linear-gradient-60);}.cls-61{fill:url(#linear-gradient-61);}.cls-62{fill:url(#linear-gradient-62);}.cls-63{fill:url(#linear-gradient-63);}.cls-64{fill:url(#linear-gradient-64);}.cls-65{fill:url(#linear-gradient-65);}.cls-66{fill:url(#linear-gradient-66);}.cls-67{fill:url(#linear-gradient-67);}.cls-68{fill:url(#linear-gradient-68);}.cls-69{fill:url(#linear-gradient-69);}.cls-70{fill:url(#linear-gradient-70);}.cls-71{fill:url(#linear-gradient-71);}.cls-72{fill:url(#linear-gradient-72);}.cls-73{fill:url(#linear-gradient-73);}.cls-74{fill:url(#linear-gradient-74);}.cls-75{fill:url(#linear-gradient-75);}.cls-76{fill:url(#linear-gradient-76);}.cls-77{fill:url(#linear-gradient-77);}.cls-78{fill:url(#linear-gradient-78);}.cls-79{fill:url(#linear-gradient-79);}.cls-80{fill:url(#linear-gradient-80);}.cls-81{fill:url(#linear-gradient-81);}.cls-82{fill:url(#linear-gradient-82);}.cls-83{fill:url(#linear-gradient-83);}.cls-84{fill:url(#linear-gradient-84);}.cls-85{fill:url(#linear-gradient-85);}.cls-86{fill:url(#linear-gradient-86);}.cls-87{fill:url(#linear-gradient-87);}.cls-88{fill:url(#linear-gradient-88);}</style><linearGradient id="linear-gradient" x1="849.59" y1="-40.59" x2="822.59" y2="151.41" gradientTransform="translate(-815.92 -49.51)" gradientUnits="userSpaceOnUse"><stop offset="0" stop-color="#29abe2"/><stop offset="1" stop-color="#4f00bc"/></linearGradient><linearGradient id="linear-gradient-2" x1="851.87" y1="-40.28" x2="824.87" y2="151.72" xlink:href="#linear-gradient"/><linearGradient id="linear-gradient-3" x1="853.55" y1="-107.63" x2="826.55" y2="84.37" xlink:href="#linear-gradient"/><linearGradient id="linear-gradient-4" x1="849.75" y1="-107.33" x2="822.75" y2="84.67" xlink:href="#linear-gradient"/><linearGradient id="linear-gradient-5" x1="857.83" y1="-111.49" x2="830.83" y2="80.51" xlink:href="#linear-gradient"/><linearGradient id="linear-gradient-6" x1="860.02" y1="-111.18" x2="833.02" y2="80.82" xlink:href="#linear-gradient"/><linearGradient id="linear-gradient-7" x1="861.8" y1="-110.93" x2="834.8" y2="81.07" xlink:href="#linear-gradient"/><linearGradient id="linear-gradient-8" x1="863.25" y1="-110.73" x2="836.25" y2="81.27" xlink:href="#linear-gradient"/><linearGradient id="linear-gradient-9" x1="865.21" y1="-110.45" x2="838.21" y2="81.55" xlink:href="#linear-gradient"/><linearGradient id="linear-gradient-10" x1="867.17" y1="-110.18" x2="840.17" y2="81.82" xlink:href="#linear-gradient"/><linearGradient id="linear-gradient-11" x1="868.6" y1="-109.98" x2="841.6" y2="82.02" xlink:href="#linear-gradient"/><linearGradient id="linear-gradient-12" x1="870.8" y1="-109.67" x2="843.8" y2="82.33" xlink:href="#linear-gradient"/><linearGradient id="linear-gradient-13" x1="872.27" y1="-109.46" x2="845.27" y2="82.54" xlink:href="#linear-gradient"/><linearGradient id="linear-gradient-14" x1="867.98" y1="-113.24" x2="840.98" y2="78.76" xlink:href="#linear-gradient"/><linearGradient id="linear-gradient-15" x1="869.63" y1="-113.01" x2="842.63" y2="78.99" xlink:href="#linear-gradient"/><linearGradient id="linear-gradient-16" x1="872.05" y1="-112.67" x2="845.05" y2="79.33" xlink:href="#linear-gradient"/><linearGradient id="linear-gradient-17" x1="850.78" y1="-98.58" x2="823.78" y2="93.42" xlink:href="#linear-gradient"/><linearGradient id="linear-gradient-18" x1="853.08" y1="-98.27" x2="826.08" y2="93.73" xlink:href="#linear-gradient"/><linearGradient id="linear-gradient-19" x1="855.41" y1="-97.93" x2="828.41" y2="94.07" xlink:href="#linear-gradient"/><linearGradient id="linear-gradient-20" x1="862.62" y1="-101.54" x2="835.62" y2="90.46" xlink:href="#linear-gradient"/><linearGradient id="linear-gradient-21" x1="847.91" y1="-108.98" x2="820.91" y2="83.02" xlink:href="#linear-gradient"/><linearGradient id="linear-gradient-22" x1="847.91" y1="-108.98" x2="820.91" y2="83.02" xlink:href="#linear-gradient"/><linearGradient id="linear-gradient-23" x1="847.91" y1="-108.98" x2="820.91" y2="83.02" xlink:href="#linear-gradient"/><linearGradient id="linear-gradient-24" x1="847.45" y1="-109.04" x2="820.45" y2="82.96" xlink:href="#linear-gradient"/><linearGradient id="linear-gradient-25" x1="848.37" y1="-108.91" x2="821.37" y2="83.09" xlink:href="#linear-gradient"/><linearGradient id="linear-gradient-26" x1="851.17" y1="-108.52" x2="824.17" y2="83.48" xlink:href="#linear-gradient"/><linearGradient id="linear-gradient-27" x1="844.65" y1="-109.44" x2="817.65" y2="82.56" xlink:href="#linear-gradient"/><linearGradient id="linear-gradient-28" x1="849.89" y1="-108.7" x2="822.89" y2="83.3" xlink:href="#linear-gradient"/><linearGradient id="linear-gradient-29" x1="845.93" y1="-109.26" x2="818.93" y2="82.74" xlink:href="#linear-gradient"/><linearGradient id="linear-gradient-30" x1="850.54" y1="-108.61" x2="823.54" y2="83.39" xlink:href="#linear-gradient"/><linearGradient id="linear-gradient-31" x1="845.28" y1="-109.35" x2="818.28" y2="82.65" xlink:href="#linear-gradient"/><linearGradient id="linear-gradient-32" x1="847.91" y1="-108.98" x2="820.91" y2="83.02" xlink:href="#linear-gradient"/><linearGradient id="linear-gradient-33" x1="858.82" y1="-107.44" x2="831.82" y2="84.56" xlink:href="#linear-gradient"/><linearGradient id="linear-gradient-34" x1="860.67" y1="-107.18" x2="833.67" y2="84.82" xlink:href="#linear-gradient"/><linearGradient id="linear-gradient-35" x1="847.84" y1="-108.99" x2="820.84" y2="83.01" xlink:href="#linear-gradient"/><linearGradient id="linear-gradient-36" x1="850.54" y1="-108.61" x2="823.54" y2="83.39" xlink:href="#linear-gradient"/><linearGradient id="linear-gradient-37" x1="853.24" y1="-108.23" x2="826.24" y2="83.77" xlink:href="#linear-gradient"/><linearGradient id="linear-gradient-38" x1="846.95" y1="-109.11" x2="819.95" y2="82.89" xlink:href="#linear-gradient"/><linearGradient id="linear-gradient-39" x1="863.53" y1="-106.78" x2="836.53" y2="85.22" xlink:href="#linear-gradient"/><linearGradient id="linear-gradient-40" x1="865.91" y1="-106.45" x2="838.91" y2="85.55" xlink:href="#linear-gradient"/><linearGradient id="linear-gradient-41" x1="861.15" y1="-107.12" x2="834.15" y2="84.88" xlink:href="#linear-gradient"/><linearGradient id="linear-gradient-42" x1="867.05" y1="-106.29" x2="840.05" y2="85.71" xlink:href="#linear-gradient"/><linearGradient id="linear-gradient-43" x1="866.85" y1="-106.31" x2="839.85" y2="85.69" xlink:href="#linear-gradient"/><linearGradient id="linear-gradient-44" x1="866.64" y1="-106.34" x2="839.64" y2="85.66" xlink:href="#linear-gradient"/><linearGradient id="linear-gradient-45" x1="863.72" y1="-106.75" x2="836.72" y2="85.25" xlink:href="#linear-gradient"/><linearGradient id="linear-gradient-46" x1="860.81" y1="-107.16" x2="833.81" y2="84.84" xlink:href="#linear-gradient"/><linearGradient id="linear-gradient-47" x1="863.14" y1="-106.84" x2="836.14" y2="85.16" xlink:href="#linear-gradient"/><linearGradient id="linear-gradient-48" x1="862.94" y1="-106.86" x2="835.94" y2="85.14" xlink:href="#linear-gradient"/><linearGradient id="linear-gradient-49" x1="865.09" y1="-106.56" x2="838.09" y2="85.44" xlink:href="#linear-gradient"/><linearGradient id="linear-gradient-50" x1="861.76" y1="-107.03" x2="834.76" y2="84.97" xlink:href="#linear-gradient"/><linearGradient id="linear-gradient-51" x1="860.85" y1="-107.16" x2="833.85" y2="84.84" xlink:href="#linear-gradient"/><linearGradient id="linear-gradient-52" x1="860.7" y1="-107.18" x2="833.7" y2="84.82" xlink:href="#linear-gradient"/><linearGradient id="linear-gradient-53" x1="860.74" y1="-107.17" x2="833.74" y2="84.83" xlink:href="#linear-gradient"/><linearGradient id="linear-gradient-54" x1="853.22" y1="-108.23" x2="826.22" y2="83.77" xlink:href="#linear-gradient"/><linearGradient id="linear-gradient-55" x1="860.43" y1="-107.22" x2="833.43" y2="84.78" xlink:href="#linear-gradient"/><linearGradient id="linear-gradient-56" x1="863.01" y1="-106.85" x2="836.01" y2="85.15" xlink:href="#linear-gradient"/><linearGradient id="linear-gradient-57" x1="860.75" y1="-107.17" x2="833.75" y2="84.83" xlink:href="#linear-gradient"/><linearGradient id="linear-gradient-58" x1="858.48" y1="-107.49" x2="831.48" y2="84.51" xlink:href="#linear-gradient"/><linearGradient id="linear-gradient-59" x1="867.64" y1="-106.2" x2="840.64" y2="85.8" xlink:href="#linear-gradient"/><linearGradient id="linear-gradient-60" x1="866.66" y1="-106.34" x2="839.66" y2="85.66" xlink:href="#linear-gradient"/><linearGradient id="linear-gradient-61" x1="858.17" y1="-107.53" x2="831.17" y2="84.47" xlink:href="#linear-gradient"/><linearGradient id="linear-gradient-62" x1="857.96" y1="-107.56" x2="830.96" y2="84.44" xlink:href="#linear-gradient"/><linearGradient id="linear-gradient-63" x1="857.75" y1="-107.59" x2="830.75" y2="84.41" xlink:href="#linear-gradient"/><linearGradient id="linear-gradient-64" x1="859.24" y1="-107.38" x2="832.24" y2="84.62" xlink:href="#linear-gradient"/><linearGradient id="linear-gradient-65" x1="860.74" y1="-107.17" x2="833.74" y2="84.83" xlink:href="#linear-gradient"/><linearGradient id="linear-gradient-66" x1="860.95" y1="-107.14" x2="833.95" y2="84.86" xlink:href="#linear-gradient"/><linearGradient id="linear-gradient-67" x1="861.16" y1="-107.11" x2="834.16" y2="84.89" xlink:href="#linear-gradient"/><linearGradient id="linear-gradient-68" x1="859.66" y1="-107.32" x2="832.66" y2="84.68" xlink:href="#linear-gradient"/><linearGradient id="linear-gradient-69" x1="859.44" y1="-107.36" x2="832.44" y2="84.64" xlink:href="#linear-gradient"/><linearGradient id="linear-gradient-70" x1="859.46" y1="-107.35" x2="832.46" y2="84.65" xlink:href="#linear-gradient"/><linearGradient id="linear-gradient-71" x1="861.49" y1="-107.07" x2="834.49" y2="84.93" xlink:href="#linear-gradient"/><linearGradient id="linear-gradient-72" x1="858.9" y1="-107.43" x2="831.9" y2="84.57" xlink:href="#linear-gradient"/><linearGradient id="linear-gradient-73" x1="860.36" y1="-107.23" x2="833.36" y2="84.77" xlink:href="#linear-gradient"/><linearGradient id="linear-gradient-74" x1="854.17" y1="-108.1" x2="827.17" y2="83.9" xlink:href="#linear-gradient"/><linearGradient id="linear-gradient-75" x1="854.18" y1="-108.1" x2="827.18" y2="83.9" xlink:href="#linear-gradient"/><linearGradient id="linear-gradient-76" x1="854.18" y1="-108.1" x2="827.18" y2="83.9" xlink:href="#linear-gradient"/><linearGradient id="linear-gradient-77" x1="849.46" y1="-108.76" x2="822.46" y2="83.24" xlink:href="#linear-gradient"/><linearGradient id="linear-gradient-78" x1="854.9" y1="-107.99" x2="827.9" y2="84.01" xlink:href="#linear-gradient"/><linearGradient id="linear-gradient-79" x1="867.17" y1="-106.27" x2="840.17" y2="85.73" xlink:href="#linear-gradient"/><linearGradient id="linear-gradient-80" x1="867.5" y1="-106.22" x2="840.5" y2="85.78" xlink:href="#linear-gradient"/><linearGradient id="linear-gradient-81" x1="868.55" y1="-106.08" x2="841.55" y2="85.92" xlink:href="#linear-gradient"/><linearGradient id="linear-gradient-82" x1="867.81" y1="-106.18" x2="840.81" y2="85.82" xlink:href="#linear-gradient"/><linearGradient id="linear-gradient-83" x1="50.23" y1="-161.41" x2="23.23" y2="30.59" gradientTransform="matrix(1, 0, 0, 1, 0, 0)" xlink:href="#linear-gradient"/><linearGradient id="linear-gradient-84" x1="847.53" y1="-107.04" x2="820.53" y2="84.96" xlink:href="#linear-gradient"/><linearGradient id="linear-gradient-85" x1="35.95" y1="-160.44" x2="8.95" y2="31.56" gradientTransform="matrix(1, 0, 0, 1, 0, 0)" xlink:href="#linear-gradient"/><linearGradient id="linear-gradient-86" x1="873.97" y1="-109.26" x2="846.97" y2="82.74" xlink:href="#linear-gradient"/><linearGradient id="linear-gradient-87" x1="875.62" y1="-109.02" x2="848.62" y2="82.98" xlink:href="#linear-gradient"/><linearGradient id="linear-gradient-88" x1="878.05" y1="-108.68" x2="851.05" y2="83.32" xlink:href="#linear-gradient"/></defs><title>Asset 16</title><g id="Layer_2" data-name="Layer 2"><g id="_ÎÓÈ_1" data-name="—ÎÓÈ_1"><path class="cls-1" d="M15.62,41.85h-.44l-.8-2.08h.38l.65,1.81.65-1.81h.38Z"/><path class="cls-2" d="M16.87,41.85V39.77h1.44v.29H17.22v.58h1v.29h-1v.62h1.09v.29Z"/><path class="cls-3" d="M8.52,45.83V43.76H10V44H8.87v.58h1v.29h-1v.62H10v.29Z"/><path class="cls-4" d="M6,45.83l-.14-.41h-1l-.15.41H4.3l.8-2.08h.48l.78,2.08ZM5.33,44l-.42,1.18h.84Z"/><path class="cls-5" d="M13,45.86c-.8,0-1-.5-1-1.06s.19-1.06,1-1.06,1,.49,1,1.06S13.78,45.86,13,45.86ZM13,44c-.52,0-.63.34-.63.76s.11.77.63.77.63-.34.63-.76S13.5,44,13,44Z"/><path class="cls-6" d="M15.27,45.13h-.42v.7h-.36V43.76h.75c.8,0,.87.41.87.69S16.06,45.13,15.27,45.13Zm0-1.08h-.41v.8h.42c.43,0,.48-.22.48-.4S15.69,44,15.25,44Z"/><path class="cls-7" d="M17.32,44v1.79H17V44h-.6v-.29h1.54V44Z"/><path class="cls-8" d="M18.32,45.83V43.76h.36v2.08Z"/><path class="cls-9" d="M21.37,45.83V44.19l-.7,1.65h-.36l-.7-1.65v1.65h-.35V43.76h.53l.6,1.42.1.27a2.77,2.77,0,0,1,.1-.27l.6-1.42h.53v2.08Z"/><path class="cls-10" d="M22.32,45.83V43.76h.36v2.08Z"/><path class="cls-11" d="M23.16,45.83v-.35L24.34,44H23.16v-.29h1.54v.33L23.5,45.54h1.25v.29Z"/><path class="cls-12" d="M26.71,45.83l-.14-.41h-1l-.15.41H25l.8-2.08h.48l.78,2.08ZM26.06,44l-.42,1.18h.84Z"/><path class="cls-13" d="M28,44v1.79h-.35V44H27v-.29h1.54V44Z"/><path class="cls-14" d="M23.26,41.85V39.77h.36v2.08Z"/><path class="cls-15" d="M25.12,41.87c-.8,0-1-.5-1-1.06s.19-1.06,1-1.06,1,.49,1,1.06S25.92,41.87,25.12,41.87Zm0-1.83c-.52,0-.63.34-.63.76s.11.77.63.77.63-.34.63-.76S25.64,40,25.12,40Z"/><path class="cls-16" d="M28.09,41.85,27,40.23v1.62h-.36V39.77h.46l1.07,1.61V39.77h.36v2.08Z"/><path class="cls-17" d="M8.29,41.87c-.78,0-1-.49-1-1.06s.18-1.06,1-1.06.94.38.94.82H8.86A.51.51,0,0,0,8.29,40c-.49,0-.59.34-.59.77s.1.76.59.76a.5.5,0,0,0,.57-.52h.37C9.23,41.51,9,41.87,8.29,41.87Z"/><path class="cls-18" d="M10.64,41.87c-.8,0-1-.5-1-1.06s.19-1.06,1-1.06,1,.49,1,1.06S11.44,41.87,10.64,41.87Zm0-1.83c-.52,0-.63.34-.63.76s.11.77.63.77.63-.34.63-.76S11.16,40,10.64,40Z"/><path class="cls-19" d="M13.52,41.85l-1.09-1.62v1.62h-.36V39.77h.46l1.07,1.61V39.77H14v2.08Z"/><path class="cls-20" d="M20.08,41.85,19.24,41v.81h-.36V39.77h.74c.78,0,.86.4.86.67,0,.51-.41.63-.81.63l.88.78Zm-.44-1.79h-.4v.74h.41c.42,0,.48-.2.48-.37S20.06,40.07,19.64,40.07Z"/><path class="cls-21" d="M8.1,22.25H6.7a.2.2,0,0,1-.2-.19l0-.4-.32-.07L6,21.95a.2.2,0,0,1-.26.1l-1.28-.55a.2.2,0,0,1-.11-.26l.14-.37-.15-.1L4,21a.2.2,0,0,1-.28,0l-1-1a.2.2,0,0,1,0-.28L3,19.47l-.18-.27-.37.13a.2.2,0,0,1-.25-.12l-.52-1.3a.2.2,0,0,1,.1-.26l.36-.16,0-.17-.4,0a.2.2,0,0,1-.19-.2V15.7a.2.2,0,0,1,.19-.2l.4,0c0-.11,0-.21.07-.32L1.85,15a.2.2,0,0,1-.1-.26l.55-1.28a.2.2,0,0,1,.26-.11l.37.14.1-.15L2.76,13a.2.2,0,0,1,0-.28l1-1a.2.2,0,0,1,.28,0l.29.27.27-.18-.13-.37a.2.2,0,0,1,.12-.25l1.3-.52a.2.2,0,0,1,.26.1l.16.36.17,0,0-.4a.2.2,0,0,1,.2-.19H8.1a.2.2,0,0,1,.2.19l0,.4.32.07.17-.36a.2.2,0,0,1,.26-.1l1.28.55a.2.2,0,0,1,.11.26l-.14.37.15.1.29-.27a.2.2,0,0,1,.28,0l1,1A.2.2,0,0,1,12,13l-.27.29.18.27.37-.13a.2.2,0,0,1,.25.12l.52,1.3a.2.2,0,0,1-.1.26l-.36.16,0,.17.4,0a.2.2,0,0,1,.19.2v1.4a.2.2,0,0,1-.19.2l-.4,0q0,.16-.07.32l.36.17a.2.2,0,0,1,.1.26l-.55,1.28a.2.2,0,0,1-.26.11l-.37-.14-.1.15.27.29A.2.2,0,0,1,12,20l-1,1a.2.2,0,0,1-.28,0l-.29-.27-.27.18.13.37a.2.2,0,0,1-.12.25l-1.3.52a.2.2,0,0,1-.26-.1l-.16-.36-.17,0,0,.4A.2.2,0,0,1,8.1,22.25Zm-1.2-.4h1l0-.37a.2.2,0,0,1,.17-.19l.46-.09a.2.2,0,0,1,.23.11l.15.34.94-.37-.12-.35a.2.2,0,0,1,.09-.24,5,5,0,0,0,.51-.34.2.2,0,0,1,.26,0l.27.25.72-.72-.25-.27a.2.2,0,0,1,0-.26c.09-.13.18-.26.27-.39a.2.2,0,0,1,.24-.08l.34.13.4-.93-.33-.16a.2.2,0,0,1-.11-.23,5,5,0,0,0,.12-.6.2.2,0,0,1,.19-.17l.37,0v-1l-.37,0a.2.2,0,0,1-.19-.17c0-.16-.05-.31-.09-.46a.2.2,0,0,1,.11-.23l.34-.15-.37-.94-.35.12a.2.2,0,0,1-.24-.09,5,5,0,0,0-.34-.51.2.2,0,0,1,0-.26l.25-.27-.72-.72-.27.25a.2.2,0,0,1-.26,0L10,12.19a.2.2,0,0,1-.08-.24L10,11.6l-.93-.4-.16.33a.2.2,0,0,1-.23.11,5,5,0,0,0-.6-.12.2.2,0,0,1-.17-.19l0-.37h-1l0,.37a.2.2,0,0,1-.17.19l-.46.09A.2.2,0,0,1,6,11.49l-.15-.34-.94.37.12.35a.2.2,0,0,1-.09.24,5,5,0,0,0-.51.34.2.2,0,0,1-.26,0l-.27-.25-.72.72.25.27a.2.2,0,0,1,0,.26c-.09.13-.18.26-.27.39a.2.2,0,0,1-.24.08l-.34-.13-.4.93.33.16a.2.2,0,0,1,.11.23,4.92,4.92,0,0,0-.12.6.2.2,0,0,1-.19.17l-.37,0v1l.37,0a.2.2,0,0,1,.19.17c0,.16.05.31.09.46a.2.2,0,0,1-.11.23l-.34.15.37.94.35-.12a.2.2,0,0,1,.24.09,5,5,0,0,0,.34.51.2.2,0,0,1,0,.26l-.25.27.72.72.27-.25a.2.2,0,0,1,.26,0l.39.27a.2.2,0,0,1,.08.24l-.13.34.93.4.16-.33a.2.2,0,0,1,.23-.11,4.9,4.9,0,0,0,.6.12.2.2,0,0,1,.17.19Z"/><path class="cls-22" d="M7.2,18.19a.2.2,0,0,1,.2-.2h0a.2.2,0,0,1,.2.2h0a.2.2,0,0,1-.2.2h0A.2.2,0,0,1,7.2,18.19Zm-.8-.06a.2.2,0,0,1-.07-.28h0a.2.2,0,0,1,.28-.07h0a.2.2,0,0,1,.07.28h0a.2.2,0,0,1-.17.1h0Zm1.72-.08a.2.2,0,0,1,.07-.28h0a.2.2,0,0,1,.28.07h0a.2.2,0,0,1-.07.28h0a.2.2,0,0,1-.1,0h0A.2.2,0,0,1,8.12,18.05ZM5.67,17.4a.2.2,0,0,1,.07-.28h0A.2.2,0,0,1,6,17.2H6a.2.2,0,0,1-.07.28h0l-.1,0h0A.2.2,0,0,1,5.67,17.4Zm3.18.07a.2.2,0,0,1-.07-.28h0a.2.2,0,0,1,.28-.07h0a.2.2,0,0,1,.07.28h0a.2.2,0,0,1-.18.1H9ZM5.4,16.4a.2.2,0,0,1,.2-.2h0a.2.2,0,0,1,.2.2h0a.2.2,0,0,1-.2.2h0A.2.2,0,0,1,5.4,16.4ZM9,16.4H9a.2.2,0,0,1,.2-.2h0a.2.2,0,0,1,.2.2h0a.2.2,0,0,1-.2.2h0A.2.2,0,0,1,9,16.4Zm-3.25-.72a.2.2,0,0,1-.07-.28h0a.2.2,0,0,1,.28-.07h0A.2.2,0,0,1,6,15.6H6a.2.2,0,0,1-.17.1h0Zm3-.08a.2.2,0,0,1,.07-.28h0a.2.2,0,0,1,.28.07h0a.2.2,0,0,1-.07.28h0l-.1,0h0A.2.2,0,0,1,8.77,15.6Zm-2.45-.65a.2.2,0,0,1,.07-.28h0a.2.2,0,0,1,.28.07h0A.2.2,0,0,1,6.6,15h0a.2.2,0,0,1-.1,0h0A.2.2,0,0,1,6.32,14.95ZM8.19,15h0a.2.2,0,0,1-.07-.27h0a.2.2,0,0,1,.28-.07h0a.2.2,0,0,1,.07.27h0a.2.2,0,0,1-.18.1h0Zm-1-.41a.2.2,0,0,1,.2-.2h0a.2.2,0,0,1,.2.2h0a.2.2,0,0,1-.2.2h0A.2.2,0,0,1,7.19,14.6Z"/><path class="cls-23" d="M7.4,17.56A1.16,1.16,0,1,1,8.56,16.4,1.16,1.16,0,0,1,7.4,17.56Zm0-1.92a.76.76,0,1,0,.76.76A.76.76,0,0,0,7.4,15.64Z"/><path class="cls-24" d="M7.4,13.88a.81.81,0,1,1,.81-.81A.81.81,0,0,1,7.4,13.88Zm0-1.21a.4.4,0,1,0,.4.4A.4.4,0,0,0,7.4,12.67Z"/><path class="cls-25" d="M7.4,20.53a.81.81,0,1,1,.81-.81A.81.81,0,0,1,7.4,20.53Zm0-1.21a.4.4,0,1,0,.4.4A.4.4,0,0,0,7.4,19.32Z"/><path class="cls-26" d="M10.72,17.2a.81.81,0,1,1,.81-.81A.81.81,0,0,1,10.72,17.2Zm0-1.21a.4.4,0,1,0,.4.4A.4.4,0,0,0,10.72,16Z"/><path class="cls-27" d="M4.07,17.2a.81.81,0,1,1,.81-.81A.81.81,0,0,1,4.07,17.2Zm0-1.21a.4.4,0,1,0,.4.4A.4.4,0,0,0,4.07,16Z"/><path class="cls-28" d="M9.75,14.61a.56.56,0,1,1,.4-.17A.56.56,0,0,1,9.75,14.61Zm0-.73a.16.16,0,0,0-.11.27.16.16,0,0,0,.23,0,.16.16,0,0,0-.11-.27Z"/><path class="cls-29" d="M5,19.31a.56.56,0,1,1,.4-.17A.56.56,0,0,1,5,19.31Zm0-.73a.16.16,0,0,0-.11.27.16.16,0,0,0,.23,0A.16.16,0,0,0,5,18.59Z"/><path class="cls-30" d="M9.75,19.31a.56.56,0,1,1,.4-.17A.56.56,0,0,1,9.75,19.31Zm0-.73a.16.16,0,0,0-.11.27.17.17,0,0,0,.23,0,.16.16,0,0,0-.11-.27Z"/><path class="cls-31" d="M5,14.61a.56.56,0,1,1,.4-.17A.56.56,0,0,1,5,14.61Zm0-.73a.16.16,0,0,0-.11.27.16.16,0,0,0,.23,0A.16.16,0,0,0,5,13.89Z"/><path class="cls-32" d="M6.94,23.78a.2.2,0,0,1-.19-.21h0A.2.2,0,0,1,7,23.38H7a.2.2,0,0,1,.19.21h0a.2.2,0,0,1-.2.19h0Zm.71-.19a.2.2,0,0,1,.19-.21h0a.2.2,0,0,1,.21.19h0a.2.2,0,0,1-.19.21h0A.2.2,0,0,1,7.65,23.59ZM6,23.67H6a.2.2,0,0,1-.16-.24h0a.2.2,0,0,1,.24-.16h0a.2.2,0,0,1,.16.24h0a.2.2,0,0,1-.2.17H6Zm2.54-.16a.2.2,0,0,1,.16-.24h0a.2.2,0,0,1,.24.16h0a.2.2,0,0,1-.16.24h0A.2.2,0,0,1,8.55,23.51Zm-3.44-.07A.2.2,0,0,1,5,23.18H5a.2.2,0,0,1,.25-.13h0a.2.2,0,0,1,.13.25h0a.2.2,0,0,1-.19.14H5.12Zm4.32-.13a.2.2,0,0,1,.13-.25h0a.2.2,0,0,1,.25.13h0a.2.2,0,0,1-.13.25H9.63A.2.2,0,0,1,9.43,23.31ZM4.25,23.1a.2.2,0,0,1-.1-.27h0a.2.2,0,0,1,.27-.1h0a.2.2,0,0,1,.1.27h0a.2.2,0,0,1-.18.12h0Zm6-.1a.2.2,0,0,1,.1-.27h0a.2.2,0,0,1,.27.1h0a.2.2,0,0,1-.1.27h0l-.09,0h0A.2.2,0,0,1,10.28,23Zm-6.85-.35a.2.2,0,0,1-.06-.28h0a.2.2,0,0,1,.28-.06h0a.2.2,0,0,1,.06.28h0a.2.2,0,0,1-.17.09h0A.21.21,0,0,1,3.44,22.65Zm7.65-.07a.2.2,0,0,1,.06-.28h0a.2.2,0,0,1,.28.06h0a.2.2,0,0,1-.06.28h0a.19.19,0,0,1-.11,0h0A.2.2,0,0,1,11.09,22.58Zm-8.4-.48h0a.2.2,0,0,1,0-.28h0a.2.2,0,0,1,.28,0h0a.2.2,0,0,1,0,.28H3a.2.2,0,0,1-.16.07h0A.2.2,0,0,1,2.69,22.1Zm9.14,0a.2.2,0,0,1,0-.28h0a.2.2,0,0,1,.28,0h0a.2.2,0,0,1,0,.28h0a.2.2,0,0,1-.13,0h0A.2.2,0,0,1,11.83,22.07ZM2,21.47a.2.2,0,0,1,0-.29H2a.2.2,0,0,1,.28,0h0a.2.2,0,0,1,0,.28h0a.2.2,0,0,1-.14.06h0A.2.2,0,0,1,2,21.47Zm10.5,0a.2.2,0,0,1,0-.29h0a.2.2,0,0,1,.29,0h0a.2.2,0,0,1,0,.29h0a.2.2,0,0,1-.15.06h0A.2.2,0,0,1,12.51,21.47ZM1.42,20.75h0a.2.2,0,0,1,0-.28h0a.2.2,0,0,1,.28,0h0a.2.2,0,0,1,0,.28h0a.2.2,0,0,1-.12,0h0A.2.2,0,0,1,1.42,20.75Zm11.69,0a.2.2,0,0,1,0-.28h0a.2.2,0,0,1,.28,0h0a.2.2,0,0,1,0,.28h0a.2.2,0,0,1-.16.08h0A.2.2,0,0,1,13.1,20.79ZM.92,20A.2.2,0,0,1,1,19.69H1a.2.2,0,0,1,.27.08h0a.2.2,0,0,1-.08.28h0l-.1,0h0A.2.2,0,0,1,.92,20ZM13.61,20a.2.2,0,0,1-.08-.27h0a.2.2,0,0,1,.27-.08h0a.2.2,0,0,1,.08.27h0a.2.2,0,0,1-.18.11h0ZM.52,19.13h0a.2.2,0,0,1,.11-.26h0A.2.2,0,0,1,.9,19h0a.2.2,0,0,1-.11.26h0l-.07,0h0A.2.2,0,0,1,.52,19.13Zm13.5.11A.2.2,0,0,1,13.9,19h0a.2.2,0,0,1,.26-.11h0a.2.2,0,0,1,.11.26h0a.2.2,0,0,1-.19.13h0Zm-13.78-1A.2.2,0,0,1,.38,18h0a.2.2,0,0,1,.25.15h0a.2.2,0,0,1-.14.25H.43A.2.2,0,0,1,.23,18.25Zm14.09.14a.2.2,0,0,1-.15-.25h0a.2.2,0,0,1,.25-.15h0a.2.2,0,0,1,.15.25h0a.2.2,0,0,1-.2.15h0Zm-14.26-1h0a.2.2,0,0,1,.17-.23h0a.2.2,0,0,1,.23.17h0a.2.2,0,0,1-.18.23h0A.2.2,0,0,1,.06,17.33Zm14.46.17a.2.2,0,0,1-.17-.23h0a.2.2,0,0,1,.22-.18h0a.2.2,0,0,1,.18.23h0a.2.2,0,0,1-.2.18h0ZM0,16.41a.2.2,0,0,1,.2-.2h0a.2.2,0,0,1,.2.2h0a.2.2,0,0,1-.2.2h0A.2.2,0,0,1,0,16.41Zm14.39,0h0a.2.2,0,0,1,.2-.2h0a.2.2,0,0,1,.2.2h0a.2.2,0,0,1-.2.2h0A.2.2,0,0,1,14.39,16.4ZM.23,15.7a.2.2,0,0,1-.18-.23h0a.2.2,0,0,1,.23-.18h0a.2.2,0,0,1,.18.23h0a.2.2,0,0,1-.2.18h0Zm14.1-.2a.2.2,0,0,1,.17-.23h0a.2.2,0,0,1,.23.17h0a.2.2,0,0,1-.17.23h0A.2.2,0,0,1,14.34,15.51Zm-14-.69a.2.2,0,0,1-.15-.25h0a.2.2,0,0,1,.25-.15h0a.2.2,0,0,1,.15.25h0a.2.2,0,0,1-.2.15h0Zm13.8-.17a.2.2,0,0,1,.14-.25h0a.2.2,0,0,1,.25.14h0a.2.2,0,0,1-.15.25h0A.2.2,0,0,1,14.17,14.64ZM.63,13.94a.2.2,0,0,1-.11-.26h0a.2.2,0,0,1,.26-.11h0a.2.2,0,0,1,.11.26h0A.2.2,0,0,1,.7,14H.63Zm13.27-.14a.2.2,0,0,1,.11-.26h0a.2.2,0,0,1,.26.11h0a.2.2,0,0,1-.11.26h-.07A.2.2,0,0,1,13.9,13.81ZM1,13.11a.2.2,0,0,1-.08-.27h0a.2.2,0,0,1,.27-.08h0a.2.2,0,0,1,.08.27h0a.2.2,0,0,1-.18.11h0ZM13.52,13a.2.2,0,0,1,.08-.27h0a.2.2,0,0,1,.27.08h0a.2.2,0,0,1-.08.27h0l-.1,0h0A.2.2,0,0,1,13.52,13ZM1.45,12.34a.2.2,0,0,1,0-.28h0a.2.2,0,0,1,.28,0h0a.2.2,0,0,1,0,.28h0a.2.2,0,0,1-.16.08h0A.2.2,0,0,1,1.45,12.34ZM13,12.28a.2.2,0,0,1,0-.28h0a.2.2,0,0,1,.28,0h0a.2.2,0,0,1,0,.28h0a.2.2,0,0,1-.12,0h0A.2.2,0,0,1,13,12.28ZM2,11.62a.2.2,0,0,1,0-.28H2a.2.2,0,0,1,.29,0h0a.2.2,0,0,1,0,.29h0a.2.2,0,0,1-.15.06h0A.2.2,0,0,1,2,11.62Zm10.48,0a.2.2,0,0,1,0-.29h0a.2.2,0,0,1,.29,0h0a.2.2,0,0,1,0,.29h0a.2.2,0,0,1-.14.06h0A.2.2,0,0,1,12.49,11.6ZM2.65,11a.2.2,0,0,1,0-.28h0a.2.2,0,0,1,.28,0H3a.2.2,0,0,1,0,.28h0a.2.2,0,0,1-.13,0h0A.2.2,0,0,1,2.65,11Zm9.2,0a.2.2,0,0,1,0-.28h0a.2.2,0,0,1,.28,0h0a.2.2,0,0,1,0,.28h0A.2.2,0,0,1,12,11h0A.2.2,0,0,1,11.85,11Zm-8.48-.57a.2.2,0,0,1,.06-.28h0a.2.2,0,0,1,.28.06h0a.2.2,0,0,1-.06.28h0a.2.2,0,0,1-.11,0h0A.2.2,0,0,1,3.36,10.43Zm7.77,0a.2.2,0,0,1-.06-.28h0a.2.2,0,0,1,.28-.06h0a.2.2,0,0,1,.06.28h0a.2.2,0,0,1-.17.09h0A.2.2,0,0,1,11.14,10.48Zm-7-.51a.2.2,0,0,1,.1-.27h0a.2.2,0,0,1,.27.1h0a.2.2,0,0,1-.1.27h0l-.09,0h0A.2.2,0,0,1,4.14,10Zm6.22.09h0a.2.2,0,0,1-.1-.27h0a.2.2,0,0,1,.27-.1h0a.2.2,0,0,1,.1.27h0a.2.2,0,0,1-.18.12h0ZM5,9.62a.2.2,0,0,1,.13-.25h0a.2.2,0,0,1,.25.13h0a.2.2,0,0,1-.13.25H5.16A.2.2,0,0,1,5,9.62Zm4.58.12a.2.2,0,0,1-.13-.25h0a.2.2,0,0,1,.25-.13h0a.2.2,0,0,1,.13.25h0a.2.2,0,0,1-.19.14H9.55ZM5.84,9.37A.2.2,0,0,1,6,9.13H6a.2.2,0,0,1,.24.16h0a.2.2,0,0,1-.16.24H6A.2.2,0,0,1,5.84,9.37Zm2.86.16h0a.2.2,0,0,1-.16-.24h0a.2.2,0,0,1,.24-.16h0a.2.2,0,0,1,.16.24h0a.2.2,0,0,1-.2.16h0Zm-2-.29A.2.2,0,0,1,6.92,9h0a.2.2,0,0,1,.21.19h0a.2.2,0,0,1-.19.21h0A.2.2,0,0,1,6.73,9.23Zm1.09.19a.2.2,0,0,1-.19-.21h0A.2.2,0,0,1,7.85,9h0A.2.2,0,0,1,8,9.23H8a.2.2,0,0,1-.2.19h0Z"/><path class="cls-33" d="M29.86,31.43H7.39a.2.2,0,0,1-.2-.2V24.9a.2.2,0,0,1,.4,0V31H29.66V.4H7.59V8.09a.2.2,0,1,1-.4,0V.2a.2.2,0,0,1,.2-.2H29.86a.2.2,0,0,1,.2.2v31A.2.2,0,0,1,29.86,31.43Z"/><path class="cls-34" d="M29.86,3.26H14.71a.2.2,0,0,1,0-.4H29.86a.2.2,0,1,1,0,.4Z"/><path class="cls-35" d="M9.21,3.26a.2.2,0,0,1-.14-.06.2.2,0,0,1,0-.29.21.21,0,0,1,.29,0,.2.2,0,0,1-.14.35Z"/><path class="cls-36" d="M13.59,3.06a.2.2,0,0,1,.2-.2h0a.2.2,0,0,1,.2.2h0a.2.2,0,0,1-.2.2h0A.2.2,0,0,1,13.59,3.06Zm-.92,0a.2.2,0,0,1,.2-.2h0a.2.2,0,0,1,.2.2h0a.2.2,0,0,1-.2.2h0A.2.2,0,0,1,12.67,3.06Zm-.92,0a.2.2,0,0,1,.2-.2h0a.2.2,0,0,1,.2.2h0a.2.2,0,0,1-.2.2h0A.2.2,0,0,1,11.76,3.06Zm-.92,0a.2.2,0,0,1,.2-.2h0a.2.2,0,0,1,.2.2h0a.2.2,0,0,1-.2.2h0A.2.2,0,0,1,10.84,3.06Zm-.92,0a.2.2,0,0,1,.2-.2h0a.2.2,0,0,1,.2.2h0a.2.2,0,0,1-.2.2h0A.2.2,0,0,1,9.92,3.06Z"/><path class="cls-37" d="M14.71,3.26a.2.2,0,0,1-.14-.06.2.2,0,0,1,0-.29.21.21,0,0,1,.29,0,.2.2,0,0,1,0,.29A.2.2,0,0,1,14.71,3.26Z"/><path class="cls-38" d="M9.21,3.26H7.39a.2.2,0,1,1,0-.4H9.21a.2.2,0,0,1,0,.4Z"/><circle class="cls-39" cx="25.41" cy="1.6" r="0.38"/><circle class="cls-40" cx="27.84" cy="1.6" r="0.38"/><circle class="cls-41" cx="22.98" cy="1.6" r="0.38"/><path class="cls-42" d="M28.13,8A.2.2,0,0,1,28,7.9a.21.21,0,0,1-.06-.14A.2.2,0,0,1,28,7.62a.21.21,0,0,1,.29,0,.2.2,0,0,1,0,.29A.21.21,0,0,1,28.13,8Z"/><path class="cls-43" d="M27.93,6.77a.2.2,0,0,1,.2-.2h0a.2.2,0,0,1,.2.2h0a.2.2,0,0,1-.2.2h0A.2.2,0,0,1,27.93,6.77Zm0-1a.2.2,0,0,1,.2-.2h0a.2.2,0,0,1,.2.2h0a.2.2,0,0,1-.2.2h0A.2.2,0,0,1,27.93,5.79Z"/><path class="cls-44" d="M28.13,5A.2.2,0,0,1,28,4.66a.21.21,0,0,1,.29,0,.2.2,0,0,1,0,.29A.21.21,0,0,1,28.13,5Z"/><path class="cls-45" d="M27.08,4.8a.2.2,0,0,1,.2-.2h0a.2.2,0,0,1,.2.2h0a.2.2,0,0,1-.2.2h0A.2.2,0,0,1,27.08,4.8Zm-.85,0a.2.2,0,0,1,.2-.2h0a.2.2,0,0,1,.2.2h0a.2.2,0,0,1-.2.2h0A.2.2,0,0,1,26.23,4.8Zm-.85,0a.2.2,0,0,1,.2-.2h0a.2.2,0,0,1,.2.2h0a.2.2,0,0,1-.2.2h0A.2.2,0,0,1,25.38,4.8Zm-.85,0a.2.2,0,0,1,.2-.2h0a.2.2,0,0,1,.2.2h0a.2.2,0,0,1-.2.2h0A.2.2,0,0,1,24.53,4.8Zm-.85,0a.2.2,0,0,1,.2-.2h0a.2.2,0,0,1,.2.2h0a.2.2,0,0,1-.2.2h0A.2.2,0,0,1,23.68,4.8Zm-.85,0a.2.2,0,0,1,.2-.2h0a.2.2,0,0,1,.2.2h0A.2.2,0,0,1,23,5h0A.2.2,0,0,1,22.83,4.8Z"/><path class="cls-46" d="M22.18,5a.2.2,0,0,1-.2-.2A.2.2,0,0,1,22,4.66a.21.21,0,0,1,.28,0,.2.2,0,0,1,0,.29A.2.2,0,0,1,22.18,5Z"/><path class="cls-47" d="M28.13,13.32H19.81a.2.2,0,0,1-.2-.2V4.8a.2.2,0,0,1,.2-.2h2.37a.2.2,0,0,1,0,.4H20v7.92h7.92V7.76a.2.2,0,0,1,.4,0v5.36A.2.2,0,0,1,28.13,13.32Z"/><path class="cls-48" d="M24,9.72c-.92,0-1.56-1.16-1.56-2.2a1.58,1.58,0,1,1,3.12,0C25.53,8.56,24.89,9.72,24,9.72Zm0-3.62c-.68,0-1.15.58-1.15,1.41s.56,1.8,1.15,1.8,1.15-.87,1.15-1.8S24.65,6.11,24,6.11Z"/><path class="cls-49" d="M26.89,13.32h0a.2.2,0,0,1-.2-.21c0-.34,0-.66,0-.79,0-1.87-.89-2.43-2.34-2.72a.2.2,0,1,1,.08-.4c1.38.28,2.66.85,2.66,3.12,0,.13,0,.45,0,.8A.2.2,0,0,1,26.89,13.32Z"/><path class="cls-50" d="M21.24,11.25h-.07A.2.2,0,0,1,21,11a2.9,2.9,0,0,1,2.46-1.77.2.2,0,0,1,.08.4c-1.24.25-1.87.69-2.16,1.51A.2.2,0,0,1,21.24,11.25Z"/><path class="cls-51" d="M21.06,13.32a.2.2,0,0,1-.2-.2.2.2,0,0,1,.06-.14.21.21,0,0,1,.29,0,.2.2,0,0,1,.06.14.2.2,0,0,1-.2.2Z"/><path class="cls-52" d="M21,12.28a.2.2,0,0,1-.19-.21h0a.2.2,0,0,1,.21-.19h0a.2.2,0,0,1,.19.21h0a.2.2,0,0,1-.2.19h0Z"/><path class="cls-53" d="M21.24,11.25A.2.2,0,0,1,21,11a.2.2,0,0,1,.06-.14.21.21,0,0,1,.29,0,.2.2,0,0,1,.06.14.2.2,0,0,1-.2.2Z"/><path class="cls-54" d="M13.56,30.07H8.94a.2.2,0,0,1-.2-.2V25.24a.2.2,0,0,1,.2-.2h4.62a.2.2,0,0,1,.2.2v4.62A.2.2,0,0,1,13.56,30.07Zm-4.42-.4h4.22V25.44H9.14Z"/><path class="cls-55" d="M20.91,30.07a.2.2,0,0,1-.2-.2V25.44H16.49v4.42a.2.2,0,1,1-.4,0V25.24a.2.2,0,0,1,.2-.2h4.62a.2.2,0,0,1,.2.2v4.62A.2.2,0,0,1,20.91,30.07Z"/><path class="cls-56" d="M20.91,30.07a.2.2,0,0,1-.14-.06.2.2,0,0,1-.06-.14.2.2,0,0,1,.06-.14.21.21,0,0,1,.28,0,.2.2,0,0,1,.06.14.2.2,0,0,1-.06.14A.2.2,0,0,1,20.91,30.07Z"/><path class="cls-57" d="M19.78,29.87a.2.2,0,0,1,.2-.2h0a.2.2,0,0,1,.2.2h0a.2.2,0,0,1-.2.2h0A.2.2,0,0,1,19.78,29.87Zm-.92,0a.2.2,0,0,1,.2-.2h0a.2.2,0,0,1,.2.2h0a.2.2,0,0,1-.2.2h0A.2.2,0,0,1,18.86,29.87Zm-.92,0a.2.2,0,0,1,.2-.2h0a.2.2,0,0,1,.2.2h0a.2.2,0,0,1-.2.2h0A.2.2,0,0,1,17.93,29.87Zm-.92,0a.2.2,0,0,1,.2-.2h0a.2.2,0,0,1,.2.2h0a.2.2,0,0,1-.2.2h0A.2.2,0,0,1,17,29.87Z"/><path class="cls-58" d="M16.29,30.07a.21.21,0,0,1-.14-.06.2.2,0,0,1-.06-.14.21.21,0,0,1,.06-.14.21.21,0,0,1,.29,0,.21.21,0,0,1,.06.14.2.2,0,0,1-.2.2Z"/><path class="cls-59" d="M28.26,30.07H23.64a.2.2,0,0,1-.2-.2V25.24a.2.2,0,0,1,.2-.2h4.62a.2.2,0,0,1,.2.2v4.62A.2.2,0,0,1,28.26,30.07Zm-4.42-.4h4.22V25.44H23.84Z"/><path class="cls-60" d="M28.26,23H23.64a.2.2,0,0,1-.2-.2V18.16a.2.2,0,0,1,.2-.2h4.62a.2.2,0,0,1,.2.2v4.62A.2.2,0,0,1,28.26,23Zm-4.42-.4h4.22V18.36H23.84Z"/><path class="cls-61" d="M17.07,22.19a.21.21,0,0,1-.14-.06.21.21,0,0,1-.06-.14.2.2,0,0,1,.06-.14.21.21,0,0,1,.29,0,.2.2,0,0,1,.06.14.21.21,0,0,1-.06.14A.2.2,0,0,1,17.07,22.19Z"/><path class="cls-62" d="M16.87,21a.2.2,0,0,1,.2-.2h0a.2.2,0,0,1,.2.2h0a.2.2,0,0,1-.2.2h0A.2.2,0,0,1,16.87,21Zm0-1a.2.2,0,0,1,.2-.2h0a.2.2,0,0,1,.2.2h0a.2.2,0,0,1-.2.2h0A.2.2,0,0,1,16.87,20Z"/><path class="cls-63" d="M17.07,19.14a.2.2,0,0,1-.14-.35.21.21,0,0,1,.29,0,.21.21,0,0,1,.06.14.2.2,0,0,1-.2.2Z"/><path class="cls-64" d="M18.9,18.94a.2.2,0,0,1,.2-.2h0a.2.2,0,0,1,.2.2h0a.2.2,0,0,1-.2.2h0A.2.2,0,0,1,18.9,18.94Zm-1,0a.2.2,0,0,1,.2-.2h0a.2.2,0,0,1,.2.2h0a.2.2,0,0,1-.2.2h0A.2.2,0,0,1,17.89,18.94Z"/><path class="cls-65" d="M20.12,19.14A.2.2,0,0,1,20,18.8a.21.21,0,0,1,.29,0,.2.2,0,0,1,.06.14.2.2,0,0,1-.06.14A.21.21,0,0,1,20.12,19.14Z"/><path class="cls-66" d="M19.92,21a.2.2,0,0,1,.2-.2h0a.2.2,0,0,1,.2.2h0a.2.2,0,0,1-.2.2h0A.2.2,0,0,1,19.92,21Zm0-1a.2.2,0,0,1,.2-.2h0a.2.2,0,0,1,.2.2h0a.2.2,0,0,1-.2.2h0A.2.2,0,0,1,19.92,20Z"/><path class="cls-67" d="M20.12,22.19a.2.2,0,0,1-.14-.06.21.21,0,0,1-.06-.14.2.2,0,0,1,.06-.14.21.21,0,0,1,.29,0,.2.2,0,0,1,.06.14.2.2,0,0,1-.2.2Z"/><path class="cls-68" d="M18.9,22a.2.2,0,0,1,.2-.2h0a.2.2,0,0,1,.2.2h0a.2.2,0,0,1-.2.2h0A.2.2,0,0,1,18.9,22Zm-1,0a.2.2,0,0,1,.2-.2h0a.2.2,0,0,1,.2.2h0a.2.2,0,0,1-.2.2h0A.2.2,0,0,1,17.89,22Z"/><path class="cls-69" d="M20.09,22.19a.2.2,0,0,1-.14-.06l-3-3a.2.2,0,1,1,.29-.29l3,3a.2.2,0,0,1-.14.34Z"/><path class="cls-70" d="M17.09,22.19a.2.2,0,0,1-.14-.34l3-3a.2.2,0,0,1,.29.29l-3,3A.2.2,0,0,1,17.09,22.19Z"/><path class="cls-71" d="M25.93,20.67a.2.2,0,0,1-.2-.2V16H16.08a.2.2,0,1,1,0-.4h9.85a.2.2,0,0,1,.2.2v4.67A.2.2,0,0,1,25.93,20.67Z"/><path class="cls-72" d="M18.58,17.48a.2.2,0,0,1-.2-.2V15.8a.2.2,0,1,1,.4,0v1.48A.2.2,0,0,1,18.58,17.48Z"/><path class="cls-73" d="M25.94,27.81H11.1a.2.2,0,1,1,0-.4H25.94a.2.2,0,1,1,0,.4Z"/><path class="cls-74" d="M15.06,9.77h0a.2.2,0,0,1-.2-.2h0a.2.2,0,0,1,.2-.2h0a.2.2,0,0,1,.2.2h0a.2.2,0,0,1-.2.2h0Zm-.95-.2a.2.2,0,0,1-.1-.27h0a.2.2,0,0,1,.27-.1h0a.2.2,0,0,1,.1.27h0a.2.2,0,0,1-.18.12h0Zm1.63-.1a.2.2,0,0,1,.1-.27h0a.2.2,0,0,1,.27.1h0a.2.2,0,0,1-.1.27h0l-.08,0h0A.2.2,0,0,1,15.74,9.47ZM13.33,9a.2.2,0,0,1,0-.29h0a.2.2,0,0,1,.29,0h0a.2.2,0,0,1,0,.28h0a.2.2,0,0,1-.13.05h0A.21.21,0,0,1,13.33,9ZM16.5,9a.2.2,0,0,1,0-.28h0a.2.2,0,0,1,.29,0h0a.2.2,0,0,1,0,.29h0a.2.2,0,0,1-.15.07h0A.2.2,0,0,1,16.5,9Zm-3.65-.84A.2.2,0,0,1,13,7.92h0a.2.2,0,0,1,.25.13h0a.2.2,0,0,1-.13.25H13A.2.2,0,0,1,12.85,8.17ZM17,8.29A.2.2,0,0,1,16.88,8h0a.2.2,0,0,1,.25-.13h0a.2.2,0,0,1,.13.25h0a.2.2,0,0,1-.19.14H17Zm-4.08-.86a.2.2,0,0,1-.18-.22h0A.2.2,0,0,1,13,7h0a.2.2,0,0,1,.18.22h0a.2.2,0,0,1-.2.18h0Zm4-.19A.2.2,0,0,1,17.14,7h0a.2.2,0,0,1,.22.18h0a.2.2,0,0,1-.18.22h0A.2.2,0,0,1,17,7.25Zm-3.84-.68A.2.2,0,0,1,13,6.29h0a.2.2,0,0,1,.28-.07h0a.2.2,0,0,1,.07.28h0a.2.2,0,0,1-.17.1h0Zm3.59-.08h0a.2.2,0,0,1,.07-.28h0a.2.2,0,0,1,.28.07h0a.2.2,0,0,1-.07.28h0l-.1,0h0A.2.2,0,0,1,16.71,6.49Zm-3.07-.63a.2.2,0,0,1,0-.28h0a.2.2,0,0,1,.28,0h0a.2.2,0,0,1,0,.28h0a.2.2,0,0,1-.12,0h0A.2.2,0,0,1,13.64,5.86Zm2.53,0a.2.2,0,0,1,0-.28h0a.2.2,0,0,1,.28,0h0a.2.2,0,0,1,0,.28h0a.2.2,0,0,1-.16.08h0A.2.2,0,0,1,16.18,5.9Zm-1.76-.48a.2.2,0,0,1,.16-.24h0a.2.2,0,0,1,.24.15h0a.2.2,0,0,1-.15.24h0A.2.2,0,0,1,14.41,5.42Zm1,.15a.2.2,0,0,1-.16-.24h0a.2.2,0,0,1,.24-.16h0a.2.2,0,0,1,.16.24h0a.2.2,0,0,1-.2.16h0Z"/><path class="cls-75" d="M15.06,9.25a1.8,1.8,0,1,1,1.8-1.8A1.8,1.8,0,0,1,15.06,9.25Zm0-3.19a1.39,1.39,0,1,0,1.39,1.39A1.39,1.39,0,0,0,15.06,6.06Z"/><path class="cls-76" d="M15.06,8.46a1,1,0,1,1,1-1A1,1,0,0,1,15.06,8.46Zm0-1.62a.61.61,0,1,0,.61.61A.61.61,0,0,0,15.06,6.85Z"/><path class="cls-77" d="M7.61,11a.2.2,0,0,1-.12-.37l4.78-3.33a.2.2,0,1,1,.23.33L7.73,10.92A.2.2,0,0,1,7.61,11Z"/><path class="cls-78" d="M14.4,12.88l-.08,0a.2.2,0,0,1-.1-.27L16.1,8.41a.2.2,0,0,1,.37.17l-1.88,4.18A.2.2,0,0,1,14.4,12.88Z"/><path class="cls-79" d="M26,28.93a1.33,1.33,0,0,1,0-2.67.2.2,0,0,1,0,.4.93.93,0,0,0,0,1.86.2.2,0,1,1,0,.4Z"/><path class="cls-80" d="M26,26.67a.2.2,0,0,1-.14-.34.21.21,0,0,1,.29,0,.2.2,0,0,1-.14.34Z"/><path class="cls-81" d="M26.62,28.54a.2.2,0,0,1,0-.28h0a.2.2,0,0,1,.29,0h0a.2.2,0,0,1,0,.29h0a.2.2,0,0,1-.14.06h0A.2.2,0,0,1,26.62,28.54Zm.27-.94a.2.2,0,0,1,.2-.2h0a.2.2,0,0,1,.2.2h0a.2.2,0,0,1-.2.2h0A.2.2,0,0,1,26.89,27.6Zm-.27-.66h0a.2.2,0,0,1,0-.29h0a.2.2,0,0,1,.29,0h0a.2.2,0,0,1,0,.28h0a.2.2,0,0,1-.14.06h0A.2.2,0,0,1,26.62,26.94Z"/><path class="cls-82" d="M26,28.93a.2.2,0,0,1-.14-.34.21.21,0,0,1,.29,0,.2.2,0,0,1,0,.29A.21.21,0,0,1,26,28.93Z"/><path class="cls-83" d="M22.65,41.24c0,.3-.19.63-.84.63s-.93-.3-.94-.77h.36c0,.26.15.46.57.46s.5-.14.5-.31c0-.49-1.35-.15-1.37-.87,0-.37.23-.64.83-.64s.85.29.86.73h-.35c0-.29-.16-.43-.52-.43s-.46.11-.46.3c0,.45,1.36.12,1.36.89"/><path class="cls-84" d="M3.65,45.83,2.82,45v.81H2.46V43.76H3.2c.78,0,.86.4.86.67,0,.51-.41.63-.81.63l.88.78ZM3.22,44h-.4v.74h.41c.42,0,.48-.2.48-.37S3.64,44,3.22,44Z"/><polyline class="cls-85" points="7.99 43.76 7.99 44.05 7.39 44.05 7.39 45.83 7.04 45.83 7.04 44.05 6.45 44.05 6.45 43.76 7.99 43.76"/><path class="cls-86" d="M29.25,45.83V43.76h.36v2.08Z"/><path class="cls-87" d="M31.11,45.86c-.8,0-1-.5-1-1.06s.19-1.06,1-1.06,1,.49,1,1.06S31.92,45.86,31.11,45.86Zm0-1.83c-.52,0-.63.34-.63.76s.11.77.63.77.63-.34.63-.76S31.64,44,31.11,44Z"/><path class="cls-88" d="M34.08,45.83,33,44.21v1.62h-.36V43.76h.46l1.07,1.61V43.76h.36v2.08Z"/></g></g></svg>