<svg xmlns="http://www.w3.org/2000/svg" xmlns:xlink="http://www.w3.org/1999/xlink" viewBox="0 0 35.33 35.1"><defs><style>.cls-1{fill:url(#linear-gradient);}.cls-2{fill:url(#linear-gradient-2);}.cls-3{fill:url(#linear-gradient-3);}.cls-4{fill:url(#linear-gradient-4);}.cls-5{fill:url(#linear-gradient-5);}.cls-6{fill:url(#linear-gradient-6);}.cls-7{fill:url(#linear-gradient-7);}.cls-8{fill:url(#linear-gradient-8);}.cls-9{fill:url(#linear-gradient-9);}.cls-10{fill:url(#linear-gradient-10);}.cls-11{fill:url(#linear-gradient-11);}.cls-12{fill:url(#linear-gradient-12);}.cls-13{fill:url(#linear-gradient-13);}.cls-14{fill:url(#linear-gradient-14);}.cls-15{fill:url(#linear-gradient-15);}.cls-16{fill:url(#linear-gradient-16);}.cls-17{fill:url(#linear-gradient-17);}.cls-18{fill:url(#linear-gradient-18);}.cls-19{fill:url(#linear-gradient-19);}.cls-20{fill:url(#linear-gradient-20);}.cls-21{fill:url(#linear-gradient-21);}.cls-22{fill:url(#linear-gradient-22);}.cls-23{fill:url(#linear-gradient-23);}.cls-24{fill:url(#linear-gradient-24);}.cls-25{fill:url(#linear-gradient-25);}.cls-26{fill:url(#linear-gradient-26);}.cls-27{fill:url(#linear-gradient-27);}.cls-28{fill:url(#linear-gradient-28);}.cls-29{fill:url(#linear-gradient-29);}.cls-30{fill:url(#linear-gradient-30);}.cls-31{fill:url(#linear-gradient-31);}.cls-32{fill:url(#linear-gradient-32);}.cls-33{fill:url(#linear-gradient-33);}.cls-34{fill:url(#linear-gradient-34);}.cls-35{fill:url(#linear-gradient-35);}.cls-36{fill:url(#linear-gradient-36);}.cls-37{fill:url(#linear-gradient-37);}.cls-38{fill:url(#linear-gradient-38);}.cls-39{fill:url(#linear-gradient-39);}.cls-40{fill:url(#linear-gradient-40);}.cls-41{fill:url(#linear-gradient-41);}.cls-42{fill:url(#linear-gradient-42);}.cls-43{fill:url(#linear-gradient-43);}.cls-44{fill:url(#linear-gradient-44);}.cls-45{fill:url(#linear-gradient-45);}.cls-46{fill:url(#linear-gradient-46);}.cls-47{fill:url(#linear-gradient-47);}.cls-48{fill:url(#linear-gradient-48);}.cls-49{fill:url(#linear-gradient-49);}.cls-50{fill:url(#linear-gradient-50);}.cls-51{fill:url(#linear-gradient-51);}.cls-52{fill:url(#linear-gradient-52);}.cls-53{fill:url(#linear-gradient-53);}.cls-54{fill:url(#linear-gradient-54);}.cls-55{fill:url(#linear-gradient-55);}.cls-56{fill:url(#linear-gradient-56);}.cls-57{fill:url(#linear-gradient-57);}.cls-58{fill:url(#linear-gradient-58);}.cls-59{fill:url(#linear-gradient-59);}.cls-60{fill:url(#linear-gradient-60);}.cls-61{fill:url(#linear-gradient-61);}.cls-62{fill:url(#linear-gradient-62);}.cls-63{fill:url(#linear-gradient-63);}.cls-64{fill:url(#linear-gradient-64);}.cls-65{fill:url(#linear-gradient-65);}</style><linearGradient id="linear-gradient" x1="838.46" y1="0.7" x2="811.46" y2="192.7" gradientTransform="translate(-815.92 -49.51)" gradientUnits="userSpaceOnUse"><stop offset="0" stop-color="#29abe2"/><stop offset="1" stop-color="#4f00bc"/></linearGradient><linearGradient id="linear-gradient-2" x1="849.45" y1="2.25" x2="822.45" y2="194.25" xlink:href="#linear-gradient"/><linearGradient id="linear-gradient-3" x1="848.88" y1="2.17" x2="821.88" y2="194.17" xlink:href="#linear-gradient"/><linearGradient id="linear-gradient-4" x1="849.07" y1="2.19" x2="822.07" y2="194.19" xlink:href="#linear-gradient"/><linearGradient id="linear-gradient-5" x1="849.27" y1="2.22" x2="822.27" y2="194.22" xlink:href="#linear-gradient"/><linearGradient id="linear-gradient-6" x1="841.61" y1="1.14" x2="814.61" y2="193.14" xlink:href="#linear-gradient"/><linearGradient id="linear-gradient-7" x1="840.65" y1="1.01" x2="813.65" y2="193.01" xlink:href="#linear-gradient"/><linearGradient id="linear-gradient-8" x1="838.55" y1="0.71" x2="811.55" y2="192.71" xlink:href="#linear-gradient"/><linearGradient id="linear-gradient-9" x1="835.04" y1="0.22" x2="808.04" y2="192.22" xlink:href="#linear-gradient"/><linearGradient id="linear-gradient-10" x1="838.31" y1="0.68" x2="811.31" y2="192.68" xlink:href="#linear-gradient"/><linearGradient id="linear-gradient-11" x1="841.58" y1="1.14" x2="814.58" y2="193.14" xlink:href="#linear-gradient"/><linearGradient id="linear-gradient-12" x1="842.01" y1="1.2" x2="815.01" y2="193.2" xlink:href="#linear-gradient"/><linearGradient id="linear-gradient-13" x1="833.98" y1="0.07" x2="806.98" y2="192.07" xlink:href="#linear-gradient"/><linearGradient id="linear-gradient-14" x1="833.28" y1="-0.03" x2="806.28" y2="191.97" xlink:href="#linear-gradient"/><linearGradient id="linear-gradient-15" x1="829.92" y1="-0.5" x2="802.92" y2="191.5" xlink:href="#linear-gradient"/><linearGradient id="linear-gradient-16" x1="838.65" y1="0.73" x2="811.65" y2="192.73" xlink:href="#linear-gradient"/><linearGradient id="linear-gradient-17" x1="842.42" y1="1.26" x2="815.42" y2="193.26" xlink:href="#linear-gradient"/><linearGradient id="linear-gradient-18" x1="842.09" y1="1.21" x2="815.09" y2="193.21" xlink:href="#linear-gradient"/><linearGradient id="linear-gradient-19" x1="841.75" y1="1.16" x2="814.75" y2="193.16" xlink:href="#linear-gradient"/><linearGradient id="linear-gradient-20" x1="846.37" y1="1.81" x2="819.37" y2="193.81" xlink:href="#linear-gradient"/><linearGradient id="linear-gradient-21" x1="847.53" y1="1.98" x2="820.53" y2="193.98" xlink:href="#linear-gradient"/><linearGradient id="linear-gradient-22" x1="846.55" y1="1.84" x2="819.55" y2="193.84" xlink:href="#linear-gradient"/><linearGradient id="linear-gradient-23" x1="856.09" y1="3.18" x2="829.09" y2="195.18" xlink:href="#linear-gradient"/><linearGradient id="linear-gradient-24" x1="855.85" y1="3.15" x2="828.85" y2="195.15" xlink:href="#linear-gradient"/><linearGradient id="linear-gradient-25" x1="857.68" y1="3.4" x2="830.68" y2="195.4" xlink:href="#linear-gradient"/><linearGradient id="linear-gradient-26" x1="857.4" y1="3.36" x2="830.4" y2="195.36" xlink:href="#linear-gradient"/><linearGradient id="linear-gradient-27" x1="854.77" y1="3" x2="827.77" y2="195" xlink:href="#linear-gradient"/><linearGradient id="linear-gradient-28" x1="852.02" y1="2.61" x2="825.02" y2="194.61" xlink:href="#linear-gradient"/><linearGradient id="linear-gradient-29" x1="855.81" y1="3.14" x2="828.81" y2="195.14" xlink:href="#linear-gradient"/><linearGradient id="linear-gradient-30" x1="856.14" y1="3.19" x2="829.14" y2="195.19" xlink:href="#linear-gradient"/><linearGradient id="linear-gradient-31" x1="856.46" y1="3.23" x2="829.46" y2="195.23" xlink:href="#linear-gradient"/><linearGradient id="linear-gradient-32" x1="851.72" y1="2.57" x2="824.72" y2="194.57" xlink:href="#linear-gradient"/><linearGradient id="linear-gradient-33" x1="829.87" y1="-0.51" x2="802.87" y2="191.49" xlink:href="#linear-gradient"/><linearGradient id="linear-gradient-34" x1="827.51" y1="-0.84" x2="800.51" y2="191.16" xlink:href="#linear-gradient"/><linearGradient id="linear-gradient-35" x1="829.58" y1="-0.55" x2="802.58" y2="191.45" xlink:href="#linear-gradient"/><linearGradient id="linear-gradient-36" x1="831.65" y1="-0.26" x2="804.65" y2="191.74" xlink:href="#linear-gradient"/><linearGradient id="linear-gradient-37" x1="830.41" y1="-0.43" x2="803.41" y2="191.57" xlink:href="#linear-gradient"/><linearGradient id="linear-gradient-38" x1="833.6" y1="0.02" x2="806.6" y2="192.02" xlink:href="#linear-gradient"/><linearGradient id="linear-gradient-39" x1="844.71" y1="1.58" x2="817.71" y2="193.58" xlink:href="#linear-gradient"/><linearGradient id="linear-gradient-40" x1="837.75" y1="0.6" x2="810.75" y2="192.6" xlink:href="#linear-gradient"/><linearGradient id="linear-gradient-41" x1="836.16" y1="0.38" x2="809.16" y2="192.38" xlink:href="#linear-gradient"/><linearGradient id="linear-gradient-42" x1="834.58" y1="0.16" x2="807.58" y2="192.16" xlink:href="#linear-gradient"/><linearGradient id="linear-gradient-43" x1="834.36" y1="0.12" x2="807.36" y2="192.12" xlink:href="#linear-gradient"/><linearGradient id="linear-gradient-44" x1="834.14" y1="0.09" x2="807.14" y2="192.09" xlink:href="#linear-gradient"/><linearGradient id="linear-gradient-45" x1="835.72" y1="0.32" x2="808.72" y2="192.32" xlink:href="#linear-gradient"/><linearGradient id="linear-gradient-46" x1="837.3" y1="0.54" x2="810.3" y2="192.54" xlink:href="#linear-gradient"/><linearGradient id="linear-gradient-47" x1="837.53" y1="0.57" x2="810.53" y2="192.57" xlink:href="#linear-gradient"/><linearGradient id="linear-gradient-48" x1="840.72" y1="1.02" x2="813.72" y2="193.02" xlink:href="#linear-gradient"/><linearGradient id="linear-gradient-49" x1="852.27" y1="2.64" x2="825.27" y2="194.64" xlink:href="#linear-gradient"/><linearGradient id="linear-gradient-50" x1="856.32" y1="3.21" x2="829.32" y2="195.21" xlink:href="#linear-gradient"/><linearGradient id="linear-gradient-51" x1="852.29" y1="2.65" x2="825.29" y2="194.65" xlink:href="#linear-gradient"/><linearGradient id="linear-gradient-52" x1="853.79" y1="2.86" x2="826.79" y2="194.86" xlink:href="#linear-gradient"/><linearGradient id="linear-gradient-53" x1="853.9" y1="2.87" x2="826.9" y2="194.87" xlink:href="#linear-gradient"/><linearGradient id="linear-gradient-54" x1="854.01" y1="2.89" x2="827.01" y2="194.89" xlink:href="#linear-gradient"/><linearGradient id="linear-gradient-55" x1="853.65" y1="2.84" x2="826.65" y2="194.84" xlink:href="#linear-gradient"/><linearGradient id="linear-gradient-56" x1="853.75" y1="2.85" x2="826.75" y2="194.85" xlink:href="#linear-gradient"/><linearGradient id="linear-gradient-57" x1="856.84" y1="3.29" x2="829.84" y2="195.29" xlink:href="#linear-gradient"/><linearGradient id="linear-gradient-58" x1="856.91" y1="3.3" x2="829.91" y2="195.3" xlink:href="#linear-gradient"/><linearGradient id="linear-gradient-59" x1="856.99" y1="3.31" x2="829.99" y2="195.31" xlink:href="#linear-gradient"/><linearGradient id="linear-gradient-60" x1="856.67" y1="3.26" x2="829.67" y2="195.26" xlink:href="#linear-gradient"/><linearGradient id="linear-gradient-61" x1="856.73" y1="3.27" x2="829.73" y2="195.27" xlink:href="#linear-gradient"/><linearGradient id="linear-gradient-62" x1="838.38" y1="0.69" x2="811.38" y2="192.69" xlink:href="#linear-gradient"/><linearGradient id="linear-gradient-63" x1="837.02" y1="0.5" x2="810.02" y2="192.5" xlink:href="#linear-gradient"/><linearGradient id="linear-gradient-64" x1="836.79" y1="0.47" x2="809.79" y2="192.47" xlink:href="#linear-gradient"/><linearGradient id="linear-gradient-65" x1="836.57" y1="0.44" x2="809.57" y2="192.44" xlink:href="#linear-gradient"/></defs><title>Asset 18</title><g id="Layer_2" data-name="Layer 2"><g id="_ÎÓÈ_1" data-name="—ÎÓÈ_1"><path class="cls-1" d="M5.94,12.89a.2.2,0,0,1-.2-.2V2.37a.2.2,0,0,1,.2-.2H24a.2.2,0,0,1,.2.2V7.91a.2.2,0,0,1-.4,0V2.57H6.14V12.68A.2.2,0,0,1,5.94,12.89Z"/><path class="cls-2" d="M24,22.2a.2.2,0,0,1-.2-.2V19.37a.2.2,0,1,1,.4,0V22A.2.2,0,0,1,24,22.2Z"/><path class="cls-3" d="M24,16.74a.21.21,0,0,1-.14-.06.2.2,0,0,1,0-.29.21.21,0,0,1,.29,0,.2.2,0,0,1-.14.34Z"/><path class="cls-4" d="M23.77,18.43a.2.2,0,0,1,.2-.2h0a.2.2,0,0,1,.2.2h0a.2.2,0,0,1-.2.2h0A.2.2,0,0,1,23.77,18.43Zm0-.94a.2.2,0,0,1,.2-.2h0a.2.2,0,0,1,.2.2h0a.2.2,0,0,1-.2.2h0A.2.2,0,0,1,23.77,17.49Z"/><path class="cls-5" d="M24,19.58a.21.21,0,0,1-.14-.06.2.2,0,0,1,0-.29.21.21,0,0,1,.29,0,.2.2,0,0,1,0,.29A.21.21,0,0,1,24,19.58Z"/><path class="cls-6" d="M24,32.85h-18a.2.2,0,0,1-.2-.2V23.23a.2.2,0,1,1,.4,0v9.21H23.77V30.34a.2.2,0,1,1,.4,0v2.31A.2.2,0,0,1,24,32.85Z"/><path class="cls-7" d="M21.66,29.42H5.94a.2.2,0,1,1,0-.4H21.66a.2.2,0,1,1,0,.4Z"/><path class="cls-8" d="M24,6h-18a.2.2,0,1,1,0-.4H24A.2.2,0,1,1,24,6Z"/><path class="cls-9" d="M11.63,4.26a.2.2,0,0,1-.14-.06.21.21,0,0,1-.06-.14.2.2,0,0,1,.06-.14.21.21,0,0,1,.29,0,.2.2,0,0,1,.06.14.2.2,0,0,1-.2.2Z"/><path class="cls-10" d="M17.13,4.05a.2.2,0,0,1,.2-.2h0a.2.2,0,0,1,.2.2h0a.2.2,0,0,1-.2.2h0A.2.2,0,0,1,17.13,4.05Zm-1,0a.2.2,0,0,1,.2-.2h0a.2.2,0,0,1,.2.2h0a.2.2,0,0,1-.2.2h0A.2.2,0,0,1,16.18,4.05Zm-1,0a.2.2,0,0,1,.2-.2h0a.2.2,0,0,1,.2.2h0a.2.2,0,0,1-.2.2h0A.2.2,0,0,1,15.23,4.05Zm-1,0a.2.2,0,0,1,.2-.2h0a.2.2,0,0,1,.2.2h0a.2.2,0,0,1-.2.2h0A.2.2,0,0,1,14.28,4.05Zm-1,0a.2.2,0,0,1,.2-.2h0a.2.2,0,0,1,.2.2h0a.2.2,0,0,1-.2.2h0A.2.2,0,0,1,13.33,4.05Zm-1,0a.2.2,0,0,1,.2-.2h0a.2.2,0,0,1,.2.2h0a.2.2,0,0,1-.2.2h0A.2.2,0,0,1,12.38,4.05Z"/><path class="cls-11" d="M18.29,4.26a.2.2,0,0,1-.14-.06.21.21,0,0,1-.06-.14.2.2,0,0,1,.06-.14.21.21,0,0,1,.29,0,.2.2,0,0,1,.06.14.2.2,0,0,1-.2.2Z"/><path class="cls-12" d="M17.83,31.64H12.08a.2.2,0,0,1-.2-.2V30.38a.2.2,0,0,1,.2-.2h5.75a.2.2,0,0,1,.2.2v1.06A.2.2,0,0,1,17.83,31.64Zm-5.55-.4h5.35v-.66H12.28Z"/><path class="cls-13" d="M16,23.43H1.2a.2.2,0,0,1-.2-.2V12.68a.2.2,0,0,1,.2-.2H16a.2.2,0,0,1,.2.2V23.23A.2.2,0,0,1,16,23.43ZM1.4,23H15.77V12.89H1.4Z"/><path class="cls-14" d="M8.59,18.38a.2.2,0,0,1-.12,0L1.09,13.07a.2.2,0,0,1,.23-.33l7.27,5.19,7.27-5.19a.2.2,0,0,1,.23.33L8.7,18.35A.2.2,0,0,1,8.59,18.38Z"/><path class="cls-15" d="M1.2,23.43a.2.2,0,0,1-.15-.34L6.92,17a.2.2,0,0,1,.29.28L1.35,23.37A.2.2,0,0,1,1.2,23.43Z"/><path class="cls-16" d="M16,23.43a.2.2,0,0,1-.15-.06L10,17.23a.2.2,0,1,1,.29-.28l5.86,6.14a.2.2,0,0,1-.15.34Z"/><path class="cls-17" d="M17.71,14.48a.21.21,0,0,1-.14-.06.2.2,0,0,1,0-.29.21.21,0,0,1,.29,0,.2.2,0,0,1-.14.35Z"/><path class="cls-18" d="M17.5,13.32a.2.2,0,0,1,.2-.2h0a.2.2,0,0,1,.2.2h0a.2.2,0,0,1-.2.2h0A.2.2,0,0,1,17.5,13.32Zm0-1a.2.2,0,0,1,.2-.2h0a.2.2,0,0,1,.2.2h0a.2.2,0,0,1-.2.2h0A.2.2,0,0,1,17.5,12.36Zm0-1a.2.2,0,0,1,.2-.2h0a.2.2,0,0,1,.2.2h0a.2.2,0,0,1-.2.2h0A.2.2,0,0,1,17.5,11.4Zm0-1a.2.2,0,0,1,.2-.2h0a.2.2,0,0,1,.2.2h0a.2.2,0,0,1-.2.2h0A.2.2,0,0,1,17.5,10.44Z"/><path class="cls-19" d="M17.71,9.69a.2.2,0,0,1-.14-.35.21.21,0,0,1,.29,0,.2.2,0,0,1-.14.35Z"/><path class="cls-20" d="M26.34,16.74H17.71a.2.2,0,0,1-.2-.2V14.28a.2.2,0,1,1,.4,0v2.06h8.23V8.11H17.91V9.48a.2.2,0,1,1-.4,0V7.91a.2.2,0,0,1,.2-.2h8.63a.2.2,0,0,1,.2.2v8.63A.2.2,0,0,1,26.34,16.74Z"/><path class="cls-21" d="M22.08,15.57a.2.2,0,0,1-.2-.2v-4.2a1.49,1.49,0,1,1,3,0,.2.2,0,0,1-.4,0,1.09,1.09,0,1,0-2.18,0v4.2A.2.2,0,0,1,22.08,15.57Z"/><path class="cls-22" d="M23.25,12.81H21.07a.2.2,0,1,1,0-.4h2.19a.2.2,0,1,1,0,.4Z"/><path class="cls-23" d="M34.32,20.62H28.13a.2.2,0,0,1-.2-.2V14.22a.2.2,0,0,1,.2-.2h6.19a.2.2,0,0,1,.2.2v6.19A.2.2,0,0,1,34.32,20.62Zm-6-.4h5.79V14.43H28.33Z"/><path class="cls-24" d="M31.83,19.34a.2.2,0,0,1-.2-.2V18a.77.77,0,0,0-.76-.76h-.11A.77.77,0,0,0,30,18v1.1a.2.2,0,1,1-.4,0V18a1.17,1.17,0,0,1,1.17-1.17h.11A1.17,1.17,0,0,1,32,18v1.1A.2.2,0,0,1,31.83,19.34Z"/><path class="cls-25" d="M32.74,19.34a.2.2,0,0,1-.2-.2V17a.2.2,0,1,1,.4,0v2.17A.2.2,0,0,1,32.74,19.34Z"/><path class="cls-26" d="M32.74,15.84a.15.15,0,1,1-.15.15.15.15,0,0,1,.15-.15m0-.4a.56.56,0,1,0,.56.56.56.56,0,0,0-.56-.56Z"/><path class="cls-27" d="M29.78,19.34a.2.2,0,0,1-.2-.2V17a.2.2,0,1,1,.4,0v2.17A.2.2,0,0,1,29.78,19.34Z"/><path class="cls-28" d="M30,30.54H21.66a.2.2,0,0,1-.2-.2V22a.2.2,0,0,1,.2-.2H30a.2.2,0,0,1,.2.2v2a.2.2,0,1,1-.4,0V22.2H21.87v7.93H29.8V28.71a.2.2,0,1,1,.4,0v1.63A.2.2,0,0,1,30,30.54Z"/><path class="cls-29" d="M30,24.17a.2.2,0,0,1-.14-.35.21.21,0,0,1,.29,0,.2.2,0,0,1-.14.35Z"/><path class="cls-30" d="M29.8,27.76a.2.2,0,0,1,.2-.2h0a.2.2,0,0,1,.2.2h0a.2.2,0,0,1-.2.2h0A.2.2,0,0,1,29.8,27.76Zm0-.95a.2.2,0,0,1,.2-.2h0a.2.2,0,0,1,.2.2h0a.2.2,0,0,1-.2.2h0A.2.2,0,0,1,29.8,26.81Zm0-.95a.2.2,0,0,1,.2-.2h0a.2.2,0,0,1,.2.2h0a.2.2,0,0,1-.2.2h0A.2.2,0,0,1,29.8,25.86Zm0-.95a.2.2,0,0,1,.2-.2h0a.2.2,0,0,1,.2.2h0a.2.2,0,0,1-.2.2h0A.2.2,0,0,1,29.8,24.92Z"/><path class="cls-31" d="M30,28.91a.2.2,0,0,1-.14-.35.21.21,0,0,1,.29,0,.2.2,0,0,1-.14.35Z"/><path class="cls-32" d="M26.68,28.56a.2.2,0,0,1-.19-.13l-.66-1.63-.66,1.63a.2.2,0,0,1-.37,0L23,24.06a.2.2,0,1,1,.37-.15L25,27.82l.66-1.63a.2.2,0,0,1,.37,0l.66,1.63,1.58-3.9a.2.2,0,1,1,.37.15l-1.77,4.37A.2.2,0,0,1,26.68,28.56Z"/><path class="cls-33" d="M4.42,35.1H.2a.2.2,0,0,1-.2-.2V30.68a.2.2,0,0,1,.4,0v4H4.22v-4a.2.2,0,0,1,.4,0V34.9A.2.2,0,0,1,4.42,35.1Z"/><path class="cls-34" d="M.2,30.88a.2.2,0,0,1-.14-.06A.2.2,0,0,1,0,30.68a.2.2,0,0,1,.06-.14.21.21,0,0,1,.29,0,.21.21,0,0,1,.06.14.2.2,0,0,1-.06.14A.21.21,0,0,1,.2,30.88Z"/><path class="cls-35" d="M3.38,30.68a.2.2,0,0,1,.2-.2h0a.2.2,0,0,1,.2.2h0a.2.2,0,0,1-.2.2h0A.2.2,0,0,1,3.38,30.68Zm-.84,0a.2.2,0,0,1,.2-.2h0a.2.2,0,0,1,.2.2h0a.2.2,0,0,1-.2.2h0A.2.2,0,0,1,2.53,30.68Zm-.84,0a.2.2,0,0,1,.2-.2h0a.2.2,0,0,1,.2.2h0a.2.2,0,0,1-.2.2h0A.2.2,0,0,1,1.69,30.68Zm-.84,0a.2.2,0,0,1,.2-.2H1a.2.2,0,0,1,.2.2h0a.2.2,0,0,1-.2.2H1A.2.2,0,0,1,.84,30.68Z"/><path class="cls-36" d="M4.42,30.88a.21.21,0,0,1-.14-.06.2.2,0,0,1-.06-.14.21.21,0,0,1,.06-.14.21.21,0,0,1,.29,0,.21.21,0,0,1,.06.14.2.2,0,0,1-.06.14A.2.2,0,0,1,4.42,30.88Z"/><path class="cls-37" d="M2.42,35.1a.2.2,0,0,1-.2-.2V33.45h-.4a.2.2,0,1,1,0-.4h.4v-1a.2.2,0,0,1,.2-.2H3.77a.2.2,0,0,1,.2.2v1.16a.2.2,0,0,1-.2.2H2.62V34.9A.2.2,0,0,1,2.42,35.1ZM2.62,33h.95v-.75H2.62Z"/><path class="cls-38" d="M11,11H7.81a.2.2,0,0,1-.2-.2V7.62a.2.2,0,0,1,.2-.2H11a.2.2,0,0,1,.2.2v3.23A.2.2,0,0,1,11,11Zm-3-.4h2.83V7.82H8Z"/><path class="cls-39" d="M20.94,21.27H17.71a.2.2,0,0,1-.2-.2V17.84a.2.2,0,0,1,.2-.2h3.23a.2.2,0,0,1,.2.2v3.23A.2.2,0,0,1,20.94,21.27Zm-3-.4h2.83V18H17.91Z"/><path class="cls-40" d="M11,28a.2.2,0,0,1-.2-.2.21.21,0,0,1,.06-.14.2.2,0,0,1,.35.14.2.2,0,0,1-.06.14A.2.2,0,0,1,11,28Z"/><path class="cls-41" d="M10,27.83a.2.2,0,0,1,.2-.2h0a.2.2,0,0,1,.2.2h0a.2.2,0,0,1-.2.2h0A.2.2,0,0,1,10,27.83Zm-.81,0a.2.2,0,0,1,.2-.2h0a.2.2,0,0,1,.2.2h0a.2.2,0,0,1-.2.2h0A.2.2,0,0,1,9.22,27.83Zm-.81,0a.2.2,0,0,1,.2-.2h0a.2.2,0,0,1,.2.2h0a.2.2,0,0,1-.2.2h0A.2.2,0,0,1,8.42,27.83Z"/><path class="cls-42" d="M7.81,28a.2.2,0,0,1-.2-.2.21.21,0,0,1,.06-.14.21.21,0,0,1,.29,0,.21.21,0,0,1,.06.14.2.2,0,0,1-.2.2Z"/><path class="cls-43" d="M7.61,27a.2.2,0,0,1,.2-.2h0A.2.2,0,0,1,8,27H8a.2.2,0,0,1-.2.2h0A.2.2,0,0,1,7.61,27Zm0-.81a.2.2,0,0,1,.2-.2h0a.2.2,0,0,1,.2.2H8a.2.2,0,0,1-.2.2h0A.2.2,0,0,1,7.61,26.22Zm0-.81a.2.2,0,0,1,.2-.2h0a.2.2,0,0,1,.2.2H8a.2.2,0,0,1-.2.2h0A.2.2,0,0,1,7.61,25.41Z"/><path class="cls-44" d="M7.81,24.8a.2.2,0,0,1-.14-.34.21.21,0,0,1,.29,0,.2.2,0,0,1,0,.28A.2.2,0,0,1,7.81,24.8Z"/><path class="cls-45" d="M10,24.6a.2.2,0,0,1,.2-.2h0a.2.2,0,0,1,.2.2h0a.2.2,0,0,1-.2.2h0A.2.2,0,0,1,10,24.6Zm-.81,0a.2.2,0,0,1,.2-.2h0a.2.2,0,0,1,.2.2h0a.2.2,0,0,1-.2.2h0A.2.2,0,0,1,9.22,24.6Zm-.81,0a.2.2,0,0,1,.2-.2h0a.2.2,0,0,1,.2.2h0a.2.2,0,0,1-.2.2h0A.2.2,0,0,1,8.42,24.6Z"/><path class="cls-46" d="M11,24.8a.2.2,0,0,1-.2-.2.21.21,0,0,1,.06-.14.21.21,0,0,1,.29,0,.2.2,0,0,1,0,.28A.2.2,0,0,1,11,24.8Z"/><path class="cls-47" d="M10.84,27a.2.2,0,0,1,.2-.2h0a.2.2,0,0,1,.2.2h0a.2.2,0,0,1-.2.2h0A.2.2,0,0,1,10.84,27Zm0-.81A.2.2,0,0,1,11,26h0a.2.2,0,0,1,.2.2h0a.2.2,0,0,1-.2.2h0A.2.2,0,0,1,10.84,26.22Zm0-.81a.2.2,0,0,1,.2-.2h0a.2.2,0,0,1,.2.2h0a.2.2,0,0,1-.2.2h0A.2.2,0,0,1,10.84,25.41Z"/><path class="cls-48" d="M15.91,28H12.68a.2.2,0,0,1-.2-.2V24.6a.2.2,0,0,1,.2-.2h3.23a.2.2,0,0,1,.2.2v3.23A.2.2,0,0,1,15.91,28Zm-3-.4h2.83V24.8H12.88Z"/><path class="cls-49" d="M30.82,6.67a.2.2,0,0,1-.2-.2V.4H29.17L27.74,1.83V6.47a.2.2,0,0,1-.4,0V1.75a.2.2,0,0,1,.06-.14L28.94.06A.2.2,0,0,1,29.09,0h1.74a.2.2,0,0,1,.2.2V6.47A.2.2,0,0,1,30.82,6.67Z"/><path class="cls-50" d="M34.21,6.67H31.85a.2.2,0,0,1-.2-.2V.2a.2.2,0,0,1,.2-.2h1.87a.2.2,0,0,1,.14.06l1.41,1.41a.2.2,0,0,1,.06.14V5.56a.2.2,0,0,1-.06.14l-.92.92A.2.2,0,0,1,34.21,6.67Zm-2.16-.4h2.08l.8-.8V1.7L33.63.4H32.05Z"/><path class="cls-51" d="M30.82,4.49H27.54a.2.2,0,0,1,0-.4h3.28a.2.2,0,0,1,0,.4Z"/><path class="cls-52" d="M29.82,10.84a.2.2,0,0,1-.14-.34.21.21,0,0,1,.29,0,.2.2,0,0,1-.14.34Z"/><path class="cls-53" d="M29.62,11.43a.2.2,0,0,1,.2-.2h0a.2.2,0,0,1,.2.2h0a.2.2,0,0,1-.2.2h0A.2.2,0,0,1,29.62,11.43Z"/><path class="cls-54" d="M29.82,12.42a.2.2,0,0,1-.14-.35.21.21,0,0,1,.29,0,.21.21,0,0,1,.06.14.2.2,0,0,1-.06.14A.21.21,0,0,1,29.82,12.42Z"/><path class="cls-55" d="M29.82,10.85a.2.2,0,0,1-.2-.2v-2a.2.2,0,1,1,.4,0v2A.2.2,0,0,1,29.82,10.85Z"/><path class="cls-56" d="M28.82,10.57l-.1,0a.2.2,0,0,1-.08-.27l1-1.78a.2.2,0,0,1,.18-.1h0a.2.2,0,0,1,.18.1l1,1.78a.2.2,0,1,1-.35.2L29.82,9,29,10.47A.2.2,0,0,1,28.82,10.57Z"/><path class="cls-57" d="M32.86,11.35a.2.2,0,0,1-.14-.06.2.2,0,0,1,0-.29A.21.21,0,0,1,33,11a.2.2,0,0,1-.14.34Z"/><path class="cls-58" d="M32.65,11.68a.2.2,0,0,1,.2-.2h0a.2.2,0,0,1,.2.2h0a.2.2,0,0,1-.2.2h0A.2.2,0,0,1,32.65,11.68Z"/><path class="cls-59" d="M32.86,12.42a.2.2,0,0,1-.14-.35.21.21,0,0,1,.29,0,.21.21,0,0,1,.06.14.2.2,0,0,1-.06.14A.21.21,0,0,1,32.86,12.42Z"/><path class="cls-60" d="M32.86,11.35a.2.2,0,0,1-.2-.2V8.66a.2.2,0,1,1,.4,0v2.49A.2.2,0,0,1,32.86,11.35Z"/><path class="cls-61" d="M31.86,10.57l-.1,0a.2.2,0,0,1-.08-.27l1-1.78a.2.2,0,0,1,.18-.1h0a.2.2,0,0,1,.18.1l1,1.78a.2.2,0,1,1-.35.2L32.86,9,32,10.47A.2.2,0,0,1,31.86,10.57Z"/><path class="cls-62" d="M15.91,11H12.68a.2.2,0,0,1,0-.4h3V7.82h-3a.2.2,0,0,1,0-.4h3.23a.2.2,0,0,1,.2.2v3.23A.2.2,0,0,1,15.91,11Z"/><path class="cls-63" d="M12.68,11a.2.2,0,0,1-.14-.35.21.21,0,0,1,.29,0,.2.2,0,0,1,0,.29A.21.21,0,0,1,12.68,11Z"/><path class="cls-64" d="M12.48,10a.2.2,0,0,1,.2-.2h0a.2.2,0,0,1,.2.2h0a.2.2,0,0,1-.2.2h0A.2.2,0,0,1,12.48,10Zm0-.81a.2.2,0,0,1,.2-.2h0a.2.2,0,0,1,.2.2h0a.2.2,0,0,1-.2.2h0A.2.2,0,0,1,12.48,9.23Zm0-.81a.2.2,0,0,1,.2-.2h0a.2.2,0,0,1,.2.2h0a.2.2,0,0,1-.2.2h0A.2.2,0,0,1,12.48,8.42Z"/><path class="cls-65" d="M12.68,7.82a.2.2,0,0,1-.14-.34.21.21,0,0,1,.29,0,.2.2,0,0,1-.14.34Z"/></g></g></svg>