<svg xmlns="http://www.w3.org/2000/svg" xmlns:xlink="http://www.w3.org/1999/xlink" viewBox="0 0 35.3 45.41"><defs><style>.cls-1{fill:url(#linear-gradient);}.cls-2{fill:url(#linear-gradient-2);}.cls-3{fill:url(#linear-gradient-3);}.cls-4{fill:url(#linear-gradient-4);}.cls-5{fill:url(#linear-gradient-5);}.cls-6{fill:url(#linear-gradient-6);}.cls-7{fill:url(#linear-gradient-7);}.cls-8{fill:url(#linear-gradient-8);}.cls-9{fill:url(#linear-gradient-9);}.cls-10{fill:url(#linear-gradient-10);}.cls-11{fill:url(#linear-gradient-11);}.cls-12{fill:url(#linear-gradient-12);}.cls-13{fill:url(#linear-gradient-13);}.cls-14{fill:url(#linear-gradient-14);}.cls-15{fill:url(#linear-gradient-15);}.cls-16{fill:url(#linear-gradient-16);}.cls-17{fill:url(#linear-gradient-17);}.cls-18{fill:url(#linear-gradient-18);}.cls-19{fill:url(#linear-gradient-19);}.cls-20{fill:url(#linear-gradient-20);}.cls-21{fill:url(#linear-gradient-21);}.cls-22{fill:url(#linear-gradient-22);}.cls-23{fill:url(#linear-gradient-23);}.cls-24{fill:url(#linear-gradient-24);}.cls-25{fill:url(#linear-gradient-25);}.cls-26{fill:url(#linear-gradient-26);}.cls-27{fill:url(#linear-gradient-27);}.cls-28{fill:url(#linear-gradient-28);}.cls-29{fill:url(#linear-gradient-29);}.cls-30{fill:url(#linear-gradient-30);}.cls-31{fill:url(#linear-gradient-31);}.cls-32{fill:url(#linear-gradient-32);}.cls-33{fill:url(#linear-gradient-33);}.cls-34{fill:url(#linear-gradient-34);}.cls-35{fill:url(#linear-gradient-35);}.cls-36{fill:url(#linear-gradient-36);}.cls-37{fill:url(#linear-gradient-37);}.cls-38{fill:url(#linear-gradient-38);}.cls-39{fill:url(#linear-gradient-39);}.cls-40{fill:url(#linear-gradient-40);}.cls-41{fill:url(#linear-gradient-41);}.cls-42{fill:url(#linear-gradient-42);}.cls-43{fill:url(#linear-gradient-43);}.cls-44{fill:url(#linear-gradient-44);}.cls-45{fill:url(#linear-gradient-45);}.cls-46{fill:url(#linear-gradient-46);}.cls-47{fill:url(#linear-gradient-48);}.cls-48{fill:url(#linear-gradient-49);}.cls-49{fill:url(#linear-gradient-50);}.cls-50{fill:url(#linear-gradient-51);}.cls-51{fill:url(#linear-gradient-52);}.cls-52{fill:url(#linear-gradient-53);}.cls-53{fill:url(#linear-gradient-54);}.cls-54{fill:url(#linear-gradient-55);}.cls-55{fill:url(#linear-gradient-56);}.cls-56{fill:url(#linear-gradient-57);}.cls-57{fill:url(#linear-gradient-58);}.cls-58{fill:url(#linear-gradient-59);}.cls-59{fill:url(#linear-gradient-60);}.cls-60{fill:url(#linear-gradient-61);}.cls-61{fill:url(#linear-gradient-62);}.cls-62{fill:url(#linear-gradient-63);}.cls-63{fill:url(#linear-gradient-64);}.cls-64{fill:url(#linear-gradient-65);}.cls-65{fill:url(#linear-gradient-66);}.cls-66{fill:url(#linear-gradient-67);}.cls-67{fill:url(#linear-gradient-68);}.cls-68{fill:url(#linear-gradient-69);}.cls-69{fill:url(#linear-gradient-70);}.cls-70{fill:url(#linear-gradient-71);}.cls-71{fill:url(#linear-gradient-72);}.cls-72{fill:url(#linear-gradient-73);}.cls-73{fill:url(#linear-gradient-74);}.cls-74{fill:url(#linear-gradient-75);}.cls-75{fill:url(#linear-gradient-76);}.cls-76{fill:url(#linear-gradient-77);}.cls-77{fill:url(#linear-gradient-78);}.cls-78{fill:url(#linear-gradient-79);}.cls-79{fill:url(#linear-gradient-80);}.cls-80{fill:url(#linear-gradient-81);}.cls-81{fill:url(#linear-gradient-82);}.cls-82{fill:url(#linear-gradient-83);}.cls-83{fill:url(#linear-gradient-84);}.cls-84{fill:url(#linear-gradient-85);}.cls-85{fill:url(#linear-gradient-86);}.cls-86{fill:url(#linear-gradient-87);}.cls-87{fill:url(#linear-gradient-88);}.cls-88{fill:url(#linear-gradient-89);}.cls-89{fill:url(#linear-gradient-90);}.cls-90{fill:url(#linear-gradient-91);}.cls-91{fill:url(#linear-gradient-92);}.cls-92{fill:url(#linear-gradient-93);}.cls-93{fill:url(#linear-gradient-94);}.cls-94{fill:url(#linear-gradient-95);}.cls-95{fill:url(#linear-gradient-96);}.cls-96{fill:url(#linear-gradient-97);}.cls-97{fill:url(#linear-gradient-98);}.cls-98{fill:url(#linear-gradient-99);}.cls-99{fill:url(#linear-gradient-100);}.cls-100{fill:url(#linear-gradient-101);}.cls-101{fill:url(#linear-gradient-102);}</style><linearGradient id="linear-gradient" x1="856.57" y1="-112.26" x2="829.57" y2="79.74" gradientTransform="translate(-815.92 -49.51)" gradientUnits="userSpaceOnUse"><stop offset="0" stop-color="#29abe2"/><stop offset="1" stop-color="#4f00bc"/></linearGradient><linearGradient id="linear-gradient-2" x1="858.64" y1="-111.97" x2="831.64" y2="80.03" xlink:href="#linear-gradient"/><linearGradient id="linear-gradient-3" x1="860.77" y1="-111.67" x2="833.77" y2="80.33" xlink:href="#linear-gradient"/><linearGradient id="linear-gradient-4" x1="862.82" y1="-111.38" x2="835.82" y2="80.62" xlink:href="#linear-gradient"/><linearGradient id="linear-gradient-5" x1="864.96" y1="-111.08" x2="837.96" y2="80.92" xlink:href="#linear-gradient"/><linearGradient id="linear-gradient-6" x1="867.22" y1="-110.76" x2="840.22" y2="81.24" xlink:href="#linear-gradient"/><linearGradient id="linear-gradient-7" x1="845.84" y1="-113.77" x2="818.84" y2="78.23" xlink:href="#linear-gradient"/><linearGradient id="linear-gradient-8" x1="847.96" y1="-113.47" x2="820.96" y2="78.53" xlink:href="#linear-gradient"/><linearGradient id="linear-gradient-9" x1="850.39" y1="-113.13" x2="823.39" y2="78.87" xlink:href="#linear-gradient"/><linearGradient id="linear-gradient-10" x1="851.99" y1="-112.9" x2="824.99" y2="79.1" xlink:href="#linear-gradient"/><linearGradient id="linear-gradient-11" x1="853.67" y1="-112.66" x2="826.67" y2="79.33" xlink:href="#linear-gradient"/><linearGradient id="linear-gradient-12" x1="855.88" y1="-112.35" x2="828.88" y2="79.65" xlink:href="#linear-gradient"/><linearGradient id="linear-gradient-13" x1="858.85" y1="-111.94" x2="831.86" y2="80.06" xlink:href="#linear-gradient"/><linearGradient id="linear-gradient-14" x1="861.05" y1="-111.63" x2="834.05" y2="80.37" xlink:href="#linear-gradient"/><linearGradient id="linear-gradient-15" x1="862.82" y1="-111.38" x2="835.82" y2="80.62" xlink:href="#linear-gradient"/><linearGradient id="linear-gradient-16" x1="864.28" y1="-111.17" x2="837.28" y2="80.83" xlink:href="#linear-gradient"/><linearGradient id="linear-gradient-17" x1="866.23" y1="-110.9" x2="839.23" y2="81.1" xlink:href="#linear-gradient"/><linearGradient id="linear-gradient-18" x1="868.19" y1="-110.62" x2="841.19" y2="81.38" xlink:href="#linear-gradient"/><linearGradient id="linear-gradient-19" x1="869.62" y1="-110.42" x2="842.62" y2="81.58" xlink:href="#linear-gradient"/><linearGradient id="linear-gradient-20" x1="871.83" y1="-110.11" x2="844.83" y2="81.89" xlink:href="#linear-gradient"/><linearGradient id="linear-gradient-21" x1="873.29" y1="-109.91" x2="846.29" y2="82.09" xlink:href="#linear-gradient"/><linearGradient id="linear-gradient-22" x1="874.75" y1="-109.7" x2="847.75" y2="82.3" xlink:href="#linear-gradient"/><linearGradient id="linear-gradient-23" x1="876.4" y1="-109.47" x2="849.4" y2="82.53" xlink:href="#linear-gradient"/><linearGradient id="linear-gradient-24" x1="878.82" y1="-109.13" x2="851.82" y2="82.87" xlink:href="#linear-gradient"/><linearGradient id="linear-gradient-25" x1="862.05" y1="-115.37" x2="835.05" y2="76.63" xlink:href="#linear-gradient"/><linearGradient id="linear-gradient-26" x1="862.05" y1="-115.37" x2="835.05" y2="76.63" xlink:href="#linear-gradient"/><linearGradient id="linear-gradient-27" x1="862.05" y1="-115.37" x2="835.05" y2="76.63" xlink:href="#linear-gradient"/><linearGradient id="linear-gradient-28" x1="862.05" y1="-115.37" x2="835.05" y2="76.63" xlink:href="#linear-gradient"/><linearGradient id="linear-gradient-29" x1="862.05" y1="-115.37" x2="835.05" y2="76.63" xlink:href="#linear-gradient"/><linearGradient id="linear-gradient-30" x1="863.93" y1="-115.11" x2="836.93" y2="76.89" xlink:href="#linear-gradient"/><linearGradient id="linear-gradient-31" x1="860.18" y1="-115.63" x2="833.18" y2="76.37" xlink:href="#linear-gradient"/><linearGradient id="linear-gradient-32" x1="864.54" y1="-115.02" x2="837.54" y2="76.98" xlink:href="#linear-gradient"/><linearGradient id="linear-gradient-33" x1="859.56" y1="-115.72" x2="832.56" y2="76.28" xlink:href="#linear-gradient"/><linearGradient id="linear-gradient-34" x1="865.14" y1="-114.94" x2="838.14" y2="77.06" xlink:href="#linear-gradient"/><linearGradient id="linear-gradient-35" x1="858.97" y1="-115.8" x2="831.97" y2="76.2" xlink:href="#linear-gradient"/><linearGradient id="linear-gradient-36" x1="862.49" y1="-115.31" x2="835.49" y2="76.69" xlink:href="#linear-gradient"/><linearGradient id="linear-gradient-37" x1="861.62" y1="-115.43" x2="834.62" y2="76.57" xlink:href="#linear-gradient"/><linearGradient id="linear-gradient-38" x1="864.73" y1="-114.99" x2="837.73" y2="77.01" xlink:href="#linear-gradient"/><linearGradient id="linear-gradient-39" x1="859.38" y1="-115.75" x2="832.38" y2="76.25" xlink:href="#linear-gradient"/><linearGradient id="linear-gradient-40" x1="863.66" y1="-115.14" x2="836.66" y2="76.86" xlink:href="#linear-gradient"/><linearGradient id="linear-gradient-41" x1="860.45" y1="-115.6" x2="833.45" y2="76.4" xlink:href="#linear-gradient"/><linearGradient id="linear-gradient-42" x1="865.08" y1="-114.94" x2="838.08" y2="77.06" xlink:href="#linear-gradient"/><linearGradient id="linear-gradient-43" x1="859.03" y1="-115.8" x2="832.03" y2="76.2" xlink:href="#linear-gradient"/><linearGradient id="linear-gradient-44" x1="861.3" y1="-115.48" x2="834.3" y2="76.52" xlink:href="#linear-gradient"/><linearGradient id="linear-gradient-45" x1="862.81" y1="-115.26" x2="835.81" y2="76.74" xlink:href="#linear-gradient"/><linearGradient id="linear-gradient-46" x1="862.05" y1="-115.37" x2="835.05" y2="76.63" xlink:href="#linear-gradient"/><linearGradient id="linear-gradient-48" x1="851.44" y1="-116.86" x2="824.44" y2="75.14" xlink:href="#linear-gradient"/><linearGradient id="linear-gradient-49" x1="850.45" y1="-117" x2="823.45" y2="75" xlink:href="#linear-gradient"/><linearGradient id="linear-gradient-50" x1="849.47" y1="-117.14" x2="822.47" y2="74.86" xlink:href="#linear-gradient"/><linearGradient id="linear-gradient-51" x1="850.29" y1="-117.02" x2="823.29" y2="74.98" xlink:href="#linear-gradient"/><linearGradient id="linear-gradient-52" x1="855.46" y1="-116.3" x2="828.46" y2="75.7" xlink:href="#linear-gradient"/><linearGradient id="linear-gradient-53" x1="854.58" y1="-116.42" x2="827.58" y2="75.58" xlink:href="#linear-gradient"/><linearGradient id="linear-gradient-54" x1="847.58" y1="-117.41" x2="820.58" y2="74.59" xlink:href="#linear-gradient"/><linearGradient id="linear-gradient-55" x1="863.88" y1="-115.11" x2="836.88" y2="76.89" xlink:href="#linear-gradient"/><linearGradient id="linear-gradient-56" x1="847.37" y1="-117.43" x2="820.37" y2="74.57" xlink:href="#linear-gradient"/><linearGradient id="linear-gradient-57" x1="847.7" y1="-117.39" x2="820.7" y2="74.61" xlink:href="#linear-gradient"/><linearGradient id="linear-gradient-58" x1="871.91" y1="-113.98" x2="844.91" y2="78.02" xlink:href="#linear-gradient"/><linearGradient id="linear-gradient-59" x1="847.89" y1="-117.36" x2="820.89" y2="74.64" xlink:href="#linear-gradient"/><linearGradient id="linear-gradient-60" x1="845.48" y1="-117.7" x2="818.48" y2="74.3" xlink:href="#linear-gradient"/><linearGradient id="linear-gradient-61" x1="844.88" y1="-117.78" x2="817.88" y2="74.22" xlink:href="#linear-gradient"/><linearGradient id="linear-gradient-62" x1="844.78" y1="-117.8" x2="817.78" y2="74.2" xlink:href="#linear-gradient"/><linearGradient id="linear-gradient-63" x1="844.69" y1="-117.81" x2="817.69" y2="74.19" xlink:href="#linear-gradient"/><linearGradient id="linear-gradient-64" x1="845.38" y1="-117.72" x2="818.38" y2="74.28" xlink:href="#linear-gradient"/><linearGradient id="linear-gradient-65" x1="846.07" y1="-117.62" x2="819.07" y2="74.38" xlink:href="#linear-gradient"/><linearGradient id="linear-gradient-66" x1="846.17" y1="-117.6" x2="819.17" y2="74.4" xlink:href="#linear-gradient"/><linearGradient id="linear-gradient-67" x1="846.27" y1="-117.59" x2="819.27" y2="74.41" xlink:href="#linear-gradient"/><linearGradient id="linear-gradient-68" x1="845.57" y1="-117.69" x2="818.57" y2="74.31" xlink:href="#linear-gradient"/><linearGradient id="linear-gradient-69" x1="849.95" y1="-117.07" x2="822.96" y2="74.93" xlink:href="#linear-gradient"/><linearGradient id="linear-gradient-70" x1="853.09" y1="-116.63" x2="826.09" y2="75.37" xlink:href="#linear-gradient"/><linearGradient id="linear-gradient-71" x1="846.15" y1="-117.61" x2="819.15" y2="74.39" xlink:href="#linear-gradient"/><linearGradient id="linear-gradient-72" x1="852.38" y1="-116.73" x2="825.38" y2="75.27" xlink:href="#linear-gradient"/><linearGradient id="linear-gradient-73" x1="850.85" y1="-116.95" x2="823.85" y2="75.05" xlink:href="#linear-gradient"/><linearGradient id="linear-gradient-74" x1="849.31" y1="-117.16" x2="822.31" y2="74.84" xlink:href="#linear-gradient"/><linearGradient id="linear-gradient-75" x1="849.1" y1="-117.19" x2="822.1" y2="74.81" xlink:href="#linear-gradient"/><linearGradient id="linear-gradient-76" x1="848.88" y1="-117.22" x2="821.88" y2="74.78" xlink:href="#linear-gradient"/><linearGradient id="linear-gradient-77" x1="850.42" y1="-117.01" x2="823.42" y2="74.99" xlink:href="#linear-gradient"/><linearGradient id="linear-gradient-78" x1="851.95" y1="-116.79" x2="824.95" y2="75.21" xlink:href="#linear-gradient"/><linearGradient id="linear-gradient-79" x1="852.17" y1="-116.76" x2="825.17" y2="75.24" xlink:href="#linear-gradient"/><linearGradient id="linear-gradient-80" x1="854.17" y1="-116.48" x2="827.17" y2="75.52" xlink:href="#linear-gradient"/><linearGradient id="linear-gradient-81" x1="846.61" y1="-117.54" x2="819.61" y2="74.46" xlink:href="#linear-gradient"/><linearGradient id="linear-gradient-82" x1="848.15" y1="-117.33" x2="821.15" y2="74.67" xlink:href="#linear-gradient"/><linearGradient id="linear-gradient-83" x1="848.36" y1="-117.3" x2="821.36" y2="74.7" xlink:href="#linear-gradient"/><linearGradient id="linear-gradient-84" x1="848.58" y1="-117.27" x2="821.58" y2="74.74" xlink:href="#linear-gradient"/><linearGradient id="linear-gradient-85" x1="847.04" y1="-117.48" x2="820.04" y2="74.52" xlink:href="#linear-gradient"/><linearGradient id="linear-gradient-86" x1="845.51" y1="-117.7" x2="818.51" y2="74.3" xlink:href="#linear-gradient"/><linearGradient id="linear-gradient-87" x1="850.93" y1="-116.93" x2="823.93" y2="75.07" xlink:href="#linear-gradient"/><linearGradient id="linear-gradient-88" x1="855.94" y1="-116.23" x2="828.94" y2="75.77" xlink:href="#linear-gradient"/><linearGradient id="linear-gradient-89" x1="864.5" y1="-115.03" x2="837.5" y2="76.97" xlink:href="#linear-gradient"/><linearGradient id="linear-gradient-90" x1="861.94" y1="-115.39" x2="834.94" y2="76.61" xlink:href="#linear-gradient"/><linearGradient id="linear-gradient-91" x1="859.38" y1="-115.75" x2="832.38" y2="76.25" xlink:href="#linear-gradient"/><linearGradient id="linear-gradient-92" x1="869.12" y1="-114.38" x2="842.12" y2="77.62" xlink:href="#linear-gradient"/><linearGradient id="linear-gradient-93" x1="864.91" y1="-114.97" x2="837.91" y2="77.03" xlink:href="#linear-gradient"/><linearGradient id="linear-gradient-94" x1="873.62" y1="-113.74" x2="846.62" y2="78.26" xlink:href="#linear-gradient"/><linearGradient id="linear-gradient-95" x1="872.08" y1="-113.96" x2="845.08" y2="78.04" xlink:href="#linear-gradient"/><linearGradient id="linear-gradient-96" x1="870.55" y1="-114.18" x2="843.55" y2="77.82" xlink:href="#linear-gradient"/><linearGradient id="linear-gradient-97" x1="860.05" y1="-115.65" x2="833.05" y2="76.35" xlink:href="#linear-gradient"/><linearGradient id="linear-gradient-98" x1="868.38" y1="-114.48" x2="841.38" y2="77.52" xlink:href="#linear-gradient"/><linearGradient id="linear-gradient-99" x1="864.67" y1="-115" x2="837.67" y2="77" xlink:href="#linear-gradient"/><linearGradient id="linear-gradient-100" x1="860.96" y1="-115.52" x2="833.96" y2="76.48" xlink:href="#linear-gradient"/><linearGradient id="linear-gradient-101" x1="870.94" y1="-114.12" x2="843.94" y2="77.88" xlink:href="#linear-gradient"/><linearGradient id="linear-gradient-102" x1="871.83" y1="-114" x2="844.83" y2="78" xlink:href="#linear-gradient"/></defs><title>Asset 14</title><g id="Layer_2" data-name="Layer 2"><g id="_ÎÓÈ_1" data-name="—ÎÓÈ_1"><path class="cls-1" d="M12.23,41.52c-.68,0-.93-.3-.94-.77h.36c0,.26.15.46.57.46s.5-.14.5-.31c0-.49-1.35-.15-1.37-.87,0-.37.23-.64.83-.64s.85.29.86.73h-.35c0-.29-.16-.43-.52-.43s-.46.11-.46.3c0,.45,1.36.12,1.36.89C13.07,41.18,12.88,41.52,12.23,41.52Z"/><path class="cls-2" d="M13.61,41.49V39.42h1.44v.29H14v.58h1v.29H14v.62h1.09v.29Z"/><path class="cls-3" d="M17,41.49l-.14-.41h-1l-.15.41h-.37l.8-2.08h.48l.78,2.08Zm-.65-1.85-.42,1.18h.84Z"/><path class="cls-4" d="M18.95,41.49l-.84-.81v.81h-.36V39.42h.74c.78,0,.86.4.86.67,0,.51-.41.63-.81.63l.88.78Zm-.44-1.79h-.4v.74h.41c.42,0,.48-.2.48-.37S18.94,39.71,18.51,39.71Z"/><path class="cls-5" d="M20.77,41.52c-.78,0-1-.49-1-1.06s.19-1.06,1-1.06.94.38.94.81h-.37a.51.51,0,0,0-.57-.52c-.49,0-.59.34-.59.77s.1.76.59.76a.5.5,0,0,0,.57-.52h.37C21.71,41.15,21.46,41.52,20.77,41.52Z"/><path class="cls-6" d="M23.58,41.49v-.92h-1v.92h-.36V39.42h.36v.87h1v-.87h.36v2.08Z"/><path class="cls-7" d="M0,45.39V43.31H1.44v.29H.35v.58h1v.29h-1v.62H1.44v.29Z"/><path class="cls-8" d="M3.39,45.39,2.31,43.77v1.62H1.95V43.31h.46l1.07,1.61V43.31h.36v2.08Z"/><path class="cls-9" d="M6,45.39,6,45.07a.7.7,0,0,1-.67.34c-.73,0-.94-.49-.94-1.06s.19-1.06,1-1.06.93.34.93.72H5.88c0-.23-.16-.43-.56-.43s-.59.34-.59.77.11.76.59.76a.53.53,0,0,0,.58-.59H5.29v-.29h1v1.16Z"/><path class="cls-10" d="M6.82,45.39V43.31h.36v2.08Z"/><path class="cls-11" d="M9.21,45.39,8.13,43.77v1.62H7.77V43.31h.46L9.3,44.92V43.31h.36v2.08Z"/><path class="cls-12" d="M10.25,45.39V43.31h1.44v.29H10.6v.58h1v.29h-1v.62h1.09v.29Z"/><path class="cls-13" d="M14,45.41c-.8,0-1-.5-1-1.06s.19-1.06,1-1.06,1,.49,1,1.06S14.8,45.41,14,45.41Zm0-1.83c-.52,0-.63.34-.63.76s.11.77.63.77.63-.34.63-.76S14.52,43.59,14,43.59Z"/><path class="cls-14" d="M16.29,44.69h-.42v.7h-.36V43.31h.75c.8,0,.87.41.87.69S17.09,44.69,16.29,44.69Zm0-1.08h-.41v.8h.42c.43,0,.48-.22.48-.4S16.72,43.6,16.28,43.6Z"/><path class="cls-15" d="M18.34,43.6v1.79H18V43.6h-.6v-.29h1.54v.29Z"/><path class="cls-16" d="M19.35,45.39V43.31h.36v2.08Z"/><path class="cls-17" d="M22.4,45.39V43.74l-.7,1.65h-.36l-.7-1.65v1.65h-.35V43.31h.53l.6,1.42.1.27a2.77,2.77,0,0,1,.1-.27l.6-1.42h.53v2.08Z"/><path class="cls-18" d="M23.34,45.39V43.31h.36v2.08Z"/><path class="cls-19" d="M24.19,45.39V45l1.18-1.44H24.19v-.29h1.54v.33L24.52,45.1h1.25v.29Z"/><path class="cls-20" d="M27.73,45.39,27.59,45h-1l-.15.41H26l.8-2.08h.48l.78,2.08Zm-.65-1.85-.42,1.18h.84Z"/><path class="cls-21" d="M29,43.6v1.79h-.35V43.6h-.6v-.29h1.54v.29Z"/><path class="cls-22" d="M30,45.39V43.31h.36v2.08Z"/><path class="cls-23" d="M31.89,45.41c-.8,0-1-.5-1-1.06s.19-1.06,1-1.06,1,.49,1,1.06S32.69,45.41,31.89,45.41Zm0-1.83c-.52,0-.63.34-.63.76s.11.77.63.77.63-.34.63-.76S32.41,43.59,31.89,43.59Z"/><path class="cls-24" d="M34.86,45.39l-1.09-1.62v1.62h-.36V43.31h.46l1.07,1.61V43.31h.36v2.08Z"/><path class="cls-25" d="M22.76,19.66H20.38a.2.2,0,0,1-.2-.19l0-.79c-.25,0-.51-.09-.76-.16l-.35.71a.2.2,0,0,1-.26.1l-2.19-.94a.2.2,0,0,1-.11-.26l.28-.74-.43-.29-.58.53a.2.2,0,0,1-.28,0l-1.68-1.68a.2.2,0,0,1,0-.28l.53-.58c-.15-.21-.29-.42-.43-.65l-.75.26a.2.2,0,0,1-.25-.12L12,12.35a.2.2,0,0,1,.1-.26l.72-.33c0-.17-.07-.34-.1-.51l-.79,0a.2.2,0,0,1-.19-.2V8.64a.2.2,0,0,1,.19-.2l.79,0c0-.25.09-.51.16-.76l-.71-.35a.2.2,0,0,1-.1-.26L13,4.85a.2.2,0,0,1,.26-.11L14,5l.29-.43L13.77,4a.2.2,0,0,1,0-.28L15.46,2a.2.2,0,0,1,.28,0l.58.53c.21-.15.42-.29.65-.43l-.26-.75a.2.2,0,0,1,.12-.25L19,.26a.2.2,0,0,1,.26.1l.33.72.51-.1,0-.79a.2.2,0,0,1,.2-.19h2.38a.2.2,0,0,1,.2.19L23,1c.25,0,.51.09.76.16L24.1.43a.2.2,0,0,1,.26-.1l2.19.94a.2.2,0,0,1,.11.26l-.28.74.43.29L27.4,2a.2.2,0,0,1,.28,0l1.68,1.68a.2.2,0,0,1,0,.28l-.53.58c.15.21.29.42.43.65L30,5a.2.2,0,0,1,.25.12l.88,2.21a.2.2,0,0,1-.1.26l-.72.33c0,.17.07.34.1.51l.79,0a.2.2,0,0,1,.19.2V11a.2.2,0,0,1-.19.2l-.79,0c0,.25-.09.51-.16.76l.71.35a.2.2,0,0,1,.1.26l-.94,2.19a.2.2,0,0,1-.26.11l-.74-.28-.29.43.53.58a.2.2,0,0,1,0,.28l-1.68,1.68a.2.2,0,0,1-.28,0l-.58-.53c-.21.15-.43.29-.65.43l.26.75a.2.2,0,0,1-.12.25l-2.21.88a.2.2,0,0,1-.26-.1l-.33-.72-.51.1,0,.79A.2.2,0,0,1,22.76,19.66Zm-2.19-.4h2l0-.76a.2.2,0,0,1,.17-.19c.27,0,.54-.09.81-.15a.2.2,0,0,1,.23.11l.31.7L26,18.21l-.25-.72a.2.2,0,0,1,.09-.24,8.52,8.52,0,0,0,.88-.58.2.2,0,0,1,.26,0l.56.52,1.41-1.41-.52-.56a.2.2,0,0,1,0-.26c.16-.22.32-.45.46-.68a.2.2,0,0,1,.24-.08l.71.27.79-1.83-.69-.33a.2.2,0,0,1-.11-.23A8.62,8.62,0,0,0,30,11a.2.2,0,0,1,.19-.17l.76,0v-2l-.76,0A.2.2,0,0,1,30,8.62c0-.27-.09-.54-.15-.81A.2.2,0,0,1,30,7.58l.7-.31L30,5.42l-.72.25A.2.2,0,0,1,29,5.57a8.52,8.52,0,0,0-.58-.88.2.2,0,0,1,0-.26l.52-.56L27.53,2.46,27,3a.2.2,0,0,1-.26,0c-.22-.16-.45-.32-.68-.46a.2.2,0,0,1-.08-.24l.27-.71L24.38.78,24,1.46a.2.2,0,0,1-.23.11,8.57,8.57,0,0,0-1-.21.2.2,0,0,1-.17-.19l0-.76h-2l0,.76a.2.2,0,0,1-.17.19c-.27,0-.54.09-.81.15a.2.2,0,0,1-.23-.11L19,.7l-1.85.74.25.72a.2.2,0,0,1-.09.24,8.58,8.58,0,0,0-.88.58.2.2,0,0,1-.26,0l-.56-.52L14.2,3.87l.52.56a.2.2,0,0,1,0,.26c-.16.22-.32.45-.46.68a.2.2,0,0,1-.24.08l-.71-.27L12.52,7l.69.33a.2.2,0,0,1,.11.23,8.59,8.59,0,0,0-.21,1,.2.2,0,0,1-.19.17l-.76,0v2l.76,0a.2.2,0,0,1,.19.17c0,.27.09.54.15.81a.2.2,0,0,1-.11.23l-.7.31.74,1.85L13.9,14a.2.2,0,0,1,.24.09,8.53,8.53,0,0,0,.58.88.2.2,0,0,1,0,.26l-.52.56,1.41,1.41.56-.52a.2.2,0,0,1,.26,0c.22.16.45.32.68.46a.2.2,0,0,1,.08.24l-.27.71,1.83.79.33-.69a.2.2,0,0,1,.23-.11,8.6,8.6,0,0,0,1,.21.2.2,0,0,1,.17.19Z"/><path class="cls-26" d="M21.57,16.85a7,7,0,1,1,5-2.06A7,7,0,0,1,21.57,16.85Zm0-13.65a6.62,6.62,0,1,0,4.68,1.94A6.58,6.58,0,0,0,21.57,3.2Z"/><path class="cls-27" d="M21.38,15.55a.2.2,0,0,1,.2-.2h0a.2.2,0,0,1,.2.2h0a.2.2,0,0,1-.2.2h0A.2.2,0,0,1,21.38,15.55Zm-.72.13a.2.2,0,0,1-.17-.23h0a.2.2,0,0,1,.23-.17h0a.2.2,0,0,1,.17.23h0a.2.2,0,0,1-.2.17h0Zm1.62-.17a.2.2,0,0,1,.17-.23h0a.2.2,0,0,1,.23.17h0a.2.2,0,0,1-.17.23h0A.2.2,0,0,1,22.28,15.51Zm-2.53,0a.2.2,0,0,1-.13-.25h0a.2.2,0,0,1,.25-.13h0a.2.2,0,0,1,.13.25h0a.2.2,0,0,1-.19.14h-.06Zm3.41-.14a.2.2,0,0,1,.13-.25h0a.2.2,0,0,1,.25.13h0a.2.2,0,0,1-.13.26h-.06A.2.2,0,0,1,23.16,15.33Zm-4.27-.21a.2.2,0,0,1-.09-.27h0a.2.2,0,0,1,.27-.09h0a.2.2,0,0,1,.09.27h0a.2.2,0,0,1-.18.11h0ZM24,15a.2.2,0,0,1,.09-.27h0a.2.2,0,0,1,.27.09h0a.2.2,0,0,1-.09.27h0l-.09,0h0A.2.2,0,0,1,24,15Zm-5.91-.38a.2.2,0,0,1,0-.28h0a.2.2,0,0,1,.28,0h0a.2.2,0,0,1,0,.28h0a.2.2,0,0,1-.16.08h0A.21.21,0,0,1,18.1,14.64Zm6.69-.06a.2.2,0,0,1,0-.28h0a.2.2,0,0,1,.28,0h0a.2.2,0,0,1,0,.28h0a.2.2,0,0,1-.12,0h0A.2.2,0,0,1,24.78,14.57ZM17.39,14h0a.2.2,0,0,1,0-.29h0a.2.2,0,0,1,.29,0h0a.2.2,0,0,1,0,.29h0a.2.2,0,0,1-.14.06h0A.2.2,0,0,1,17.39,14Zm8.1,0a.2.2,0,0,1,0-.29h0a.2.2,0,0,1,.29,0h0a.2.2,0,0,1,0,.29h0a.2.2,0,0,1-.14.06h0A.2.2,0,0,1,25.49,14Zm-8.72-.7a.2.2,0,0,1,0-.28h0a.2.2,0,0,1,.28,0h0a.2.2,0,0,1,0,.28h0a.21.21,0,0,1-.12,0h0A.2.2,0,0,1,16.77,13.31Zm9.32,0a.2.2,0,0,1,0-.28h0a.2.2,0,0,1,.28,0h0a.2.2,0,0,1,0,.28h0a.2.2,0,0,1-.16.08h0A.2.2,0,0,1,26.09,13.35Zm-9.81-.83h0a.2.2,0,0,1,.09-.27h0a.2.2,0,0,1,.27.09h0a.2.2,0,0,1-.09.27h0l-.09,0h0A.2.2,0,0,1,16.29,12.52Zm10.3.08a.2.2,0,0,1-.09-.27h0a.2.2,0,0,1,.27-.09h0a.2.2,0,0,1,.09.27h0a.2.2,0,0,1-.18.11h0Zm-10.66-.94a.2.2,0,0,1,.13-.25h0a.2.2,0,0,1,.25.13h0a.2.2,0,0,1-.13.25h-.06A.2.2,0,0,1,15.93,11.66Zm11,.12a.2.2,0,0,1-.13-.25h0a.2.2,0,0,1,.25-.13h0a.2.2,0,0,1,.13.25h0a.2.2,0,0,1-.19.14H27Zm-11.25-1a.2.2,0,0,1,.17-.23h0a.2.2,0,0,1,.23.17h0a.2.2,0,0,1-.17.23h0A.2.2,0,0,1,15.71,10.76Zm11.48.16a.2.2,0,0,1-.17-.23h0a.2.2,0,0,1,.23-.17h0a.2.2,0,0,1,.17.23h0a.2.2,0,0,1-.2.17h0ZM15.64,9.83a.2.2,0,0,1,.2-.2h0a.2.2,0,0,1,.2.2h0a.2.2,0,0,1-.2.2h0A.2.2,0,0,1,15.64,9.83Zm11.45,0a.2.2,0,0,1,.2-.2h0a.2.2,0,0,1,.2.2h0a.2.2,0,0,1-.2.2h0A.2.2,0,0,1,27.09,9.82Zm0,0ZM15.88,9.13a.2.2,0,0,1-.17-.23h0a.2.2,0,0,1,.23-.17h0a.2.2,0,0,1,.17.23h0a.2.2,0,0,1-.2.17h0ZM27,9a.2.2,0,0,1,.17-.23h0a.2.2,0,0,1,.23.17h0a.2.2,0,0,1-.17.23h0A.2.2,0,0,1,27,9Zm-11-.7A.2.2,0,0,1,15.92,8h0a.2.2,0,0,1,.25-.13h0a.2.2,0,0,1,.13.25h0a.2.2,0,0,1-.19.14h-.06Zm10.77-.14A.2.2,0,0,1,27,7.86h0A.2.2,0,0,1,27.2,8h0a.2.2,0,0,1-.13.25H27A.2.2,0,0,1,26.82,8.11Zm-10.45-.7a.2.2,0,0,1-.09-.27h0A.2.2,0,0,1,16.55,7h0a.2.2,0,0,1,.09.27h0a.2.2,0,0,1-.18.11h0Zm10.12-.1h0A.2.2,0,0,1,26.58,7h0a.2.2,0,0,1,.27.09h0a.2.2,0,0,1-.09.27h0l-.09,0h0A.2.2,0,0,1,26.49,7.31Zm-9.68-.68a.2.2,0,0,1,0-.28h0a.2.2,0,0,1,.28,0h0a.2.2,0,0,1,0,.28h0a.2.2,0,0,1-.16.08h0A.2.2,0,0,1,16.81,6.63ZM26,6.57a.2.2,0,0,1,0-.28h0a.2.2,0,0,1,.28,0h0a.2.2,0,0,1,0,.28h0a.2.2,0,0,1-.12,0h0A.2.2,0,0,1,26,6.57Zm-8.66-.65a.2.2,0,0,1,0-.29h0a.2.2,0,0,1,.29,0h0a.2.2,0,0,1,0,.29h0a.2.2,0,0,1-.14.06h0A.2.2,0,0,1,17.37,5.92Zm8.1,0h0a.2.2,0,0,1,0-.29h0a.2.2,0,0,1,.29,0h0a.2.2,0,0,1,0,.29h0a.2.2,0,0,1-.14.06h0A.2.2,0,0,1,25.47,5.91ZM18,5.31a.2.2,0,0,1,0-.28h0a.2.2,0,0,1,.28,0h0a.2.2,0,0,1,0,.28h0a.2.2,0,0,1-.12,0h0A.2.2,0,0,1,18,5.31Zm6.78,0h0a.2.2,0,0,1,0-.28h0A.2.2,0,0,1,25,5h0a.2.2,0,0,1,0,.28h0a.2.2,0,0,1-.16.08h0A.2.2,0,0,1,24.81,5.35Zm-6-.53a.2.2,0,0,1,.09-.27h0a.2.2,0,0,1,.27.09h0a.2.2,0,0,1-.09.27h0l-.09,0h0A.2.2,0,0,1,18.78,4.82Zm5.29.08h0A.2.2,0,0,1,24,4.63h0a.2.2,0,0,1,.27-.09h0a.2.2,0,0,1,.09.27h0a.2.2,0,0,1-.18.11h0ZM19.6,4.44a.2.2,0,0,1,.13-.25h0a.2.2,0,0,1,.25.13h0a.2.2,0,0,1-.13.25h-.06A.2.2,0,0,1,19.6,4.44Zm3.67.12h0a.2.2,0,0,1-.13-.25h0a.2.2,0,0,1,.25-.13h0a.2.2,0,0,1,.13.25h0a.2.2,0,0,1-.19.14h-.06Zm-2.8-.36A.2.2,0,0,1,20.64,4h0a.2.2,0,0,1,.23.17h0a.2.2,0,0,1-.17.23h0A.2.2,0,0,1,20.47,4.2Zm2,.16a.2.2,0,0,1-.17-.23h0A.2.2,0,0,1,22.49,4h0a.2.2,0,0,1,.17.23h0a.2.2,0,0,1-.2.17h0ZM21.36,4.1a.2.2,0,0,1,.2-.2h0a.2.2,0,0,1,.2.2h0a.2.2,0,0,1-.2.2h0A.2.2,0,0,1,21.36,4.1Z"/><path class="cls-28" d="M21.57,14.66A4.83,4.83,0,1,1,25,13.25,4.8,4.8,0,0,1,21.57,14.66Zm0-9.27a4.43,4.43,0,1,0,3.13,1.3A4.4,4.4,0,0,0,21.57,5.4Z"/><path class="cls-29" d="M21.57,12.78a3,3,0,1,1,2.09-.87A2.94,2.94,0,0,1,21.57,12.78Zm0-5.51A2.55,2.55,0,1,0,23.37,8,2.54,2.54,0,0,0,21.57,7.27Z"/><path class="cls-30" d="M23.52,8.08a.2.2,0,0,1-.14-.34l.56-.56a.2.2,0,1,1,.29.29L23.66,8A.2.2,0,0,1,23.52,8.08Z"/><path class="cls-31" d="M19.06,12.54a.2.2,0,0,1-.14-.34l.56-.56a.2.2,0,1,1,.29.29l-.56.56A.2.2,0,0,1,19.06,12.54Z"/><path class="cls-32" d="M24.08,12.54a.2.2,0,0,1-.14-.06l-.56-.56a.2.2,0,1,1,.29-.29l.56.56a.2.2,0,0,1-.14.34Z"/><path class="cls-33" d="M19.62,8.08A.2.2,0,0,1,19.48,8l-.56-.56a.2.2,0,0,1,.29-.29l.56.56a.2.2,0,0,1-.14.34Z"/><path class="cls-34" d="M25.11,10h-.79a.2.2,0,0,1,0-.4h.79a.2.2,0,1,1,0,.4Z"/><path class="cls-35" d="M18.81,10H18a.2.2,0,0,1,0-.4h.79a.2.2,0,0,1,0,.4Z"/><path class="cls-36" d="M21.57,13.57a.2.2,0,0,1-.2-.2v-.79a.2.2,0,1,1,.4,0v.79A.2.2,0,0,1,21.57,13.57Z"/><path class="cls-37" d="M21.57,7.27a.2.2,0,0,1-.2-.2V6.28a.2.2,0,0,1,.4,0v.79A.2.2,0,0,1,21.57,7.27Z"/><path class="cls-38" d="M24.11,9A.2.2,0,0,1,24,8.57l.73-.31a.2.2,0,0,1,.16.37l-.73.31Z"/><path class="cls-39" d="M18.3,11.41a.2.2,0,0,1-.08-.39l.73-.31a.2.2,0,1,1,.16.37l-.73.31Z"/><path class="cls-40" d="M23,13.29a.2.2,0,0,1-.19-.12l-.31-.73a.2.2,0,0,1,.37-.16l.31.73a.2.2,0,0,1-.11.26Z"/><path class="cls-41" d="M20.5,7.49a.2.2,0,0,1-.19-.12L20,6.64a.2.2,0,0,1,.37-.16l.31.73a.2.2,0,0,1-.11.26Z"/><path class="cls-42" d="M24.85,11.36h-.08L24,11a.2.2,0,1,1,.15-.37l.73.3a.2.2,0,0,1-.08.39Z"/><path class="cls-43" d="M19,9h-.08l-.73-.3a.2.2,0,0,1,.15-.37l.73.3A.2.2,0,0,1,19,9Z"/><path class="cls-44" d="M20.24,13.31h-.08a.2.2,0,0,1-.11-.26l.3-.73a.2.2,0,1,1,.37.15l-.3.73A.2.2,0,0,1,20.24,13.31Z"/><path class="cls-45" d="M22.6,7.48h-.08a.2.2,0,0,1-.11-.26l.3-.73a.2.2,0,1,1,.37.15l-.3.73A.2.2,0,0,1,22.6,7.48Z"/><path class="cls-46" d="M21.33,12a.2.2,0,0,1-.18-.22h0a.2.2,0,0,1,.22-.18h0a.2.2,0,0,1,.18.22h0a.2.2,0,0,1-.2.18h0Zm.7-.23a.2.2,0,0,1,.12-.26h0a.2.2,0,0,1,.26.12h0a.2.2,0,0,1-.12.26h-.07A.2.2,0,0,1,22,11.74Zm-1.6-.08h0a.2.2,0,0,1-.06-.28h0a.2.2,0,0,1,.28-.06h0a.2.2,0,0,1,.06.28h0a.2.2,0,0,1-.17.09h0A.21.21,0,0,1,20.42,11.65Zm2.39-.3a.2.2,0,0,1,0-.28h0a.2.2,0,0,1,.29,0h0a.2.2,0,0,1,0,.29h0a.2.2,0,0,1-.14.06h0A.2.2,0,0,1,22.81,11.35ZM19.74,11h0a.2.2,0,0,1,.06-.28h0a.2.2,0,0,1,.28.06h0A.2.2,0,0,1,20,11h0a.21.21,0,0,1-.11,0h0A.2.2,0,0,1,19.74,11Zm3.61-.32a.2.2,0,0,1-.12-.26h0a.2.2,0,0,1,.26-.13h0a.2.2,0,0,1,.13.26h0a.2.2,0,0,1-.19.14h-.07Zm-3.92-.59h0a.2.2,0,0,1,.18-.22h0a.2.2,0,0,1,.22.18h0a.2.2,0,0,1-.18.22h0A.2.2,0,0,1,19.43,10.07Zm3.88-.44a.2.2,0,0,1,.18-.22h0a.2.2,0,0,1,.22.18h0a.2.2,0,0,1-.18.22h0A.2.2,0,0,1,23.31,9.63Zm-3.65-.25a.2.2,0,0,1-.12-.26h0A.2.2,0,0,1,19.79,9h0a.2.2,0,0,1,.13.26h0a.2.2,0,0,1-.19.14h-.07Zm3.39-.48a.2.2,0,0,1,.06-.28h0a.2.2,0,0,1,.28.06h0a.2.2,0,0,1-.06.28h0a.19.19,0,0,1-.11,0h0A.2.2,0,0,1,23.05,8.89Zm-3-.3a.2.2,0,0,1,0-.29h0a.2.2,0,0,1,.29,0h0a.2.2,0,0,1,0,.29h0a.2.2,0,0,1-.14.06h0A.2.2,0,0,1,20,8.59Zm2.46-.25a.2.2,0,0,1-.06-.28h0A.2.2,0,0,1,22.71,8h0a.2.2,0,0,1,.06.28h0a.2.2,0,0,1-.17.09h0A.2.2,0,0,1,22.5,8.34Zm-1.77-.29a.2.2,0,0,1,.12-.26h0a.2.2,0,0,1,.26.12h0a.2.2,0,0,1-.12.26h-.07A.2.2,0,0,1,20.73,8.05Zm1,0h0a.2.2,0,0,1-.18-.22h0a.2.2,0,0,1,.22-.18h0a.2.2,0,0,1,.18.22h0a.2.2,0,0,1-.2.18h0Z"/><path class="cls-27" d="M21.57,11.18a1.35,1.35,0,1,1,1-.39A1.34,1.34,0,0,1,21.57,11.18Zm0-2.29a.95.95,0,1,0,.67.28A.94.94,0,0,0,21.57,8.88Z"/><path class="cls-47" d="M8.65,24.94a.2.2,0,0,1-.14-.34.21.21,0,0,1,.29,0,.2.2,0,0,1,0,.29A.21.21,0,0,1,8.65,24.94Z"/><path class="cls-48" d="M6.75,26.65a.2.2,0,0,1,0-.29h0a.2.2,0,0,1,.29,0H7a.2.2,0,0,1,0,.29H7a.2.2,0,0,1-.14.06h0A.2.2,0,0,1,6.75,26.65Zm.59-.59a.2.2,0,0,1,0-.28h0a.2.2,0,0,1,.29,0h0a.2.2,0,0,1,0,.28h0a.2.2,0,0,1-.14.06h0A.2.2,0,0,1,7.34,26.06Zm.59-.59a.2.2,0,0,1,0-.29h0a.2.2,0,0,1,.29,0h0a.2.2,0,0,1,0,.29h0a.2.2,0,0,1-.14.06h0A.21.21,0,0,1,7.92,25.47Z"/><path class="cls-49" d="M6.3,27.29a.2.2,0,0,1-.14-.06.2.2,0,0,1,0-.29.21.21,0,0,1,.28,0,.2.2,0,0,1,0,.29A.2.2,0,0,1,6.3,27.29Z"/><path class="cls-50" d="M4.54,29.06A.2.2,0,0,1,4.39,29l-2-2a.2.2,0,0,1,0-.29l8.14-8.14a.2.2,0,0,1,.29,0l2,2a.2.2,0,0,1,0,.29l-4,4a.2.2,0,0,1-.29-.29l3.88-3.88L10.68,19,2.82,26.86l1.71,1.71,1.62-1.62a.2.2,0,0,1,.29.29L4.68,29A.2.2,0,0,1,4.54,29.06Z"/><path class="cls-51" d="M12.07,20.32a.2.2,0,0,1-.14-.34L15,16.88a.2.2,0,0,1,.29.29l-3.09,3.09A.2.2,0,0,1,12.07,20.32Z"/><path class="cls-52" d="M11.28,19.53a.2.2,0,0,1-.14-.34l3.09-3.09a.2.2,0,0,1,.29.29l-3.09,3.09A.2.2,0,0,1,11.28,19.53Z"/><path class="cls-53" d="M5.39,28.2a.2.2,0,0,1-.14-.06l-2-2a.2.2,0,0,1,.29-.29l2,2a.2.2,0,0,1-.14.34Z"/><path class="cls-54" d="M33.39,24.07H9.53a.2.2,0,0,1,0-.4H33.19V5.3H28.94a.2.2,0,1,1,0-.4h4.45a.2.2,0,0,1,.2.2V23.87A.2.2,0,0,1,33.39,24.07Z"/><path class="cls-55" d="M5.53,24.07H1.39a.2.2,0,0,1-.2-.2V5.1a.2.2,0,0,1,.2-.2H13.13a.2.2,0,0,1,0,.4H1.6V23.67H5.53a.2.2,0,1,1,0,.4Z"/><path class="cls-56" d="M13.1,7.79H1.39a.2.2,0,0,1,0-.4H13.1a.2.2,0,1,1,0,.4Z"/><path class="cls-57" d="M33.39,7.79h-2.9a.2.2,0,1,1,0-.4h2.9a.2.2,0,1,1,0,.4Z"/><path class="cls-58" d="M12.6,6.53h-10a.2.2,0,1,1,0-.4h10a.2.2,0,0,1,0,.4Z"/><path class="cls-59" d="M6.09,12.6H3a.2.2,0,0,1-.2-.2V9.27a.2.2,0,0,1,.2-.2H6.09a.2.2,0,0,1,.2.2V12.4A.2.2,0,0,1,6.09,12.6Zm-2.93-.4H5.88V9.47H3.16Z"/><path class="cls-60" d="M3.82,11.74a.21.21,0,0,1-.14-.06.2.2,0,0,1-.06-.14.21.21,0,0,1,.06-.14.21.21,0,0,1,.29,0,.2.2,0,0,1-.14.35Z"/><path class="cls-61" d="M3.61,10.83a.2.2,0,0,1,.2-.2h0a.2.2,0,0,1,.2.2H4a.2.2,0,0,1-.2.2h0A.2.2,0,0,1,3.61,10.83Z"/><path class="cls-62" d="M3.82,10.33A.2.2,0,0,1,3.67,10,.21.21,0,0,1,4,10a.2.2,0,0,1-.14.35Z"/><path class="cls-63" d="M4.32,10.13a.2.2,0,0,1,.2-.2h0a.2.2,0,0,1,.2.2h0a.2.2,0,0,1-.2.2h0A.2.2,0,0,1,4.32,10.13Z"/><path class="cls-64" d="M5.23,10.33a.21.21,0,0,1-.14-.06.2.2,0,0,1,0-.29.21.21,0,0,1,.29,0,.2.2,0,0,1-.14.35Z"/><path class="cls-65" d="M5,10.83a.2.2,0,0,1,.2-.2h0a.2.2,0,0,1,.2.2h0a.2.2,0,0,1-.2.2h0A.2.2,0,0,1,5,10.83Z"/><path class="cls-66" d="M5.23,11.74a.21.21,0,0,1-.14-.06A.2.2,0,0,1,5,11.54a.21.21,0,0,1,.06-.14.21.21,0,0,1,.29,0,.2.2,0,0,1-.14.35Z"/><path class="cls-67" d="M4.32,11.54a.2.2,0,0,1,.2-.2h0a.2.2,0,0,1,.2.2h0a.2.2,0,0,1-.2.2h0A.2.2,0,0,1,4.32,11.54Z"/><path class="cls-68" d="M10.65,12.6H7.53a.2.2,0,0,1-.2-.2V9.27a.2.2,0,0,1,.2-.2h3.13a.2.2,0,0,1,.2.2V12.4A.2.2,0,0,1,10.65,12.6Zm-2.93-.4h2.73V9.47H7.73Z"/><path class="cls-69" d="M12.23,12.6h-.14a.2.2,0,0,1-.2-.2V11a.2.2,0,0,1,.4,0V12.2a.2.2,0,0,1-.06.39Z"/><path class="cls-70" d="M6.09,17.5H3a.2.2,0,0,1-.2-.2V14.17A.2.2,0,0,1,3,14H6.09a.2.2,0,0,1,.2.2V17.3A.2.2,0,0,1,6.09,17.5Zm-2.93-.4H5.88V14.37H3.16Z"/><path class="cls-71" d="M10.65,17.5a.2.2,0,0,1-.14-.34.21.21,0,0,1,.28,0,.2.2,0,0,1,.06.14.2.2,0,0,1-.2.2Z"/><path class="cls-72" d="M9.41,17.3a.2.2,0,0,1,.2-.2h0a.2.2,0,0,1,.2.2h0a.2.2,0,0,1-.2.2h0A.2.2,0,0,1,9.41,17.3Zm-1,0a.2.2,0,0,1,.2-.2h0a.2.2,0,0,1,.2.2h0a.2.2,0,0,1-.2.2h0A.2.2,0,0,1,8.37,17.3Z"/><path class="cls-73" d="M7.52,17.5a.2.2,0,0,1-.14-.34.21.21,0,0,1,.28,0,.2.2,0,0,1,.06.14.2.2,0,0,1-.2.2Z"/><path class="cls-74" d="M7.32,16.26a.2.2,0,0,1,.2-.2h0a.2.2,0,0,1,.2.2h0a.2.2,0,0,1-.2.2h0A.2.2,0,0,1,7.32,16.26Zm0-1a.2.2,0,0,1,.2-.2h0a.2.2,0,0,1,.2.2h0a.2.2,0,0,1-.2.2h0A.2.2,0,0,1,7.32,15.21Z"/><path class="cls-75" d="M7.52,14.37a.2.2,0,0,1-.14-.06.21.21,0,0,1-.06-.14A.2.2,0,0,1,7.38,14a.21.21,0,0,1,.29,0,.2.2,0,0,1,.06.14.2.2,0,0,1-.2.2Z"/><path class="cls-76" d="M9.41,14.17a.2.2,0,0,1,.2-.2h0a.2.2,0,0,1,.2.2h0a.2.2,0,0,1-.2.2h0A.2.2,0,0,1,9.41,14.17Zm-1,0a.2.2,0,0,1,.2-.2h0a.2.2,0,0,1,.2.2h0a.2.2,0,0,1-.2.2h0A.2.2,0,0,1,8.37,14.17Z"/><path class="cls-77" d="M10.65,14.37a.2.2,0,0,1-.2-.2.2.2,0,0,1,.06-.14.21.21,0,0,1,.29,0,.2.2,0,0,1,.06.14.2.2,0,0,1-.06.14A.2.2,0,0,1,10.65,14.37Z"/><path class="cls-78" d="M10.45,16.26a.2.2,0,0,1,.2-.2h0a.2.2,0,0,1,.2.2h0a.2.2,0,0,1-.2.2h0A.2.2,0,0,1,10.45,16.26Zm0-1a.2.2,0,0,1,.2-.2h0a.2.2,0,0,1,.2.2h0a.2.2,0,0,1-.2.2h0A.2.2,0,0,1,10.45,15.21Z"/><path class="cls-79" d="M13.31,17.5H12.09a.2.2,0,0,1-.2-.2V14.17a.2.2,0,0,1,.2-.2h.85a.2.2,0,0,1,0,.4h-.64V17.1h1a.2.2,0,1,1,0,.4Z"/><path class="cls-80" d="M3,22.41a.2.2,0,0,1-.2-.2V19.08a.2.2,0,0,1,.2-.2H6.09a.2.2,0,0,1,0,.4H3.16V22.2A.2.2,0,0,1,3,22.41Z"/><path class="cls-81" d="M6.09,19.28a.2.2,0,0,1-.14-.35.21.21,0,0,1,.29,0,.2.2,0,0,1,0,.29A.21.21,0,0,1,6.09,19.28Z"/><path class="cls-82" d="M5.88,21.16a.2.2,0,0,1,.2-.2h0a.2.2,0,0,1,.2.2h0a.2.2,0,0,1-.2.2h0A.2.2,0,0,1,5.88,21.16Zm0-1a.2.2,0,0,1,.2-.2h0a.2.2,0,0,1,.2.2h0a.2.2,0,0,1-.2.2h0A.2.2,0,0,1,5.88,20.12Z"/><path class="cls-83" d="M6.09,22.41a.2.2,0,0,1-.14-.06.2.2,0,0,1,0-.29.21.21,0,0,1,.29,0,.2.2,0,0,1-.14.35Z"/><path class="cls-84" d="M4.84,22.2A.2.2,0,0,1,5,22H5a.2.2,0,0,1,.2.2h0a.2.2,0,0,1-.2.2H5A.2.2,0,0,1,4.84,22.2Zm-1,0A.2.2,0,0,1,4,22H4a.2.2,0,0,1,.2.2h0a.2.2,0,0,1-.2.2H4A.2.2,0,0,1,3.8,22.2Z"/><path class="cls-85" d="M3,22.41a.2.2,0,0,1-.14-.06.2.2,0,0,1,0-.29.21.21,0,0,1,.29,0,.2.2,0,0,1-.14.35Z"/><path class="cls-86" d="M7.53,22.07a.2.2,0,0,1-.2-.2v-2.8a.2.2,0,0,1,.2-.2h2.8a.2.2,0,0,1,0,.4H7.73v2.6A.2.2,0,0,1,7.53,22.07Z"/><path class="cls-87" d="M15.22,22.41H12.09a.2.2,0,0,1-.2-.2v-.9a.2.2,0,1,1,.4,0V22H15V19.28H13.11a.2.2,0,1,1,0-.4h2.12a.2.2,0,0,1,.2.2V22.2A.2.2,0,0,1,15.22,22.41Z"/><path class="cls-88" d="M22.32,22.41a.2.2,0,0,1-.2-.2.21.21,0,0,1,.06-.14.2.2,0,0,1,.35.14.2.2,0,0,1-.2.2Z"/><path class="cls-89" d="M21.25,22.2a.2.2,0,0,1,.2-.2h0a.2.2,0,0,1,.2.2h0a.2.2,0,0,1-.2.2h0A.2.2,0,0,1,21.25,22.2Zm-.87,0a.2.2,0,0,1,.2-.2h0a.2.2,0,0,1,.2.2h0a.2.2,0,0,1-.2.2h0A.2.2,0,0,1,20.38,22.2Zm-.87,0a.2.2,0,0,1,.2-.2h0a.2.2,0,0,1,.2.2h0a.2.2,0,0,1-.2.2h0A.2.2,0,0,1,19.51,22.2Zm-.87,0a.2.2,0,0,1,.2-.2h0a.2.2,0,0,1,.2.2h0a.2.2,0,0,1-.2.2h0A.2.2,0,0,1,18.64,22.2Zm-.87,0A.2.2,0,0,1,18,22h0a.2.2,0,0,1,.2.2h0a.2.2,0,0,1-.2.2h0A.2.2,0,0,1,17.77,22.2Z"/><path class="cls-90" d="M17.11,22.41a.2.2,0,0,1-.14-.06.2.2,0,0,1,0-.29.21.21,0,0,1,.28,0,.2.2,0,0,1,0,.29A.2.2,0,0,1,17.11,22.41Z"/><path class="cls-91" d="M31.74,22.41H22.32a.2.2,0,0,1,0-.4h9.42a.2.2,0,0,1,0,.4Z"/><path class="cls-92" d="M28.61,21.53H17.11a.2.2,0,0,1,0-.4H28.61a.2.2,0,1,1,0,.4Z"/><path class="cls-93" d="M31.74,21.53a.2.2,0,0,1-.2-.2.2.2,0,0,1,.06-.14.21.21,0,0,1,.29,0,.2.2,0,0,1-.14.34Z"/><path class="cls-94" d="M30.5,21.33a.2.2,0,0,1,.2-.2h0a.2.2,0,0,1,.2.2h0a.2.2,0,0,1-.2.2h0A.2.2,0,0,1,30.5,21.33Zm-1,0a.2.2,0,0,1,.2-.2h0a.2.2,0,0,1,.2.2h0a.2.2,0,0,1-.2.2h0A.2.2,0,0,1,29.45,21.33Z"/><path class="cls-95" d="M28.61,21.53a.2.2,0,0,1-.2-.2.2.2,0,0,1,.06-.14.21.21,0,0,1,.29,0,.2.2,0,0,1-.14.34Z"/><path class="cls-96" d="M19,20.66H17.11a.2.2,0,0,1,0-.4H19a.2.2,0,0,1,0,.4Z"/><path class="cls-97" d="M26.53,20.66a.2.2,0,0,1-.14-.35.21.21,0,0,1,.29,0,.2.2,0,0,1-.14.35Z"/><path class="cls-98" d="M25.38,20.46a.2.2,0,0,1,.2-.2h0a.2.2,0,0,1,.2.2h0a.2.2,0,0,1-.2.2h0A.2.2,0,0,1,25.38,20.46Zm-.95,0a.2.2,0,0,1,.2-.2h0a.2.2,0,0,1,.2.2h0a.2.2,0,0,1-.2.2h0A.2.2,0,0,1,24.43,20.46Zm-.95,0a.2.2,0,0,1,.2-.2h0a.2.2,0,0,1,.2.2h0a.2.2,0,0,1-.2.2h0A.2.2,0,0,1,23.49,20.46Zm-.95,0a.2.2,0,0,1,.2-.2h0a.2.2,0,0,1,.2.2h0a.2.2,0,0,1-.2.2h0A.2.2,0,0,1,22.54,20.46Zm-.95,0a.2.2,0,0,1,.2-.2h0a.2.2,0,0,1,.2.2h0a.2.2,0,0,1-.2.2h0A.2.2,0,0,1,21.59,20.46Zm-.95,0a.2.2,0,0,1,.2-.2h0a.2.2,0,0,1,.2.2h0a.2.2,0,0,1-.2.2h0A.2.2,0,0,1,20.65,20.46Zm-.95,0a.2.2,0,0,1,.2-.2h0a.2.2,0,0,1,.2.2h0a.2.2,0,0,1-.2.2h0A.2.2,0,0,1,19.7,20.46Z"/><path class="cls-99" d="M19,20.66a.2.2,0,0,1-.14-.35.21.21,0,0,1,.29,0,.2.2,0,0,1,0,.29A.21.21,0,0,1,19,20.66Z"/><path class="cls-100" d="M31.74,20.66H26.53a.2.2,0,0,1,0-.4h5.22a.2.2,0,0,1,0,.4Z"/><path class="cls-101" d="M32,7.13a.79.79,0,1,1,.79-.79A.79.79,0,0,1,32,7.13ZM32,6a.39.39,0,1,0,.39.39A.39.39,0,0,0,32,6Z"/></g></g></svg>