<svg xmlns="http://www.w3.org/2000/svg" xmlns:xlink="http://www.w3.org/1999/xlink" viewBox="0 0 32.4 29.06"><defs><style>.cls-1{fill:url(#linear-gradient);}.cls-2{fill:url(#linear-gradient-2);}.cls-3{fill:url(#linear-gradient-3);}.cls-4{fill:url(#linear-gradient-4);}.cls-5{fill:url(#linear-gradient-5);}.cls-6{fill:url(#linear-gradient-6);}.cls-7{fill:url(#linear-gradient-7);}.cls-8{fill:url(#linear-gradient-8);}.cls-9{fill:url(#linear-gradient-9);}.cls-10{fill:url(#linear-gradient-10);}.cls-11{fill:url(#linear-gradient-11);}.cls-12{fill:url(#linear-gradient-12);}.cls-13{fill:url(#linear-gradient-13);}.cls-14{fill:url(#linear-gradient-14);}.cls-15{fill:url(#linear-gradient-15);}.cls-16{fill:url(#linear-gradient-16);}.cls-17{fill:url(#linear-gradient-17);}.cls-18{fill:url(#linear-gradient-18);}.cls-19{fill:url(#linear-gradient-19);}.cls-20{fill:url(#linear-gradient-20);}.cls-21{fill:url(#linear-gradient-21);}.cls-22{fill:url(#linear-gradient-22);}.cls-23{fill:url(#linear-gradient-23);}.cls-24{fill:url(#linear-gradient-24);}.cls-25{fill:url(#linear-gradient-25);}.cls-26{fill:url(#linear-gradient-26);}.cls-27{fill:url(#linear-gradient-27);}.cls-28{fill:url(#linear-gradient-28);}.cls-29{fill:url(#linear-gradient-29);}.cls-30{fill:url(#linear-gradient-30);}.cls-31{fill:url(#linear-gradient-31);}.cls-32{fill:url(#linear-gradient-32);}.cls-33{fill:url(#linear-gradient-33);}.cls-34{fill:url(#linear-gradient-34);}.cls-35{fill:url(#linear-gradient-35);}.cls-36{fill:url(#linear-gradient-36);}.cls-37{fill:url(#linear-gradient-37);}.cls-38{fill:url(#linear-gradient-38);}.cls-39{fill:url(#linear-gradient-39);}.cls-40{fill:url(#linear-gradient-40);}.cls-41{fill:url(#linear-gradient-41);}.cls-42{fill:url(#linear-gradient-42);}.cls-43{fill:url(#linear-gradient-43);}.cls-44{fill:url(#linear-gradient-44);}.cls-45{fill:url(#linear-gradient-45);}.cls-46{fill:url(#linear-gradient-46);}.cls-47{fill:url(#linear-gradient-47);}.cls-48{fill:url(#linear-gradient-48);}.cls-49{fill:url(#linear-gradient-49);}.cls-50{fill:url(#linear-gradient-50);}.cls-51{fill:url(#linear-gradient-51);}.cls-52{fill:url(#linear-gradient-52);}.cls-53{fill:url(#linear-gradient-53);}.cls-54{fill:url(#linear-gradient-54);}.cls-55{fill:url(#linear-gradient-55);}.cls-56{fill:url(#linear-gradient-56);}.cls-57{fill:url(#linear-gradient-57);}.cls-58{fill:url(#linear-gradient-58);}.cls-59{fill:url(#linear-gradient-59);}.cls-60{fill:url(#linear-gradient-60);}.cls-61{fill:url(#linear-gradient-61);}.cls-62{fill:url(#linear-gradient-62);}.cls-63{fill:url(#linear-gradient-63);}.cls-64{fill:url(#linear-gradient-64);}.cls-65{fill:url(#linear-gradient-65);}.cls-66{fill:url(#linear-gradient-66);}.cls-67{fill:url(#linear-gradient-67);}.cls-68{fill:url(#linear-gradient-68);}.cls-69{fill:url(#linear-gradient-69);}.cls-70{fill:url(#linear-gradient-70);}.cls-71{fill:url(#linear-gradient-71);}.cls-72{fill:url(#linear-gradient-72);}.cls-73{fill:url(#linear-gradient-73);}.cls-74{fill:url(#linear-gradient-74);}.cls-75{fill:url(#linear-gradient-75);}.cls-76{fill:url(#linear-gradient-76);}.cls-77{fill:url(#linear-gradient-77);}.cls-78{fill:url(#linear-gradient-78);}</style><linearGradient id="linear-gradient" x1="860.86" y1="-115.37" x2="833.86" y2="76.63" gradientTransform="translate(-815.92 -49.51)" gradientUnits="userSpaceOnUse"><stop offset="0" stop-color="#29abe2"/><stop offset="1" stop-color="#4f00bc"/></linearGradient><linearGradient id="linear-gradient-2" x1="860.86" y1="-115.37" x2="833.86" y2="76.63" xlink:href="#linear-gradient"/><linearGradient id="linear-gradient-3" x1="860.86" y1="-115.37" x2="833.86" y2="76.63" xlink:href="#linear-gradient"/><linearGradient id="linear-gradient-4" x1="860.86" y1="-115.37" x2="833.86" y2="76.63" xlink:href="#linear-gradient"/><linearGradient id="linear-gradient-5" x1="860.86" y1="-115.37" x2="833.86" y2="76.63" xlink:href="#linear-gradient"/><linearGradient id="linear-gradient-6" x1="862.74" y1="-115.11" x2="835.74" y2="76.89" xlink:href="#linear-gradient"/><linearGradient id="linear-gradient-7" x1="858.99" y1="-115.63" x2="831.99" y2="76.37" xlink:href="#linear-gradient"/><linearGradient id="linear-gradient-8" x1="863.35" y1="-115.02" x2="836.35" y2="76.98" xlink:href="#linear-gradient"/><linearGradient id="linear-gradient-9" x1="858.37" y1="-115.72" x2="831.37" y2="76.28" xlink:href="#linear-gradient"/><linearGradient id="linear-gradient-10" x1="863.95" y1="-114.94" x2="836.95" y2="77.06" xlink:href="#linear-gradient"/><linearGradient id="linear-gradient-11" x1="857.77" y1="-115.8" x2="830.77" y2="76.2" xlink:href="#linear-gradient"/><linearGradient id="linear-gradient-12" x1="861.3" y1="-115.31" x2="834.3" y2="76.69" xlink:href="#linear-gradient"/><linearGradient id="linear-gradient-13" x1="860.43" y1="-115.43" x2="833.43" y2="76.57" xlink:href="#linear-gradient"/><linearGradient id="linear-gradient-14" x1="863.54" y1="-114.99" x2="836.54" y2="77.01" xlink:href="#linear-gradient"/><linearGradient id="linear-gradient-15" x1="858.19" y1="-115.75" x2="831.19" y2="76.25" xlink:href="#linear-gradient"/><linearGradient id="linear-gradient-16" x1="862.47" y1="-115.14" x2="835.47" y2="76.86" xlink:href="#linear-gradient"/><linearGradient id="linear-gradient-17" x1="859.26" y1="-115.6" x2="832.26" y2="76.4" xlink:href="#linear-gradient"/><linearGradient id="linear-gradient-18" x1="863.89" y1="-114.94" x2="836.89" y2="77.06" xlink:href="#linear-gradient"/><linearGradient id="linear-gradient-19" x1="857.84" y1="-115.8" x2="830.84" y2="76.2" xlink:href="#linear-gradient"/><linearGradient id="linear-gradient-20" x1="860.1" y1="-115.48" x2="833.1" y2="76.52" xlink:href="#linear-gradient"/><linearGradient id="linear-gradient-21" x1="861.62" y1="-115.26" x2="834.62" y2="76.74" xlink:href="#linear-gradient"/><linearGradient id="linear-gradient-22" x1="860.86" y1="-115.37" x2="833.86" y2="76.63" xlink:href="#linear-gradient"/><linearGradient id="linear-gradient-23" x1="860.86" y1="-115.37" x2="833.86" y2="76.63" xlink:href="#linear-gradient"/><linearGradient id="linear-gradient-24" x1="850.25" y1="-116.86" x2="823.25" y2="75.14" xlink:href="#linear-gradient"/><linearGradient id="linear-gradient-25" x1="849.26" y1="-117" x2="822.26" y2="75" xlink:href="#linear-gradient"/><linearGradient id="linear-gradient-26" x1="848.27" y1="-117.14" x2="821.27" y2="74.86" xlink:href="#linear-gradient"/><linearGradient id="linear-gradient-27" x1="849.1" y1="-117.02" x2="822.1" y2="74.98" xlink:href="#linear-gradient"/><linearGradient id="linear-gradient-28" x1="854.26" y1="-116.3" x2="827.26" y2="75.7" xlink:href="#linear-gradient"/><linearGradient id="linear-gradient-29" x1="853.39" y1="-116.42" x2="826.39" y2="75.58" xlink:href="#linear-gradient"/><linearGradient id="linear-gradient-30" x1="846.39" y1="-117.41" x2="819.39" y2="74.59" xlink:href="#linear-gradient"/><linearGradient id="linear-gradient-31" x1="862.69" y1="-115.11" x2="835.69" y2="76.89" xlink:href="#linear-gradient"/><linearGradient id="linear-gradient-32" x1="846.18" y1="-117.43" x2="819.18" y2="74.57" xlink:href="#linear-gradient"/><linearGradient id="linear-gradient-33" x1="846.51" y1="-117.39" x2="819.51" y2="74.61" xlink:href="#linear-gradient"/><linearGradient id="linear-gradient-34" x1="870.72" y1="-113.98" x2="843.72" y2="78.02" xlink:href="#linear-gradient"/><linearGradient id="linear-gradient-35" x1="846.69" y1="-117.36" x2="819.69" y2="74.64" xlink:href="#linear-gradient"/><linearGradient id="linear-gradient-36" x1="844.28" y1="-117.7" x2="817.28" y2="74.3" xlink:href="#linear-gradient"/><linearGradient id="linear-gradient-37" x1="843.69" y1="-117.78" x2="816.69" y2="74.22" xlink:href="#linear-gradient"/><linearGradient id="linear-gradient-38" x1="843.59" y1="-117.8" x2="816.59" y2="74.2" xlink:href="#linear-gradient"/><linearGradient id="linear-gradient-39" x1="843.49" y1="-117.81" x2="816.49" y2="74.19" xlink:href="#linear-gradient"/><linearGradient id="linear-gradient-40" x1="844.19" y1="-117.72" x2="817.19" y2="74.28" xlink:href="#linear-gradient"/><linearGradient id="linear-gradient-41" x1="844.88" y1="-117.62" x2="817.88" y2="74.38" xlink:href="#linear-gradient"/><linearGradient id="linear-gradient-42" x1="844.98" y1="-117.6" x2="817.98" y2="74.4" xlink:href="#linear-gradient"/><linearGradient id="linear-gradient-43" x1="845.07" y1="-117.59" x2="818.07" y2="74.41" xlink:href="#linear-gradient"/><linearGradient id="linear-gradient-44" x1="844.38" y1="-117.69" x2="817.38" y2="74.31" xlink:href="#linear-gradient"/><linearGradient id="linear-gradient-45" x1="848.76" y1="-117.07" x2="821.76" y2="74.93" xlink:href="#linear-gradient"/><linearGradient id="linear-gradient-46" x1="851.9" y1="-116.63" x2="824.9" y2="75.37" xlink:href="#linear-gradient"/><linearGradient id="linear-gradient-47" x1="844.96" y1="-117.61" x2="817.96" y2="74.39" xlink:href="#linear-gradient"/><linearGradient id="linear-gradient-48" x1="851.19" y1="-116.73" x2="824.19" y2="75.27" xlink:href="#linear-gradient"/><linearGradient id="linear-gradient-49" x1="849.66" y1="-116.95" x2="822.66" y2="75.05" xlink:href="#linear-gradient"/><linearGradient id="linear-gradient-50" x1="848.12" y1="-117.16" x2="821.12" y2="74.84" xlink:href="#linear-gradient"/><linearGradient id="linear-gradient-51" x1="847.91" y1="-117.19" x2="820.91" y2="74.81" xlink:href="#linear-gradient"/><linearGradient id="linear-gradient-52" x1="847.69" y1="-117.22" x2="820.69" y2="74.78" xlink:href="#linear-gradient"/><linearGradient id="linear-gradient-53" x1="849.22" y1="-117.01" x2="822.22" y2="74.99" xlink:href="#linear-gradient"/><linearGradient id="linear-gradient-54" x1="850.76" y1="-116.79" x2="823.76" y2="75.21" xlink:href="#linear-gradient"/><linearGradient id="linear-gradient-55" x1="850.97" y1="-116.76" x2="823.97" y2="75.24" xlink:href="#linear-gradient"/><linearGradient id="linear-gradient-56" x1="852.98" y1="-116.48" x2="825.98" y2="75.52" xlink:href="#linear-gradient"/><linearGradient id="linear-gradient-57" x1="845.42" y1="-117.54" x2="818.42" y2="74.46" xlink:href="#linear-gradient"/><linearGradient id="linear-gradient-58" x1="846.96" y1="-117.33" x2="819.96" y2="74.67" xlink:href="#linear-gradient"/><linearGradient id="linear-gradient-59" x1="847.17" y1="-117.3" x2="820.17" y2="74.7" xlink:href="#linear-gradient"/><linearGradient id="linear-gradient-60" x1="847.39" y1="-117.27" x2="820.39" y2="74.74" xlink:href="#linear-gradient"/><linearGradient id="linear-gradient-61" x1="845.85" y1="-117.48" x2="818.85" y2="74.52" xlink:href="#linear-gradient"/><linearGradient id="linear-gradient-62" x1="844.32" y1="-117.7" x2="817.32" y2="74.3" xlink:href="#linear-gradient"/><linearGradient id="linear-gradient-63" x1="849.74" y1="-116.93" x2="822.74" y2="75.07" xlink:href="#linear-gradient"/><linearGradient id="linear-gradient-64" x1="854.75" y1="-116.23" x2="827.75" y2="75.77" xlink:href="#linear-gradient"/><linearGradient id="linear-gradient-65" x1="863.31" y1="-115.03" x2="836.31" y2="76.97" xlink:href="#linear-gradient"/><linearGradient id="linear-gradient-66" x1="860.75" y1="-115.39" x2="833.75" y2="76.61" xlink:href="#linear-gradient"/><linearGradient id="linear-gradient-67" x1="858.19" y1="-115.75" x2="831.19" y2="76.25" xlink:href="#linear-gradient"/><linearGradient id="linear-gradient-68" x1="867.93" y1="-114.38" x2="840.93" y2="77.62" xlink:href="#linear-gradient"/><linearGradient id="linear-gradient-69" x1="863.71" y1="-114.97" x2="836.71" y2="77.03" xlink:href="#linear-gradient"/><linearGradient id="linear-gradient-70" x1="872.42" y1="-113.74" x2="845.42" y2="78.26" xlink:href="#linear-gradient"/><linearGradient id="linear-gradient-71" x1="870.89" y1="-113.96" x2="843.89" y2="78.04" xlink:href="#linear-gradient"/><linearGradient id="linear-gradient-72" x1="869.36" y1="-114.18" x2="842.36" y2="77.82" xlink:href="#linear-gradient"/><linearGradient id="linear-gradient-73" x1="858.86" y1="-115.65" x2="831.86" y2="76.35" xlink:href="#linear-gradient"/><linearGradient id="linear-gradient-74" x1="867.19" y1="-114.48" x2="840.19" y2="77.52" xlink:href="#linear-gradient"/><linearGradient id="linear-gradient-75" x1="863.48" y1="-115" x2="836.48" y2="77" xlink:href="#linear-gradient"/><linearGradient id="linear-gradient-76" x1="859.77" y1="-115.52" x2="832.77" y2="76.48" xlink:href="#linear-gradient"/><linearGradient id="linear-gradient-77" x1="869.75" y1="-114.12" x2="842.75" y2="77.88" xlink:href="#linear-gradient"/><linearGradient id="linear-gradient-78" x1="870.64" y1="-114" x2="843.64" y2="78" xlink:href="#linear-gradient"/></defs><title>Asset 19</title><g id="Layer_2" data-name="Layer 2"><g id="_ÎÓÈ_1" data-name="—ÎÓÈ_1"><path class="cls-1" d="M21.57,19.66H19.19a.2.2,0,0,1-.2-.19l0-.79c-.25,0-.51-.09-.76-.16l-.35.71a.2.2,0,0,1-.26.1l-2.19-.94a.2.2,0,0,1-.11-.26l.28-.74-.43-.29-.58.53a.2.2,0,0,1-.28,0l-1.68-1.68a.2.2,0,0,1,0-.28l.53-.58c-.15-.21-.29-.42-.43-.65l-.75.26a.2.2,0,0,1-.25-.12l-.88-2.21a.2.2,0,0,1,.1-.26l.72-.33c0-.17-.07-.34-.1-.51l-.79,0a.2.2,0,0,1-.19-.2V8.64a.2.2,0,0,1,.19-.2l.79,0c0-.25.09-.51.16-.76L11,7.3a.2.2,0,0,1-.1-.26l.94-2.19a.2.2,0,0,1,.26-.11l.74.28.29-.43L12.58,4a.2.2,0,0,1,0-.28L14.27,2a.2.2,0,0,1,.28,0l.58.53c.21-.15.42-.29.65-.43l-.26-.75a.2.2,0,0,1,.12-.25L17.85.26a.2.2,0,0,1,.26.1l.33.72.51-.1,0-.79a.2.2,0,0,1,.2-.19h2.38a.2.2,0,0,1,.2.19l0,.79c.25,0,.51.09.76.16l.35-.71a.2.2,0,0,1,.26-.1l2.19.94a.2.2,0,0,1,.11.26l-.28.74.43.29L26.21,2a.2.2,0,0,1,.28,0l1.68,1.68a.2.2,0,0,1,0,.28l-.53.58c.15.21.29.42.43.65L28.81,5a.2.2,0,0,1,.25.12l.88,2.21a.2.2,0,0,1-.1.26l-.72.33c0,.17.07.34.1.51l.79,0a.2.2,0,0,1,.19.2V11a.2.2,0,0,1-.19.2l-.79,0c0,.25-.09.51-.16.76l.71.35a.2.2,0,0,1,.1.26l-.94,2.19a.2.2,0,0,1-.26.11l-.74-.28-.29.43.53.58a.2.2,0,0,1,0,.28l-1.68,1.68a.2.2,0,0,1-.28,0l-.58-.53c-.21.15-.43.29-.65.43l.26.75a.2.2,0,0,1-.12.25l-2.21.88a.2.2,0,0,1-.26-.1l-.33-.72-.51.1,0,.79A.2.2,0,0,1,21.57,19.66Zm-2.19-.4h2l0-.76a.2.2,0,0,1,.17-.19c.27,0,.54-.09.81-.15a.2.2,0,0,1,.23.11l.31.7,1.85-.74-.25-.72a.2.2,0,0,1,.09-.24,8.52,8.52,0,0,0,.88-.58.2.2,0,0,1,.26,0l.56.52,1.41-1.41-.52-.56a.2.2,0,0,1,0-.26c.16-.22.32-.45.46-.68a.2.2,0,0,1,.24-.08l.71.27.79-1.83-.69-.33a.2.2,0,0,1-.11-.23,8.62,8.62,0,0,0,.21-1,.2.2,0,0,1,.19-.17l.76,0v-2l-.76,0a.2.2,0,0,1-.19-.17c0-.27-.09-.54-.15-.81a.2.2,0,0,1,.11-.23l.7-.31-.74-1.85L28,5.67a.2.2,0,0,1-.24-.09,8.52,8.52,0,0,0-.58-.88.2.2,0,0,1,0-.26l.52-.56L26.34,2.46,25.77,3a.2.2,0,0,1-.26,0c-.22-.16-.45-.32-.68-.46a.2.2,0,0,1-.08-.24L25,1.57,23.19.78l-.33.69a.2.2,0,0,1-.23.11,8.57,8.57,0,0,0-1-.21.2.2,0,0,1-.17-.19l0-.76h-2l0,.76a.2.2,0,0,1-.17.19c-.27,0-.54.09-.81.15a.2.2,0,0,1-.23-.11L17.82.7,16,1.44l.25.72a.2.2,0,0,1-.09.24,8.58,8.58,0,0,0-.88.58A.2.2,0,0,1,15,3l-.56-.52L13,3.87l.52.56a.2.2,0,0,1,0,.26c-.16.22-.32.45-.46.68a.2.2,0,0,1-.24.08l-.71-.27L11.33,7l.69.33a.2.2,0,0,1,.11.23,8.59,8.59,0,0,0-.21,1,.2.2,0,0,1-.19.17l-.76,0v2l.76,0a.2.2,0,0,1,.19.17c0,.27.09.54.15.81a.2.2,0,0,1-.11.23l-.7.31L12,14.24l.72-.25a.2.2,0,0,1,.24.09,8.53,8.53,0,0,0,.58.88.2.2,0,0,1,0,.26l-.52.56,1.41,1.41.56-.52a.2.2,0,0,1,.26,0c.22.16.45.32.68.46a.2.2,0,0,1,.08.24l-.27.71,1.83.79.33-.69a.2.2,0,0,1,.23-.11,8.6,8.6,0,0,0,1,.21.2.2,0,0,1,.17.19Z"/><path class="cls-2" d="M20.38,16.85a7,7,0,1,1,5-2.06A7,7,0,0,1,20.38,16.85Zm0-13.65a6.62,6.62,0,1,0,4.68,1.94A6.58,6.58,0,0,0,20.38,3.2Z"/><path class="cls-3" d="M20.19,15.55a.2.2,0,0,1,.2-.2h0a.2.2,0,0,1,.2.2h0a.2.2,0,0,1-.2.2h0A.2.2,0,0,1,20.19,15.55Zm-.72.13a.2.2,0,0,1-.17-.23h0a.2.2,0,0,1,.23-.17h0a.2.2,0,0,1,.17.23h0a.2.2,0,0,1-.2.17h0Zm1.62-.17a.2.2,0,0,1,.17-.23h0a.2.2,0,0,1,.23.17h0a.2.2,0,0,1-.17.23h0A.2.2,0,0,1,21.09,15.51Zm-2.53,0a.2.2,0,0,1-.13-.25h0a.2.2,0,0,1,.25-.13h0a.2.2,0,0,1,.13.25h0a.2.2,0,0,1-.19.14h-.06ZM22,15.33a.2.2,0,0,1,.13-.25h0a.2.2,0,0,1,.25.13h0a.2.2,0,0,1-.13.26h-.06A.2.2,0,0,1,22,15.33Zm-4.27-.21a.2.2,0,0,1-.09-.27h0a.2.2,0,0,1,.27-.09h0A.2.2,0,0,1,18,15h0a.2.2,0,0,1-.18.11h0Zm5.11-.1a.2.2,0,0,1,.09-.27h0a.2.2,0,0,1,.27.09h0a.2.2,0,0,1-.09.27h0l-.09,0h0A.2.2,0,0,1,22.81,15Zm-5.91-.38a.2.2,0,0,1,0-.28h0a.2.2,0,0,1,.28,0h0a.2.2,0,0,1,0,.28h0a.2.2,0,0,1-.16.08h0A.21.21,0,0,1,16.9,14.64Zm6.69-.06a.2.2,0,0,1,0-.28h0a.2.2,0,0,1,.28,0h0a.2.2,0,0,1,0,.28h0a.2.2,0,0,1-.12,0h0A.2.2,0,0,1,23.59,14.57ZM16.2,14h0a.2.2,0,0,1,0-.29h0a.2.2,0,0,1,.29,0h0a.2.2,0,0,1,0,.29h0a.2.2,0,0,1-.14.06h0A.2.2,0,0,1,16.2,14Zm8.1,0a.2.2,0,0,1,0-.29h0a.2.2,0,0,1,.29,0h0a.2.2,0,0,1,0,.29h0a.2.2,0,0,1-.14.06h0A.2.2,0,0,1,24.3,14Zm-8.72-.7a.2.2,0,0,1,0-.28h0a.2.2,0,0,1,.28,0h0a.2.2,0,0,1,0,.28h0a.21.21,0,0,1-.12,0h0A.2.2,0,0,1,15.58,13.31Zm9.32,0a.2.2,0,0,1,0-.28h0a.2.2,0,0,1,.28,0h0a.2.2,0,0,1,0,.28h0a.2.2,0,0,1-.16.08h0A.2.2,0,0,1,24.9,13.35Zm-9.81-.83h0a.2.2,0,0,1,.09-.27h0a.2.2,0,0,1,.27.09h0a.2.2,0,0,1-.09.27h0l-.09,0h0A.2.2,0,0,1,15.09,12.52Zm10.3.08a.2.2,0,0,1-.09-.27h0a.2.2,0,0,1,.27-.09h0a.2.2,0,0,1,.09.27h0a.2.2,0,0,1-.18.11h0Zm-10.66-.94a.2.2,0,0,1,.13-.25h0a.2.2,0,0,1,.25.13h0a.2.2,0,0,1-.13.25h-.06A.2.2,0,0,1,14.74,11.66Zm11,.12a.2.2,0,0,1-.13-.25h0a.2.2,0,0,1,.25-.13h0a.2.2,0,0,1,.13.25h0a.2.2,0,0,1-.19.14h-.06Zm-11.25-1a.2.2,0,0,1,.17-.23h0a.2.2,0,0,1,.23.17h0a.2.2,0,0,1-.17.23h0A.2.2,0,0,1,14.52,10.76ZM26,10.91a.2.2,0,0,1-.17-.23h0a.2.2,0,0,1,.23-.17h0a.2.2,0,0,1,.17.23h0a.2.2,0,0,1-.2.17h0ZM14.45,9.83a.2.2,0,0,1,.2-.2h0a.2.2,0,0,1,.2.2h0a.2.2,0,0,1-.2.2h0A.2.2,0,0,1,14.45,9.83Zm11.45,0a.2.2,0,0,1,.2-.2h0a.2.2,0,0,1,.2.2h0a.2.2,0,0,1-.2.2h0A.2.2,0,0,1,25.9,9.82Zm0,0ZM14.69,9.13a.2.2,0,0,1-.17-.23h0a.2.2,0,0,1,.23-.17h0a.2.2,0,0,1,.17.23h0a.2.2,0,0,1-.2.17h0ZM25.83,9A.2.2,0,0,1,26,8.72h0a.2.2,0,0,1,.23.17h0a.2.2,0,0,1-.17.23h0A.2.2,0,0,1,25.83,9Zm-11-.7A.2.2,0,0,1,14.73,8h0A.2.2,0,0,1,15,7.87h0a.2.2,0,0,1,.13.25h0a.2.2,0,0,1-.19.14h-.06Zm10.77-.14a.2.2,0,0,1,.13-.25h0A.2.2,0,0,1,26,8h0a.2.2,0,0,1-.13.25h-.06A.2.2,0,0,1,25.63,8.11Zm-10.45-.7a.2.2,0,0,1-.09-.27h0A.2.2,0,0,1,15.36,7h0a.2.2,0,0,1,.09.27h0a.2.2,0,0,1-.18.11h0Zm10.12-.1h0A.2.2,0,0,1,25.39,7h0a.2.2,0,0,1,.27.09h0a.2.2,0,0,1-.09.27h0l-.09,0h0A.2.2,0,0,1,25.3,7.31Zm-9.68-.68a.2.2,0,0,1,0-.28h0a.2.2,0,0,1,.28,0h0a.2.2,0,0,1,0,.28h0a.2.2,0,0,1-.16.08h0A.2.2,0,0,1,15.62,6.63Zm9.22-.05a.2.2,0,0,1,0-.28h0a.2.2,0,0,1,.28,0h0a.2.2,0,0,1,0,.28h0a.2.2,0,0,1-.12,0h0A.2.2,0,0,1,24.84,6.57Zm-8.66-.65a.2.2,0,0,1,0-.29h0a.2.2,0,0,1,.29,0h0a.2.2,0,0,1,0,.29h0a.2.2,0,0,1-.14.06h0A.2.2,0,0,1,16.18,5.92Zm8.1,0h0a.2.2,0,0,1,0-.29h0a.2.2,0,0,1,.29,0h0a.2.2,0,0,1,0,.29h0a.2.2,0,0,1-.14.06h0A.2.2,0,0,1,24.28,5.91Zm-7.44-.6a.2.2,0,0,1,0-.28h0a.2.2,0,0,1,.28,0h0a.2.2,0,0,1,0,.28h0a.2.2,0,0,1-.12,0h0A.2.2,0,0,1,16.84,5.31Zm6.78,0h0a.2.2,0,0,1,0-.28h0a.2.2,0,0,1,.28,0h0a.2.2,0,0,1,0,.28h0a.2.2,0,0,1-.16.08h0A.2.2,0,0,1,23.62,5.35Zm-6-.53a.2.2,0,0,1,.09-.27h0a.2.2,0,0,1,.27.09h0a.2.2,0,0,1-.09.27h0l-.09,0h0A.2.2,0,0,1,17.59,4.82Zm5.29.08h0a.2.2,0,0,1-.09-.27h0a.2.2,0,0,1,.27-.09h0a.2.2,0,0,1,.09.27h0a.2.2,0,0,1-.18.11h0Zm-4.47-.45a.2.2,0,0,1,.13-.25h0a.2.2,0,0,1,.25.13h0a.2.2,0,0,1-.13.25H18.6A.2.2,0,0,1,18.41,4.44Zm3.67.12h0A.2.2,0,0,1,22,4.31h0a.2.2,0,0,1,.25-.13h0a.2.2,0,0,1,.13.25h0a.2.2,0,0,1-.19.14h-.06Zm-2.8-.36A.2.2,0,0,1,19.45,4h0a.2.2,0,0,1,.23.17h0a.2.2,0,0,1-.17.23h0A.2.2,0,0,1,19.28,4.2Zm2,.16a.2.2,0,0,1-.17-.23h0A.2.2,0,0,1,21.3,4h0a.2.2,0,0,1,.17.23h0a.2.2,0,0,1-.2.17h0ZM20.17,4.1a.2.2,0,0,1,.2-.2h0a.2.2,0,0,1,.2.2h0a.2.2,0,0,1-.2.2h0A.2.2,0,0,1,20.17,4.1Z"/><path class="cls-4" d="M20.38,14.66a4.83,4.83,0,1,1,3.42-1.41A4.8,4.8,0,0,1,20.38,14.66Zm0-9.27a4.43,4.43,0,1,0,3.13,1.3A4.4,4.4,0,0,0,20.38,5.4Z"/><path class="cls-5" d="M20.38,12.78a3,3,0,1,1,2.09-.87A2.94,2.94,0,0,1,20.38,12.78Zm0-5.51A2.55,2.55,0,1,0,22.18,8,2.54,2.54,0,0,0,20.38,7.27Z"/><path class="cls-6" d="M22.33,8.08a.2.2,0,0,1-.14-.34l.56-.56a.2.2,0,0,1,.29.29L22.47,8A.2.2,0,0,1,22.33,8.08Z"/><path class="cls-7" d="M17.87,12.54a.2.2,0,0,1-.14-.34l.56-.56a.2.2,0,1,1,.29.29l-.56.56A.2.2,0,0,1,17.87,12.54Z"/><path class="cls-8" d="M22.88,12.54a.2.2,0,0,1-.14-.06l-.56-.56a.2.2,0,0,1,.29-.29l.56.56a.2.2,0,0,1-.14.34Z"/><path class="cls-9" d="M18.43,8.08A.2.2,0,0,1,18.29,8l-.56-.56A.2.2,0,1,1,18,7.18l.56.56a.2.2,0,0,1-.14.34Z"/><path class="cls-10" d="M23.92,10h-.79a.2.2,0,0,1,0-.4h.79a.2.2,0,0,1,0,.4Z"/><path class="cls-11" d="M17.62,10h-.79a.2.2,0,1,1,0-.4h.79a.2.2,0,0,1,0,.4Z"/><path class="cls-12" d="M20.38,13.57a.2.2,0,0,1-.2-.2v-.79a.2.2,0,1,1,.4,0v.79A.2.2,0,0,1,20.38,13.57Z"/><path class="cls-13" d="M20.38,7.27a.2.2,0,0,1-.2-.2V6.28a.2.2,0,0,1,.4,0v.79A.2.2,0,0,1,20.38,7.27Z"/><path class="cls-14" d="M22.92,9a.2.2,0,0,1-.08-.39l.73-.31a.2.2,0,0,1,.16.37L23,8.94Z"/><path class="cls-15" d="M17.11,11.41A.2.2,0,0,1,17,11l.73-.31a.2.2,0,1,1,.16.37l-.73.31Z"/><path class="cls-16" d="M21.76,13.29a.2.2,0,0,1-.19-.12l-.31-.73a.2.2,0,1,1,.37-.16l.31.73a.2.2,0,0,1-.11.26Z"/><path class="cls-17" d="M19.3,7.49a.2.2,0,0,1-.19-.12l-.31-.73a.2.2,0,0,1,.37-.16l.31.73a.2.2,0,0,1-.11.26Z"/><path class="cls-18" d="M23.66,11.36h-.08l-.73-.3a.2.2,0,1,1,.15-.37l.73.3a.2.2,0,0,1-.08.39Z"/><path class="cls-19" d="M17.82,9h-.08L17,8.68a.2.2,0,0,1,.15-.37l.73.3a.2.2,0,0,1-.08.39Z"/><path class="cls-20" d="M19,13.31H19a.2.2,0,0,1-.11-.26l.3-.73a.2.2,0,1,1,.37.15l-.3.73A.2.2,0,0,1,19,13.31Z"/><path class="cls-21" d="M21.41,7.48h-.08a.2.2,0,0,1-.11-.26l.3-.73a.2.2,0,1,1,.37.15l-.3.73A.2.2,0,0,1,21.41,7.48Z"/><path class="cls-22" d="M20.14,12a.2.2,0,0,1-.18-.22h0a.2.2,0,0,1,.22-.18h0a.2.2,0,0,1,.18.22h0a.2.2,0,0,1-.2.18h0Zm.7-.23a.2.2,0,0,1,.12-.26h0a.2.2,0,0,1,.26.12h0a.2.2,0,0,1-.12.26H21A.2.2,0,0,1,20.83,11.74Zm-1.6-.08h0a.2.2,0,0,1-.06-.28h0a.2.2,0,0,1,.28-.06h0a.2.2,0,0,1,.06.28h0a.2.2,0,0,1-.17.09h0A.21.21,0,0,1,19.23,11.65Zm2.39-.3a.2.2,0,0,1,0-.28h0a.2.2,0,0,1,.29,0h0a.2.2,0,0,1,0,.29h0a.2.2,0,0,1-.14.06h0A.2.2,0,0,1,21.62,11.35ZM18.55,11h0a.2.2,0,0,1,.06-.28h0a.2.2,0,0,1,.28.06h0a.2.2,0,0,1-.06.28h0a.21.21,0,0,1-.11,0h0A.2.2,0,0,1,18.55,11Zm3.61-.32A.2.2,0,0,1,22,10.4h0a.2.2,0,0,1,.26-.13h0a.2.2,0,0,1,.13.26h0a.2.2,0,0,1-.19.14h-.07Zm-3.92-.59h0a.2.2,0,0,1,.18-.22h0a.2.2,0,0,1,.22.18h0a.2.2,0,0,1-.18.22h0A.2.2,0,0,1,18.23,10.07Zm3.88-.44a.2.2,0,0,1,.18-.22h0a.2.2,0,0,1,.22.18h0a.2.2,0,0,1-.18.22h0A.2.2,0,0,1,22.12,9.63Zm-3.65-.25a.2.2,0,0,1-.12-.26h0A.2.2,0,0,1,18.6,9h0a.2.2,0,0,1,.13.26h0a.2.2,0,0,1-.19.14h-.07Zm3.39-.48a.2.2,0,0,1,.06-.28h0a.2.2,0,0,1,.28.06h0a.2.2,0,0,1-.06.28h0A.19.19,0,0,1,22,9h0A.2.2,0,0,1,21.86,8.89Zm-3-.3a.2.2,0,0,1,0-.29h0a.2.2,0,0,1,.29,0h0a.2.2,0,0,1,0,.29h0a.2.2,0,0,1-.14.06h0A.2.2,0,0,1,18.85,8.59Zm2.46-.25a.2.2,0,0,1-.06-.28h0A.2.2,0,0,1,21.52,8h0a.2.2,0,0,1,.06.28h0a.2.2,0,0,1-.17.09h0A.2.2,0,0,1,21.31,8.34Zm-1.77-.29a.2.2,0,0,1,.12-.26h0a.2.2,0,0,1,.26.12h0a.2.2,0,0,1-.12.26h-.07A.2.2,0,0,1,19.54,8.05Zm1,0h0a.2.2,0,0,1-.18-.22h0a.2.2,0,0,1,.22-.18h0a.2.2,0,0,1,.18.22h0a.2.2,0,0,1-.2.18h0Z"/><path class="cls-23" d="M20.38,11.18a1.35,1.35,0,1,1,1-.39A1.34,1.34,0,0,1,20.38,11.18Zm0-2.29a.95.95,0,1,0,.67.28A.94.94,0,0,0,20.38,8.88Z"/><path class="cls-24" d="M7.46,24.94a.2.2,0,0,1-.14-.34.21.21,0,0,1,.29,0,.2.2,0,0,1,0,.29A.21.21,0,0,1,7.46,24.94Z"/><path class="cls-25" d="M5.56,26.65a.2.2,0,0,1,0-.29h0a.2.2,0,0,1,.29,0h0a.2.2,0,0,1,0,.29h0a.2.2,0,0,1-.14.06h0A.2.2,0,0,1,5.56,26.65Zm.59-.59a.2.2,0,0,1,0-.28h0a.2.2,0,0,1,.29,0h0a.2.2,0,0,1,0,.28h0a.2.2,0,0,1-.14.06h0A.2.2,0,0,1,6.14,26.06Zm.59-.59a.2.2,0,0,1,0-.29h0a.2.2,0,0,1,.29,0H7a.2.2,0,0,1,0,.29H7a.2.2,0,0,1-.14.06h0A.21.21,0,0,1,6.73,25.47Z"/><path class="cls-26" d="M5.11,27.29A.2.2,0,0,1,5,27.23a.2.2,0,0,1,0-.29.21.21,0,0,1,.28,0,.2.2,0,0,1,0,.29A.2.2,0,0,1,5.11,27.29Z"/><path class="cls-27" d="M3.35,29.06A.2.2,0,0,1,3.2,29l-2-2a.2.2,0,0,1,0-.29l8.14-8.14a.2.2,0,0,1,.29,0l2,2a.2.2,0,0,1,0,.29l-4,4a.2.2,0,0,1-.29-.29l3.88-3.88L9.48,19,1.63,26.86l1.71,1.71L5,26.95a.2.2,0,0,1,.29.29L3.49,29A.2.2,0,0,1,3.35,29.06Z"/><path class="cls-28" d="M10.88,20.32a.2.2,0,0,1-.14-.34l3.09-3.09a.2.2,0,0,1,.29.29L11,20.26A.2.2,0,0,1,10.88,20.32Z"/><path class="cls-29" d="M10.09,19.53a.2.2,0,0,1-.14-.34L13,16.1a.2.2,0,0,1,.29.29l-3.09,3.09A.2.2,0,0,1,10.09,19.53Z"/><path class="cls-30" d="M4.2,28.2a.2.2,0,0,1-.14-.06l-2-2a.2.2,0,0,1,.29-.29l2,2a.2.2,0,0,1-.14.34Z"/><path class="cls-31" d="M32.2,24.07H8.33a.2.2,0,0,1,0-.4H32V5.3H27.75a.2.2,0,1,1,0-.4H32.2a.2.2,0,0,1,.2.2V23.87A.2.2,0,0,1,32.2,24.07Z"/><path class="cls-32" d="M4.34,24.07H.2a.2.2,0,0,1-.2-.2V5.1a.2.2,0,0,1,.2-.2H11.94a.2.2,0,0,1,0,.4H.4V23.67H4.34a.2.2,0,1,1,0,.4Z"/><path class="cls-33" d="M11.91,7.79H.2a.2.2,0,0,1,0-.4H11.91a.2.2,0,1,1,0,.4Z"/><path class="cls-34" d="M32.2,7.79h-2.9a.2.2,0,1,1,0-.4h2.9a.2.2,0,1,1,0,.4Z"/><path class="cls-35" d="M11.4,6.53h-10a.2.2,0,1,1,0-.4h10a.2.2,0,0,1,0,.4Z"/><path class="cls-36" d="M4.9,12.6H1.77a.2.2,0,0,1-.2-.2V9.27a.2.2,0,0,1,.2-.2H4.9a.2.2,0,0,1,.2.2V12.4A.2.2,0,0,1,4.9,12.6ZM2,12.19H4.69V9.47H2Z"/><path class="cls-37" d="M2.63,11.74a.21.21,0,0,1-.14-.06.2.2,0,0,1-.06-.14.21.21,0,0,1,.06-.14.21.21,0,0,1,.29,0,.2.2,0,0,1-.14.35Z"/><path class="cls-38" d="M2.42,10.83a.2.2,0,0,1,.2-.2h0a.2.2,0,0,1,.2.2h0a.2.2,0,0,1-.2.2h0A.2.2,0,0,1,2.42,10.83Z"/><path class="cls-39" d="M2.63,10.33A.2.2,0,0,1,2.48,10a.21.21,0,0,1,.29,0,.2.2,0,0,1-.14.35Z"/><path class="cls-40" d="M3.13,10.13a.2.2,0,0,1,.2-.2h0a.2.2,0,0,1,.2.2h0a.2.2,0,0,1-.2.2h0A.2.2,0,0,1,3.13,10.13Z"/><path class="cls-41" d="M4,10.33a.21.21,0,0,1-.14-.06.2.2,0,0,1,0-.29.21.21,0,0,1,.29,0,.2.2,0,0,1-.14.35Z"/><path class="cls-42" d="M3.84,10.83a.2.2,0,0,1,.2-.2H4a.2.2,0,0,1,.2.2h0A.2.2,0,0,1,4,11H4A.2.2,0,0,1,3.84,10.83Z"/><path class="cls-43" d="M4,11.74a.21.21,0,0,1-.14-.06.2.2,0,0,1-.06-.14.21.21,0,0,1,.06-.14.21.21,0,0,1,.29,0,.2.2,0,0,1-.14.35Z"/><path class="cls-44" d="M3.13,11.54a.2.2,0,0,1,.2-.2h0a.2.2,0,0,1,.2.2h0a.2.2,0,0,1-.2.2h0A.2.2,0,0,1,3.13,11.54Z"/><path class="cls-45" d="M9.46,12.6H6.33a.2.2,0,0,1-.2-.2V9.27a.2.2,0,0,1,.2-.2H9.46a.2.2,0,0,1,.2.2V12.4A.2.2,0,0,1,9.46,12.6Zm-2.93-.4H9.26V9.47H6.54Z"/><path class="cls-46" d="M11,12.6H10.9a.2.2,0,0,1-.2-.2V11a.2.2,0,0,1,.4,0V12.2a.2.2,0,0,1-.06.39Z"/><path class="cls-47" d="M4.9,17.5H1.77a.2.2,0,0,1-.2-.2V14.17a.2.2,0,0,1,.2-.2H4.9a.2.2,0,0,1,.2.2V17.3A.2.2,0,0,1,4.9,17.5ZM2,17.1H4.69V14.37H2Z"/><path class="cls-48" d="M9.46,17.5a.2.2,0,0,1-.14-.34.21.21,0,0,1,.28,0,.2.2,0,0,1,.06.14.2.2,0,0,1-.2.2Z"/><path class="cls-49" d="M8.22,17.3a.2.2,0,0,1,.2-.2h0a.2.2,0,0,1,.2.2h0a.2.2,0,0,1-.2.2h0A.2.2,0,0,1,8.22,17.3Zm-1,0a.2.2,0,0,1,.2-.2h0a.2.2,0,0,1,.2.2h0a.2.2,0,0,1-.2.2h0A.2.2,0,0,1,7.18,17.3Z"/><path class="cls-50" d="M6.33,17.5a.2.2,0,0,1-.14-.34.21.21,0,0,1,.28,0,.2.2,0,0,1,.06.14.2.2,0,0,1-.2.2Z"/><path class="cls-51" d="M6.13,16.26a.2.2,0,0,1,.2-.2h0a.2.2,0,0,1,.2.2h0a.2.2,0,0,1-.2.2h0A.2.2,0,0,1,6.13,16.26Zm0-1a.2.2,0,0,1,.2-.2h0a.2.2,0,0,1,.2.2h0a.2.2,0,0,1-.2.2h0A.2.2,0,0,1,6.13,15.21Z"/><path class="cls-52" d="M6.33,14.37a.2.2,0,0,1-.14-.06.21.21,0,0,1-.06-.14A.2.2,0,0,1,6.19,14a.21.21,0,0,1,.29,0,.2.2,0,0,1,.06.14.2.2,0,0,1-.2.2Z"/><path class="cls-53" d="M8.22,14.17a.2.2,0,0,1,.2-.2h0a.2.2,0,0,1,.2.2h0a.2.2,0,0,1-.2.2h0A.2.2,0,0,1,8.22,14.17Zm-1,0a.2.2,0,0,1,.2-.2h0a.2.2,0,0,1,.2.2h0a.2.2,0,0,1-.2.2h0A.2.2,0,0,1,7.17,14.17Z"/><path class="cls-54" d="M9.46,14.37a.2.2,0,0,1-.2-.2A.2.2,0,0,1,9.32,14a.21.21,0,0,1,.29,0,.2.2,0,0,1,.06.14.2.2,0,0,1-.06.14A.2.2,0,0,1,9.46,14.37Z"/><path class="cls-55" d="M9.26,16.26a.2.2,0,0,1,.2-.2h0a.2.2,0,0,1,.2.2h0a.2.2,0,0,1-.2.2h0A.2.2,0,0,1,9.26,16.26Zm0-1a.2.2,0,0,1,.2-.2h0a.2.2,0,0,1,.2.2h0a.2.2,0,0,1-.2.2h0A.2.2,0,0,1,9.26,15.21Z"/><path class="cls-56" d="M12.12,17.5H10.9a.2.2,0,0,1-.2-.2V14.17a.2.2,0,0,1,.2-.2h.85a.2.2,0,0,1,0,.4H11.1V17.1h1a.2.2,0,1,1,0,.4Z"/><path class="cls-57" d="M1.77,22.41a.2.2,0,0,1-.2-.2V19.08a.2.2,0,0,1,.2-.2H4.9a.2.2,0,0,1,0,.4H2V22.2A.2.2,0,0,1,1.77,22.41Z"/><path class="cls-58" d="M4.9,19.28a.2.2,0,0,1-.14-.35.21.21,0,0,1,.29,0,.2.2,0,0,1,0,.29A.21.21,0,0,1,4.9,19.28Z"/><path class="cls-59" d="M4.69,21.16a.2.2,0,0,1,.2-.2h0a.2.2,0,0,1,.2.2h0a.2.2,0,0,1-.2.2h0A.2.2,0,0,1,4.69,21.16Zm0-1a.2.2,0,0,1,.2-.2h0a.2.2,0,0,1,.2.2h0a.2.2,0,0,1-.2.2h0A.2.2,0,0,1,4.69,20.12Z"/><path class="cls-60" d="M4.9,22.41a.2.2,0,0,1-.14-.06.2.2,0,0,1,0-.29.21.21,0,0,1,.29,0,.2.2,0,0,1-.14.35Z"/><path class="cls-61" d="M3.65,22.2a.2.2,0,0,1,.2-.2h0a.2.2,0,0,1,.2.2h0a.2.2,0,0,1-.2.2h0A.2.2,0,0,1,3.65,22.2Zm-1,0a.2.2,0,0,1,.2-.2h0a.2.2,0,0,1,.2.2H3a.2.2,0,0,1-.2.2h0A.2.2,0,0,1,2.61,22.2Z"/><path class="cls-62" d="M1.77,22.41a.2.2,0,0,1-.14-.06.2.2,0,0,1,0-.29.21.21,0,0,1,.29,0,.2.2,0,0,1-.14.35Z"/><path class="cls-63" d="M6.33,22.07a.2.2,0,0,1-.2-.2v-2.8a.2.2,0,0,1,.2-.2h2.8a.2.2,0,0,1,0,.4H6.54v2.6A.2.2,0,0,1,6.33,22.07Z"/><path class="cls-64" d="M14,22.41H10.9a.2.2,0,0,1-.2-.2v-.9a.2.2,0,1,1,.4,0V22h2.73V19.28H11.92a.2.2,0,1,1,0-.4H14a.2.2,0,0,1,.2.2V22.2A.2.2,0,0,1,14,22.41Z"/><path class="cls-65" d="M21.13,22.41a.2.2,0,0,1-.2-.2.21.21,0,0,1,.06-.14.2.2,0,0,1,.35.14.2.2,0,0,1-.2.2Z"/><path class="cls-66" d="M20.06,22.2a.2.2,0,0,1,.2-.2h0a.2.2,0,0,1,.2.2h0a.2.2,0,0,1-.2.2h0A.2.2,0,0,1,20.06,22.2Zm-.87,0a.2.2,0,0,1,.2-.2h0a.2.2,0,0,1,.2.2h0a.2.2,0,0,1-.2.2h0A.2.2,0,0,1,19.19,22.2Zm-.87,0a.2.2,0,0,1,.2-.2h0a.2.2,0,0,1,.2.2h0a.2.2,0,0,1-.2.2h0A.2.2,0,0,1,18.32,22.2Zm-.87,0a.2.2,0,0,1,.2-.2h0a.2.2,0,0,1,.2.2h0a.2.2,0,0,1-.2.2h0A.2.2,0,0,1,17.45,22.2Zm-.87,0a.2.2,0,0,1,.2-.2h0a.2.2,0,0,1,.2.2h0a.2.2,0,0,1-.2.2h0A.2.2,0,0,1,16.58,22.2Z"/><path class="cls-67" d="M15.91,22.41a.2.2,0,0,1-.14-.06.2.2,0,0,1,0-.29.21.21,0,0,1,.28,0,.2.2,0,0,1,0,.29A.2.2,0,0,1,15.91,22.41Z"/><path class="cls-68" d="M30.55,22.41H21.13a.2.2,0,0,1,0-.4h9.42a.2.2,0,0,1,0,.4Z"/><path class="cls-69" d="M27.42,21.53H15.91a.2.2,0,0,1,0-.4H27.42a.2.2,0,1,1,0,.4Z"/><path class="cls-70" d="M30.55,21.53a.2.2,0,0,1-.2-.2.2.2,0,0,1,.06-.14.21.21,0,0,1,.29,0,.2.2,0,0,1-.14.34Z"/><path class="cls-71" d="M29.31,21.33a.2.2,0,0,1,.2-.2h0a.2.2,0,0,1,.2.2h0a.2.2,0,0,1-.2.2h0A.2.2,0,0,1,29.31,21.33Zm-1,0a.2.2,0,0,1,.2-.2h0a.2.2,0,0,1,.2.2h0a.2.2,0,0,1-.2.2h0A.2.2,0,0,1,28.26,21.33Z"/><path class="cls-72" d="M27.42,21.53a.2.2,0,0,1-.2-.2.2.2,0,0,1,.06-.14.21.21,0,0,1,.29,0,.2.2,0,0,1-.14.34Z"/><path class="cls-73" d="M17.76,20.66H15.91a.2.2,0,0,1,0-.4h1.85a.2.2,0,0,1,0,.4Z"/><path class="cls-74" d="M25.33,20.66a.2.2,0,0,1-.14-.35.21.21,0,0,1,.29,0,.2.2,0,0,1-.14.35Z"/><path class="cls-75" d="M24.19,20.46a.2.2,0,0,1,.2-.2h0a.2.2,0,0,1,.2.2h0a.2.2,0,0,1-.2.2h0A.2.2,0,0,1,24.19,20.46Zm-.95,0a.2.2,0,0,1,.2-.2h0a.2.2,0,0,1,.2.2h0a.2.2,0,0,1-.2.2h0A.2.2,0,0,1,23.24,20.46Zm-.95,0a.2.2,0,0,1,.2-.2h0a.2.2,0,0,1,.2.2h0a.2.2,0,0,1-.2.2h0A.2.2,0,0,1,22.29,20.46Zm-.95,0a.2.2,0,0,1,.2-.2h0a.2.2,0,0,1,.2.2h0a.2.2,0,0,1-.2.2h0A.2.2,0,0,1,21.35,20.46Zm-.95,0a.2.2,0,0,1,.2-.2h0a.2.2,0,0,1,.2.2h0a.2.2,0,0,1-.2.2h0A.2.2,0,0,1,20.4,20.46Zm-.95,0a.2.2,0,0,1,.2-.2h0a.2.2,0,0,1,.2.2h0a.2.2,0,0,1-.2.2h0A.2.2,0,0,1,19.46,20.46Zm-.95,0a.2.2,0,0,1,.2-.2h0a.2.2,0,0,1,.2.2h0a.2.2,0,0,1-.2.2h0A.2.2,0,0,1,18.51,20.46Z"/><path class="cls-76" d="M17.76,20.66a.2.2,0,0,1-.14-.35.21.21,0,0,1,.29,0,.2.2,0,0,1,0,.29A.21.21,0,0,1,17.76,20.66Z"/><path class="cls-77" d="M30.55,20.66H25.33a.2.2,0,0,1,0-.4h5.22a.2.2,0,0,1,0,.4Z"/><path class="cls-78" d="M30.84,7.13a.79.79,0,1,1,.79-.79A.79.79,0,0,1,30.84,7.13Zm0-1.18a.39.39,0,1,0,.39.39A.39.39,0,0,0,30.84,6Z"/></g></g></svg>