<svg xmlns="http://www.w3.org/2000/svg" xmlns:xlink="http://www.w3.org/1999/xlink" viewBox="0 0 28.74 43.88"><defs><style>.cls-1{fill:url(#linear-gradient);}.cls-2{fill:url(#linear-gradient-2);}.cls-3{fill:url(#linear-gradient-3);}.cls-4{fill:url(#linear-gradient-4);}.cls-5{fill:url(#linear-gradient-5);}.cls-6{fill:url(#linear-gradient-6);}.cls-7{fill:url(#linear-gradient-7);}.cls-8{fill:url(#linear-gradient-8);}.cls-9{fill:url(#linear-gradient-9);}.cls-10{fill:url(#linear-gradient-10);}.cls-11{fill:url(#linear-gradient-11);}.cls-12{fill:url(#linear-gradient-12);}.cls-13{fill:url(#linear-gradient-13);}.cls-14{fill:url(#linear-gradient-14);}.cls-15{fill:url(#linear-gradient-15);}.cls-16{fill:url(#linear-gradient-16);}.cls-17{fill:url(#linear-gradient-17);}.cls-18{fill:url(#linear-gradient-18);}.cls-19{fill:url(#linear-gradient-19);}.cls-20{fill:url(#linear-gradient-20);}.cls-21{fill:url(#linear-gradient-21);}.cls-22{fill:url(#linear-gradient-22);}.cls-23{fill:url(#linear-gradient-23);}.cls-24{fill:url(#linear-gradient-24);}.cls-25{fill:url(#linear-gradient-25);}.cls-26{fill:url(#linear-gradient-26);}.cls-27{fill:url(#linear-gradient-27);}.cls-28{fill:url(#linear-gradient-28);}.cls-29{fill:url(#linear-gradient-29);}.cls-30{fill:url(#linear-gradient-30);}.cls-31{fill:url(#linear-gradient-31);}.cls-32{fill:url(#linear-gradient-32);}.cls-33{fill:url(#linear-gradient-33);}.cls-34{fill:url(#linear-gradient-34);}.cls-35{fill:url(#linear-gradient-35);}.cls-36{fill:url(#linear-gradient-36);}.cls-37{fill:url(#linear-gradient-37);}.cls-38{fill:url(#linear-gradient-38);}.cls-39{fill:url(#linear-gradient-39);}.cls-40{fill:url(#linear-gradient-40);}.cls-41{fill:url(#linear-gradient-41);}.cls-42{fill:url(#linear-gradient-42);}.cls-43{fill:url(#linear-gradient-43);}.cls-44{fill:url(#linear-gradient-44);}.cls-45{fill:url(#linear-gradient-45);}.cls-46{fill:url(#linear-gradient-46);}.cls-47{fill:url(#linear-gradient-47);}.cls-48{fill:url(#linear-gradient-48);}.cls-49{fill:url(#linear-gradient-49);}.cls-50{fill:url(#linear-gradient-50);}.cls-51{fill:url(#linear-gradient-51);}.cls-52{fill:url(#linear-gradient-52);}.cls-53{fill:url(#linear-gradient-53);}.cls-54{fill:url(#linear-gradient-54);}.cls-55{fill:url(#linear-gradient-55);}.cls-56{fill:url(#linear-gradient-56);}.cls-57{fill:url(#linear-gradient-57);}.cls-58{fill:url(#linear-gradient-58);}.cls-59{fill:url(#linear-gradient-59);}.cls-60{fill:url(#linear-gradient-60);}.cls-61{fill:url(#linear-gradient-61);}.cls-62{fill:url(#linear-gradient-62);}.cls-63{fill:url(#linear-gradient-63);}.cls-64{fill:url(#linear-gradient-64);}.cls-65{fill:url(#linear-gradient-65);}.cls-66{fill:url(#linear-gradient-66);}.cls-67{fill:url(#linear-gradient-67);}.cls-68{fill:url(#linear-gradient-68);}.cls-69{fill:url(#linear-gradient-69);}.cls-70{fill:url(#linear-gradient-70);}.cls-71{fill:url(#linear-gradient-71);}.cls-72{fill:url(#linear-gradient-72);}.cls-73{fill:url(#linear-gradient-73);}.cls-74{fill:url(#linear-gradient-74);}.cls-75{fill:url(#linear-gradient-75);}.cls-76{fill:url(#linear-gradient-76);}.cls-77{fill:url(#linear-gradient-77);}.cls-78{fill:url(#linear-gradient-78);}.cls-79{fill:url(#linear-gradient-79);}.cls-80{fill:url(#linear-gradient-80);}.cls-81{fill:url(#linear-gradient-81);}.cls-82{fill:url(#linear-gradient-82);}.cls-83{fill:url(#linear-gradient-83);}.cls-84{fill:url(#linear-gradient-84);}.cls-85{fill:url(#linear-gradient-85);}.cls-86{fill:url(#linear-gradient-86);}.cls-87{fill:url(#linear-gradient-87);}</style><linearGradient id="linear-gradient" x1="833.32" y1="-5.79" x2="806.32" y2="186.21" gradientTransform="translate(-815.92 -49.51)" gradientUnits="userSpaceOnUse"><stop offset="0" stop-color="#29abe2"/><stop offset="1" stop-color="#4f00bc"/></linearGradient><linearGradient id="linear-gradient-2" x1="842.84" y1="-4.43" x2="815.84" y2="187.57" xlink:href="#linear-gradient"/><linearGradient id="linear-gradient-3" x1="841.84" y1="-8.16" x2="814.84" y2="183.84" xlink:href="#linear-gradient"/><linearGradient id="linear-gradient-4" x1="837.73" y1="-12.97" x2="810.73" y2="179.03" xlink:href="#linear-gradient"/><linearGradient id="linear-gradient-5" x1="851.84" y1="-12.13" x2="824.84" y2="179.87" xlink:href="#linear-gradient"/><linearGradient id="linear-gradient-6" x1="839.74" y1="-11.45" x2="812.74" y2="180.55" xlink:href="#linear-gradient"/><linearGradient id="linear-gradient-7" x1="844.54" y1="-11.11" x2="817.54" y2="180.89" xlink:href="#linear-gradient"/><linearGradient id="linear-gradient-8" x1="854.13" y1="1.59" x2="827.13" y2="193.59" xlink:href="#linear-gradient"/><linearGradient id="linear-gradient-9" x1="833.67" y1="7.67" x2="806.64" y2="199.85" xlink:href="#linear-gradient"/><linearGradient id="linear-gradient-10" x1="837.34" y1="8.14" x2="810.34" y2="200.14" xlink:href="#linear-gradient"/><linearGradient id="linear-gradient-11" x1="835.53" y1="10.17" x2="808.53" y2="202.17" xlink:href="#linear-gradient"/><linearGradient id="linear-gradient-12" x1="839.73" y1="4.46" x2="812.73" y2="196.46" xlink:href="#linear-gradient"/><linearGradient id="linear-gradient-13" x1="838.57" y1="-5.68" x2="811.57" y2="186.32" xlink:href="#linear-gradient"/><linearGradient id="linear-gradient-14" x1="832.5" y1="-6.54" x2="805.5" y2="185.46" xlink:href="#linear-gradient"/><linearGradient id="linear-gradient-15" x1="834.36" y1="-6.27" x2="807.36" y2="185.73" xlink:href="#linear-gradient"/><linearGradient id="linear-gradient-16" x1="836.22" y1="-6.01" x2="809.22" y2="185.99" xlink:href="#linear-gradient"/><linearGradient id="linear-gradient-17" x1="835.27" y1="-6.15" x2="808.27" y2="185.85" xlink:href="#linear-gradient"/><linearGradient id="linear-gradient-18" x1="841.7" y1="-5.24" x2="814.7" y2="186.76" xlink:href="#linear-gradient"/><linearGradient id="linear-gradient-19" x1="838.49" y1="-5.69" x2="811.49" y2="186.31" xlink:href="#linear-gradient"/><linearGradient id="linear-gradient-20" x1="841.56" y1="-5.26" x2="814.56" y2="186.74" xlink:href="#linear-gradient"/><linearGradient id="linear-gradient-21" x1="849.4" y1="-4.16" x2="822.4" y2="187.84" xlink:href="#linear-gradient"/><linearGradient id="linear-gradient-22" x1="849.16" y1="-4.19" x2="822.16" y2="187.81" xlink:href="#linear-gradient"/><linearGradient id="linear-gradient-23" x1="848.93" y1="-4.23" x2="821.93" y2="187.77" xlink:href="#linear-gradient"/><linearGradient id="linear-gradient-24" x1="839.67" y1="-5.53" x2="812.67" y2="186.47" xlink:href="#linear-gradient"/><linearGradient id="linear-gradient-25" x1="843.35" y1="-5.01" x2="816.35" y2="186.99" xlink:href="#linear-gradient"/><linearGradient id="linear-gradient-26" x1="841.51" y1="-5.27" x2="814.51" y2="186.73" xlink:href="#linear-gradient"/><linearGradient id="linear-gradient-27" x1="849.98" y1="-4.08" x2="822.98" y2="187.92" xlink:href="#linear-gradient"/><linearGradient id="linear-gradient-28" x1="854.11" y1="-3.5" x2="827.11" y2="188.5" xlink:href="#linear-gradient"/><linearGradient id="linear-gradient-29" x1="851.45" y1="-3.87" x2="824.45" y2="188.13" xlink:href="#linear-gradient"/><linearGradient id="linear-gradient-30" x1="851.96" y1="-3.8" x2="824.96" y2="188.2" xlink:href="#linear-gradient"/><linearGradient id="linear-gradient-31" x1="851.03" y1="-3.93" x2="824.03" y2="188.07" xlink:href="#linear-gradient"/><linearGradient id="linear-gradient-32" x1="851.23" y1="-3.9" x2="824.23" y2="188.1" xlink:href="#linear-gradient"/><linearGradient id="linear-gradient-33" x1="848.95" y1="-4.22" x2="821.95" y2="187.78" xlink:href="#linear-gradient"/><linearGradient id="linear-gradient-34" x1="853.22" y1="-3.62" x2="826.22" y2="188.38" xlink:href="#linear-gradient"/><linearGradient id="linear-gradient-35" x1="850.9" y1="-3.95" x2="823.9" y2="188.05" xlink:href="#linear-gradient"/><linearGradient id="linear-gradient-36" x1="828.41" y1="-7.11" x2="801.41" y2="184.89" xlink:href="#linear-gradient"/><linearGradient id="linear-gradient-37" x1="832.7" y1="-6.51" x2="805.7" y2="185.49" xlink:href="#linear-gradient"/><linearGradient id="linear-gradient-38" x1="829.78" y1="-6.92" x2="802.78" y2="185.08" xlink:href="#linear-gradient"/><linearGradient id="linear-gradient-39" x1="830.1" y1="-6.87" x2="803.1" y2="185.13" xlink:href="#linear-gradient"/><linearGradient id="linear-gradient-40" x1="830.47" y1="-6.82" x2="803.47" y2="185.18" xlink:href="#linear-gradient"/><linearGradient id="linear-gradient-41" x1="830.84" y1="-6.77" x2="803.84" y2="185.23" xlink:href="#linear-gradient"/><linearGradient id="linear-gradient-42" x1="829.16" y1="-7.01" x2="802.16" y2="184.99" xlink:href="#linear-gradient"/><linearGradient id="linear-gradient-43" x1="828.66" y1="-7.08" x2="801.66" y2="184.92" xlink:href="#linear-gradient"/><linearGradient id="linear-gradient-44" x1="830.38" y1="-6.83" x2="803.38" y2="185.17" xlink:href="#linear-gradient"/><linearGradient id="linear-gradient-45" x1="831.05" y1="-6.74" x2="804.05" y2="185.26" xlink:href="#linear-gradient"/><linearGradient id="linear-gradient-46" x1="835" y1="-6.18" x2="808" y2="185.82" xlink:href="#linear-gradient"/><linearGradient id="linear-gradient-47" x1="833.05" y1="-6.46" x2="806.05" y2="185.54" xlink:href="#linear-gradient"/><linearGradient id="linear-gradient-48" x1="830.46" y1="-6.82" x2="803.46" y2="185.18" xlink:href="#linear-gradient"/><linearGradient id="linear-gradient-49" x1="831.27" y1="-6.71" x2="804.27" y2="185.29" xlink:href="#linear-gradient"/><linearGradient id="linear-gradient-50" x1="843.82" y1="-4.94" x2="816.82" y2="187.06" xlink:href="#linear-gradient"/><linearGradient id="linear-gradient-51" x1="837.88" y1="-5.78" x2="810.88" y2="186.22" xlink:href="#linear-gradient"/><linearGradient id="linear-gradient-52" x1="838.27" y1="-5.72" x2="811.27" y2="186.28" xlink:href="#linear-gradient"/><linearGradient id="linear-gradient-53" x1="841.53" y1="-5.27" x2="814.53" y2="186.73" xlink:href="#linear-gradient"/><linearGradient id="linear-gradient-54" x1="844.8" y1="-4.81" x2="817.8" y2="187.19" xlink:href="#linear-gradient"/><linearGradient id="linear-gradient-55" x1="840.62" y1="-5.39" x2="813.62" y2="186.61" xlink:href="#linear-gradient"/><linearGradient id="linear-gradient-56" x1="840.08" y1="-5.47" x2="813.08" y2="186.53" xlink:href="#linear-gradient"/><linearGradient id="linear-gradient-57" x1="853.55" y1="-3.58" x2="826.55" y2="188.42" xlink:href="#linear-gradient"/><linearGradient id="linear-gradient-58" x1="852.98" y1="-3.66" x2="825.98" y2="188.34" xlink:href="#linear-gradient"/><linearGradient id="linear-gradient-59" x1="851.22" y1="-3.9" x2="824.22" y2="188.1" xlink:href="#linear-gradient"/><linearGradient id="linear-gradient-60" x1="847.52" y1="-4.42" x2="820.52" y2="187.58" xlink:href="#linear-gradient"/><linearGradient id="linear-gradient-61" x1="846.28" y1="-4.6" x2="819.28" y2="187.4" xlink:href="#linear-gradient"/><linearGradient id="linear-gradient-62" x1="847.02" y1="-4.49" x2="820.02" y2="187.51" xlink:href="#linear-gradient"/><linearGradient id="linear-gradient-63" x1="850.29" y1="-4.03" x2="823.29" y2="187.96" xlink:href="#linear-gradient"/><linearGradient id="linear-gradient-64" x1="849.37" y1="-4.16" x2="822.37" y2="187.84" xlink:href="#linear-gradient"/><linearGradient id="linear-gradient-65" x1="849.01" y1="-4.21" x2="822.01" y2="187.79" xlink:href="#linear-gradient"/><linearGradient id="linear-gradient-66" x1="829.93" y1="-6.9" x2="802.93" y2="185.1" xlink:href="#linear-gradient"/><linearGradient id="linear-gradient-67" x1="831.91" y1="-6.62" x2="804.91" y2="185.38" xlink:href="#linear-gradient"/><linearGradient id="linear-gradient-68" x1="833.67" y1="-6.37" x2="806.67" y2="185.63" xlink:href="#linear-gradient"/><linearGradient id="linear-gradient-69" x1="850.08" y1="-4.06" x2="823.08" y2="187.94" xlink:href="#linear-gradient"/><linearGradient id="linear-gradient-70" x1="850.21" y1="-4.05" x2="823.21" y2="187.95" xlink:href="#linear-gradient"/><linearGradient id="linear-gradient-71" x1="850.33" y1="-4.03" x2="823.33" y2="187.97" xlink:href="#linear-gradient"/><linearGradient id="linear-gradient-72" x1="849.88" y1="-4.09" x2="822.88" y2="187.91" xlink:href="#linear-gradient"/><linearGradient id="linear-gradient-73" x1="847.42" y1="-4.44" x2="820.42" y2="187.56" xlink:href="#linear-gradient"/><linearGradient id="linear-gradient-74" x1="847.54" y1="-4.42" x2="820.54" y2="187.58" xlink:href="#linear-gradient"/><linearGradient id="linear-gradient-75" x1="847.65" y1="-4.4" x2="820.65" y2="187.6" xlink:href="#linear-gradient"/><linearGradient id="linear-gradient-76" x1="847.35" y1="-4.45" x2="820.35" y2="187.55" xlink:href="#linear-gradient"/><linearGradient id="linear-gradient-77" x1="850.58" y1="-3.99" x2="823.58" y2="188.01" xlink:href="#linear-gradient"/><linearGradient id="linear-gradient-78" x1="853.81" y1="-3.54" x2="826.81" y2="188.46" xlink:href="#linear-gradient"/><linearGradient id="linear-gradient-79" x1="842.64" y1="39.01" x2="815.64" y2="231.01" xlink:href="#linear-gradient"/><linearGradient id="linear-gradient-80" x1="846.4" y1="38.14" x2="819.4" y2="230.14" xlink:href="#linear-gradient"/><linearGradient id="linear-gradient-81" x1="844.72" y1="38.35" x2="817.72" y2="230.35" xlink:href="#linear-gradient"/><linearGradient id="linear-gradient-82" x1="848.66" y1="34.58" x2="821.66" y2="226.58" xlink:href="#linear-gradient"/><linearGradient id="linear-gradient-83" x1="840.8" y1="34.92" x2="813.8" y2="226.92" xlink:href="#linear-gradient"/><linearGradient id="linear-gradient-84" x1="834.91" y1="-13.35" x2="807.91" y2="178.65" xlink:href="#linear-gradient"/><linearGradient id="linear-gradient-85" x1="846.91" y1="-12.13" x2="819.91" y2="179.87" xlink:href="#linear-gradient"/><linearGradient id="linear-gradient-86" x1="849.59" y1="-13.35" x2="822.59" y2="178.65" xlink:href="#linear-gradient"/><linearGradient id="linear-gradient-87" x1="36.01" y1="-47.14" x2="9.01" y2="144.86" gradientTransform="matrix(1, 0, 0, 1, 0, 0)" xlink:href="#linear-gradient"/></defs><title>Asset 15</title><g id="Layer_2" data-name="Layer 2"><g id="_ÎÓÈ_1" data-name="—ÎÓÈ_1"><path class="cls-1" d="M4.1,40.47c-.68,0-.93-.3-.94-.77h.36c0,.26.15.46.57.46s.5-.14.5-.31c0-.49-1.35-.15-1.37-.87,0-.37.23-.64.83-.64s.85.29.86.73H4.56c0-.29-.16-.43-.52-.43s-.46.11-.46.3c0,.45,1.36.12,1.36.89C4.94,40.14,4.75,40.47,4.1,40.47Z"/><path class="cls-2" d="M13.23,40.44V38.36h.36v1.79h.79v.29Z"/><path class="cls-3" d="M12.31,43.86l-.14-.41h-1l-.15.41h-.37l.8-2.08h.48l.78,2ZM11.66,42l-.42,1.18h.84Z"/><path class="cls-4" d="M7.51,43.86l-.14-.41h-1l-.15.41H5.83l.8-2.08h.48l.78,2.08ZM6.86,42l-.42,1.18h.84Z"/><path class="cls-5" d="M20.52,43.86V41.78H22v.29H20.87v.58h1v.29h-1v.62H22v.29Z"/><path class="cls-6" d="M9.73,43.86,8.65,42.23v1.62H8.29V41.78h.46l1.07,1.61V41.78h.36v2.08Z"/><path class="cls-7" d="M14.76,43.86l-.09-.32a.7.7,0,0,1-.67.34c-.73,0-.94-.49-.94-1.06s.19-1.06,1-1.06.93.34.93.72h-.36c0-.23-.16-.43-.56-.43s-.59.34-.59.77.11.76.59.76a.53.53,0,0,0,.58-.59H14V42.7h1v1.16Z"/><path class="cls-8" d="M25.75,42.07v1.79h-.35V42.07h-.6v-.29h1.54v.29Z"/><path class="cls-9" d="M6.31,40.52c-.8,0-1-.43-1-1s.19-1.12,1-1.12,1,.49,1,1.06S7.12,40.52,6.31,40.52Zm0-1.83c-.52,0-.63.34-.63.76s.11.77.63.77.63-.34.63-.76S6.84,38.69,6.31,38.69Z"/><path class="cls-10" d="M9.89,40.44V38.36h.36v2.08Z"/><path class="cls-11" d="M8.54,40.48c-.78,0-1-.49-1-1.06s.19-1.06,1-1.06.94.38.94.81H9.11a.51.51,0,0,0-.57-.52c-.49,0-.59.34-.59.77s.1.76.59.76a.5.5,0,0,0,.57-.52h.37C9.48,40.12,9.22,40.48,8.54,40.48Z"/><path class="cls-12" d="M12.44,40.44,12.31,40h-1l-.15.41h-.37l.8-2.08H12l.78,2.08Zm-.65-1.85-.42,1.18h.84Z"/><path class="cls-13" d="M14.24,10.57a.2.2,0,0,1-.19-.12l-1-2.35H11.39a.2.2,0,0,1,0-.4h1.8a.2.2,0,0,1,.19.12l.86,2,.86-2a.2.2,0,0,1,.19-.12h7.9V.4H5.46V7.69H7.59a.2.2,0,0,1,0,.4H5.26a.2.2,0,0,1-.2-.2V.2a.2.2,0,0,1,.2-.2H23.38a.2.2,0,0,1,.2.2V7.89a.2.2,0,0,1-.2.2h-8l-1,2.35A.2.2,0,0,1,14.24,10.57Z"/><path class="cls-14" d="M7.59,8.09a.2.2,0,0,1-.2-.2.2.2,0,0,1,.06-.14.21.21,0,0,1,.29,0,.2.2,0,0,1,.06.14A.21.21,0,0,1,7.73,8,.2.2,0,0,1,7.59,8.09Z"/><path class="cls-15" d="M10.23,7.89a.2.2,0,0,1,.2-.2h0a.2.2,0,0,1,.2.2h0a.2.2,0,0,1-.2.2h0A.2.2,0,0,1,10.23,7.89Zm-.95,0a.2.2,0,0,1,.2-.2h0a.2.2,0,0,1,.2.2h0a.2.2,0,0,1-.2.2h0A.2.2,0,0,1,9.29,7.89Zm-.95,0a.2.2,0,0,1,.2-.2h0a.2.2,0,0,1,.2.2h0a.2.2,0,0,1-.2.2h0A.2.2,0,0,1,8.34,7.89Z"/><path class="cls-16" d="M11.39,8.09a.2.2,0,0,1-.14-.34.21.21,0,0,1,.28,0,.2.2,0,0,1,.06.14.2.2,0,0,1-.2.2Z"/><path class="cls-17" d="M11,5a1,1,0,1,1,1-1A1,1,0,0,1,11,5Zm0-1.63a.61.61,0,1,0,.61.61A.61.61,0,0,0,11,3.32Z"/><path class="cls-18" d="M17.53,5a1,1,0,1,1,1-1A1,1,0,0,1,17.53,5Zm0-1.63a.61.61,0,1,0,.61.61A.61.61,0,0,0,17.53,3.32Z"/><path class="cls-19" d="M14.25,5a1,1,0,1,1,1-1A1,1,0,0,1,14.25,5Zm0-1.63a.61.61,0,1,0,.61.61A.61.61,0,0,0,14.25,3.32Z"/><path class="cls-20" d="M21.19,35.1H5.68a.2.2,0,0,1-.2-.2V29.09a.2.2,0,0,1,.2-.2h4.69l.79-3a.2.2,0,0,1,.39,0l.79,3h8.85a.2.2,0,0,1,.2.2v1.2a.2.2,0,1,1-.4,0v-1H12.18a.2.2,0,0,1-.2-.15l-.63-2.38-.63,2.38a.2.2,0,0,1-.2.15H5.88v5.4H21v-1a.2.2,0,1,1,.4,0V34.9A.2.2,0,0,1,21.19,35.1Z"/><path class="cls-21" d="M21.19,33.95a.2.2,0,0,1-.14-.34.21.21,0,0,1,.29,0,.2.2,0,0,1,.06.14.2.2,0,0,1-.2.2Z"/><path class="cls-22" d="M21,32.88a.2.2,0,0,1,.2-.2h0a.2.2,0,0,1,.2.2h0a.2.2,0,0,1-.2.2h0A.2.2,0,0,1,21,32.88ZM21,32a.2.2,0,0,1,.2-.2h0a.2.2,0,0,1,.2.2h0a.2.2,0,0,1-.2.2h0A.2.2,0,0,1,21,32Zm0-.86a.2.2,0,0,1,.2-.2h0a.2.2,0,0,1,.2.2h0a.2.2,0,0,1-.2.2h0A.2.2,0,0,1,21,31.16Z"/><path class="cls-23" d="M21.19,30.5a.2.2,0,0,1-.14-.06A.2.2,0,0,1,21,30.3a.21.21,0,0,1,.06-.14.21.21,0,0,1,.29,0,.21.21,0,0,1,.06.14.2.2,0,0,1-.06.14A.21.21,0,0,1,21.19,30.5Z"/><circle class="cls-24" cx="11.5" cy="32.12" r="0.47"/><circle class="cls-25" cx="15.25" cy="32.12" r="0.47"/><circle class="cls-26" cx="13.38" cy="32.12" r="0.47"/><path class="cls-27" d="M22.2,31.91a.2.2,0,0,1-.2-.2V29.86a.2.2,0,0,1,.4,0V31.7A.2.2,0,0,1,22.2,31.91Z"/><path class="cls-28" d="M26.41,31.91a.2.2,0,0,1-.2-.2V29.86a.2.2,0,0,1,.4,0V31.7A.2.2,0,0,1,26.41,31.91Z"/><path class="cls-29" d="M24.3,28.9a.2.2,0,0,1-.14-.06L21.92,26.6a.2.2,0,1,1,.29-.29l2.1,2.1,2.1-2.1a.2.2,0,0,1,.29.29l-2.24,2.24A.2.2,0,0,1,24.3,28.9Z"/><path class="cls-30" d="M24.3,31.91a.2.2,0,0,1-.2-.2v-3a.2.2,0,0,1,.4,0v3A.2.2,0,0,1,24.3,31.91Z"/><path class="cls-31" d="M24.3,25.91a2.51,2.51,0,1,1,2.51-2.51A2.51,2.51,0,0,1,24.3,25.91Zm0-4.62a2.11,2.11,0,1,0,2.11,2.11A2.11,2.11,0,0,0,24.3,21.28Z"/><path class="cls-32" d="M22.25,24.65a.2.2,0,0,1-.11-.37l2.58-1.76a.2.2,0,0,1,.21,0l1.77,1a.2.2,0,1,1-.19.36l-1.67-.9-2.48,1.69A.2.2,0,0,1,22.25,24.65Z"/><path class="cls-33" d="M20.06,27.57a.2.2,0,0,1-.14-.34l.91-.91a.2.2,0,0,1,.14-.06h2.14v-.78a.2.2,0,1,1,.4,0v1a.2.2,0,0,1-.2.2H21.06l-.85.85A.2.2,0,0,1,20.06,27.57Z"/><path class="cls-34" d="M28.54,31.91H22.2a.2.2,0,1,1,0-.4h6.15v-4l-.79-.79H25.29a.2.2,0,0,1-.2-.2v-1a.2.2,0,1,1,.4,0v.78h2.14a.2.2,0,0,1,.14.06l.91.91a.2.2,0,0,1,.06.14V31.7A.2.2,0,0,1,28.54,31.91Z"/><path class="cls-35" d="M23.24,30.68a.2.2,0,0,1-.2-.2v-.8a.2.2,0,0,1,.4,0v.8A.2.2,0,0,1,23.24,30.68Z"/><path class="cls-36" d="M2.41,17.42a.2.2,0,0,1-.2-.2V13a.2.2,0,1,1,.4,0v4.18A.2.2,0,0,1,2.41,17.42Z"/><path class="cls-37" d="M6.77,17.42a.2.2,0,0,1-.2-.2V13A.2.2,0,1,1,7,13v4.18A.2.2,0,0,1,6.77,17.42Z"/><path class="cls-38" d="M4.59,12A.2.2,0,0,1,4.45,12L2.13,9.66a.2.2,0,1,1,.29-.29l2.18,2.18L6.77,9.38a.2.2,0,1,1,.29.29L4.73,12A.2.2,0,0,1,4.59,12Z"/><path class="cls-39" d="M4.59,12A.2.2,0,0,1,4.45,12a.2.2,0,0,1,0-.29.21.21,0,0,1,.29,0,.2.2,0,0,1-.14.35Z"/><path class="cls-40" d="M4.39,16.32a.2.2,0,0,1,.2-.2h0a.2.2,0,0,1,.2.2h0a.2.2,0,0,1-.2.2h0A.2.2,0,0,1,4.39,16.32Zm0-.9a.2.2,0,0,1,.2-.2h0a.2.2,0,0,1,.2.2h0a.2.2,0,0,1-.2.2h0A.2.2,0,0,1,4.39,15.42Zm0-.9a.2.2,0,0,1,.2-.2h0a.2.2,0,0,1,.2.2h0a.2.2,0,0,1-.2.2h0A.2.2,0,0,1,4.39,14.53Zm0-.9a.2.2,0,0,1,.2-.2h0a.2.2,0,0,1,.2.2h0a.2.2,0,0,1-.2.2h0A.2.2,0,0,1,4.39,13.63Zm0-.9a.2.2,0,0,1,.2-.2h0a.2.2,0,0,1,.2.2h0a.2.2,0,0,1-.2.2h0A.2.2,0,0,1,4.39,12.73Z"/><path class="cls-41" d="M4.59,17.42a.2.2,0,0,1-.14-.34.21.21,0,0,1,.29,0,.2.2,0,0,1,.06.14.2.2,0,0,1-.2.2Z"/><path class="cls-42" d="M4.59,8.94a2.59,2.59,0,1,1,.73-5.08.2.2,0,1,1-.11.39A2.19,2.19,0,1,0,6.26,7.76.2.2,0,1,1,6.57,8,2.59,2.59,0,0,1,4.59,8.94Z"/><path class="cls-43" d="M2.46,7.64a.2.2,0,0,1-.11-.37L5,5.46a.2.2,0,0,1,.21,0l.13.07a.2.2,0,0,1-.19.36h0L2.58,7.6A.2.2,0,0,1,2.46,7.64Z"/><path class="cls-44" d="M9,17.42H.2a.2.2,0,0,1-.2-.2V10.46a.2.2,0,0,1,.06-.14L1,9.38a.2.2,0,0,1,.14-.06H3.37V8.51a.2.2,0,0,1,.4,0v1a.2.2,0,0,1-.2.2H1.23l-.82.82V17H8.78V10.55L8,9.72H5.61a.2.2,0,0,1-.2-.2v-1a.2.2,0,0,1,.4,0v.81H8a.2.2,0,0,1,.14.06l.94.94a.2.2,0,0,1,.06.14v6.75A.2.2,0,0,1,9,17.42Z"/><path class="cls-45" d="M5.68,32H1.13a.2.2,0,0,1-.17-.1,7.61,7.61,0,0,1-.81-3.47,3.38,3.38,0,0,1,2.36-3.48.2.2,0,0,1,.13.38,3,3,0,0,0-2.09,3.1,7.4,7.4,0,0,0,.7,3.17H5.68a.2.2,0,1,1,0,.4Z"/><path class="cls-46" d="M8.54,29.3h0a.2.2,0,0,1-.18-.22c0-.23,0-.46,0-.67a3,3,0,0,0-2.09-3.1.2.2,0,0,1,.13-.38,3.38,3.38,0,0,1,2.36,3.48c0,.22,0,.46,0,.7A.2.2,0,0,1,8.54,29.3Z"/><path class="cls-47" d="M6.37,25.33l-.09,0A3.79,3.79,0,0,0,5.22,25a.2.2,0,0,1-.17-.2V24a.2.2,0,1,1,.4,0v.64a4.12,4.12,0,0,1,1,.34.2.2,0,0,1-.09.38Z"/><path class="cls-48" d="M2.55,25.33a.2.2,0,0,1-.09-.38,4.12,4.12,0,0,1,1-.34V24a.2.2,0,1,1,.4,0v.81a.2.2,0,0,1-.17.2,3.79,3.79,0,0,0-1.06.34Z"/><path class="cls-49" d="M4.46,24.43c-1.31,0-2.22-1.68-2.22-3.18a2.36,2.36,0,0,1,2.22-2.61,2.36,2.36,0,0,1,2.22,2.61C6.68,22.75,5.77,24.43,4.46,24.43Zm0-5.39c-1.07,0-1.82.91-1.82,2.2,0,1.45.87,2.78,1.82,2.78s1.82-1.32,1.82-2.78C6.28,19.95,5.53,19,4.46,19Z"/><path class="cls-50" d="M17.76,24.95a.2.2,0,0,1-.17-.31,7.19,7.19,0,0,0,.75-3.26,3,3,0,0,0-2.09-3.1.2.2,0,0,1,.13-.38,3.38,3.38,0,0,1,2.36,3.48,7.61,7.61,0,0,1-.81,3.47A.2.2,0,0,1,17.76,24.95Z"/><path class="cls-51" d="M11.11,24.95a.2.2,0,0,1-.17-.1,7.61,7.61,0,0,1-.81-3.47,3.38,3.38,0,0,1,2.36-3.48.2.2,0,0,1,.13.38,3,3,0,0,0-2.09,3.1,7.19,7.19,0,0,0,.75,3.26.2.2,0,0,1-.17.31Z"/><path class="cls-52" d="M11.1,24.95a.2.2,0,0,1-.14-.06.21.21,0,0,1-.06-.14.2.2,0,0,1,.06-.14.21.21,0,0,1,.29,0,.2.2,0,0,1,.06.14.2.2,0,0,1-.2.2Z"/><path class="cls-53" d="M16.61,24.75a.2.2,0,0,1,.2-.2h0a.2.2,0,0,1,.2.2h0a.2.2,0,0,1-.2.2h0A.2.2,0,0,1,16.61,24.75Zm-1,0a.2.2,0,0,1,.2-.2h0a.2.2,0,0,1,.2.2h0a.2.2,0,0,1-.2.2h0A.2.2,0,0,1,15.66,24.75Zm-1,0a.2.2,0,0,1,.2-.2h0a.2.2,0,0,1,.2.2h0a.2.2,0,0,1-.2.2h0A.2.2,0,0,1,14.71,24.75Zm-1,0a.2.2,0,0,1,.2-.2h0a.2.2,0,0,1,.2.2h0a.2.2,0,0,1-.2.2h0A.2.2,0,0,1,13.76,24.75Zm-1,0a.2.2,0,0,1,.2-.2h0a.2.2,0,0,1,.2.2h0a.2.2,0,0,1-.2.2h0A.2.2,0,0,1,12.81,24.75Zm-1,0a.2.2,0,0,1,.2-.2h0a.2.2,0,0,1,.2.2h0a.2.2,0,0,1-.2.2h0A.2.2,0,0,1,11.85,24.75Z"/><path class="cls-54" d="M17.76,24.95a.2.2,0,0,1-.14-.06.21.21,0,0,1-.06-.14.2.2,0,0,1,.06-.14.21.21,0,0,1,.29,0,.2.2,0,0,1,.06.14.2.2,0,0,1-.2.2Z"/><path class="cls-55" d="M14.43,20.21c-1.35,0-2.07-2-2.1-2a.2.2,0,0,1,.1-.25,4.12,4.12,0,0,1,1-.34v-.64a.2.2,0,1,1,.4,0v.81a.2.2,0,0,1-.17.2,3.87,3.87,0,0,0-.89.26c.19.44.78,1.6,1.65,1.6s1.37-1,1.64-1.61a3.87,3.87,0,0,0-.88-.26.2.2,0,0,1-.17-.2v-.81a.2.2,0,1,1,.4,0v.64a4.12,4.12,0,0,1,1,.34.2.2,0,0,1,.1.26C16.49,18.26,15.68,20.21,14.43,20.21Z"/><path class="cls-56" d="M14.43,17.4c-1.31,0-2.22-1.68-2.22-3.18a2.36,2.36,0,0,1,2.22-2.61,2.36,2.36,0,0,1,2.22,2.61C16.66,15.72,15.74,17.4,14.43,17.4Zm0-5.39c-1.07,0-1.82.91-1.82,2.2,0,1.45.87,2.78,1.82,2.78s1.82-1.32,1.82-2.78C16.25,12.92,15.5,12,14.43,12Z"/><path class="cls-57" d="M27.74,17.49a.2.2,0,0,1-.2-.2.2.2,0,0,1,.06-.14.21.21,0,0,1,.29,0,.2.2,0,0,1,.06.14.2.2,0,0,1-.2.2Z"/><path class="cls-58" d="M28,16.69a.2.2,0,0,1-.13-.26h0a.2.2,0,0,1,.26-.13h0a.2.2,0,0,1,.13.26h0a.2.2,0,0,1-.19.14H28Zm.25-.82a.2.2,0,0,1-.15-.24h0a.2.2,0,0,1,.24-.15h0a.2.2,0,0,1,.15.24h0a.2.2,0,0,1-.2.16h0Zm.16-.85a.2.2,0,0,1-.18-.23h0a.2.2,0,0,1,.22-.18h0a.2.2,0,0,1,.18.22h0a.2.2,0,0,1-.2.18h0Zm.08-.86a.2.2,0,0,1-.2-.2h0a.2.2,0,0,1,.2-.2h0a.2.2,0,0,1,.2.2h0a.2.2,0,0,1-.2.2h0Zm-.27-1a.2.2,0,0,1,.16-.24h0a.2.2,0,0,1,.23.16h0a.2.2,0,0,1-.16.24h0A.2.2,0,0,1,28.25,13.14ZM28,12.36a.2.2,0,0,1,.1-.27h0a.2.2,0,0,1,.27.1h0a.2.2,0,0,1-.1.27h0l-.08,0h0A.2.2,0,0,1,28,12.36Zm-.43-.67a.2.2,0,0,1,0-.29h0a.2.2,0,0,1,.28,0h0a.2.2,0,0,1,0,.28h0a.2.2,0,0,1-.13.05h0A.2.2,0,0,1,27.58,11.69ZM27,11.17a.2.2,0,0,1-.06-.28h0a.2.2,0,0,1,.28-.06h0a.2.2,0,0,1,.06.28h0a.2.2,0,0,1-.17.09h0A.2.2,0,0,1,27,11.17Z"/><path class="cls-59" d="M26.29,10.83a.2.2,0,0,1-.14-.06.2.2,0,0,1,0-.29.21.21,0,0,1,.28,0,.2.2,0,0,1,0,.29A.2.2,0,0,1,26.29,10.83Z"/><path class="cls-60" d="M22.52,10.83a.2.2,0,0,1-.14-.35.21.21,0,0,1,.29,0,.2.2,0,0,1,0,.29A.21.21,0,0,1,22.52,10.83Z"/><path class="cls-61" d="M20.53,16.57a.2.2,0,0,1,.13-.26h0a.2.2,0,0,1,.26.13h0a.2.2,0,0,1-.13.26h-.07A.2.2,0,0,1,20.53,16.57Zm-.24-.85a.2.2,0,0,1,.15-.24h0a.2.2,0,0,1,.24.15h0a.2.2,0,0,1-.15.24h0A.2.2,0,0,1,20.3,15.71Zm-.15-.87h0a.2.2,0,0,1,.18-.22h0a.2.2,0,0,1,.23.18h0a.2.2,0,0,1-.18.22h0A.2.2,0,0,1,20.15,14.84ZM20.1,14h0a.2.2,0,0,1,.2-.2h0a.2.2,0,0,1,.2.2h0a.2.2,0,0,1-.2.2h0A.2.2,0,0,1,20.1,14Zm.24-.66a.2.2,0,0,1-.16-.24h0a.2.2,0,0,1,.23-.16h0a.2.2,0,0,1,.16.24h0a.2.2,0,0,1-.2.17h0Zm.21-.84a.2.2,0,0,1-.1-.27h0a.2.2,0,0,1,.27-.1h0a.2.2,0,0,1,.1.27h0a.2.2,0,0,1-.18.12h0ZM21,11.7a.2.2,0,0,1,0-.28h0a.2.2,0,0,1,.28,0h0a.2.2,0,0,1,0,.28h0a.2.2,0,0,1-.15.07h0A.2.2,0,0,1,21,11.7Zm.62-.6a.2.2,0,0,1,.06-.28h0a.2.2,0,0,1,.28.06h0a.2.2,0,0,1-.06.28h0a.2.2,0,0,1-.11,0h0A.2.2,0,0,1,21.57,11.11Z"/><path class="cls-62" d="M21.08,17.49a.2.2,0,0,1-.2-.2.2.2,0,0,1,.06-.14.21.21,0,0,1,.29,0,.2.2,0,0,1,.06.14.21.21,0,0,1-.06.14A.2.2,0,0,1,21.08,17.49Z"/><path class="cls-63" d="M27.74,17.49H21.08a.2.2,0,0,1,0-.4h6.66a.2.2,0,0,1,0,.4Z"/><path class="cls-64" d="M24.41,12.75c-1.35,0-2.07-2-2.1-2a.2.2,0,0,1,.1-.25,4.12,4.12,0,0,1,1-.34V9.48a.2.2,0,1,1,.4,0v.81a.2.2,0,0,1-.17.2,3.87,3.87,0,0,0-.89.26c.19.44.78,1.6,1.65,1.6s1.37-1,1.64-1.61a3.87,3.87,0,0,0-.88-.26.2.2,0,0,1-.17-.2V9.48a.2.2,0,1,1,.4,0v.64a4.12,4.12,0,0,1,1,.34.2.2,0,0,1,.1.26C26.47,10.8,25.65,12.75,24.41,12.75Z"/><path class="cls-65" d="M24.41,9.94c-.86,0-1.68-.8-2-2a.2.2,0,0,1,.39-.12c.31,1,1,1.7,1.66,1.7,1,0,1.82-1.32,1.82-2.78,0-1.3-.75-2.2-1.82-2.2a1.69,1.69,0,0,0-.92.27.2.2,0,0,1-.22-.34,2.09,2.09,0,0,1,1.14-.33,2.36,2.36,0,0,1,2.22,2.61C26.63,8.26,25.72,9.94,24.41,9.94Z"/><path class="cls-66" d="M2.55,25.33a.2.2,0,0,1-.2-.2A.21.21,0,0,1,2.41,25a.21.21,0,0,1,.29,0,.21.21,0,0,1,.06.14.2.2,0,0,1-.06.14A.2.2,0,0,1,2.55,25.33Z"/><path class="cls-67" d="M4.45,27.24h0a.2.2,0,0,1-.2-.21h0a.2.2,0,0,1,.2-.2h0a.2.2,0,0,1,.2.2h0a.2.2,0,0,1-.2.2h0Zm-1-.39a.2.2,0,0,1,0-.28h0a.2.2,0,0,1,.28,0h0a.2.2,0,0,1,0,.28h0a.2.2,0,0,1-.16.07h0A.2.2,0,0,1,3.46,26.85Zm1.69,0a.2.2,0,0,1,0-.28h0a.2.2,0,0,1,.28,0h0a.2.2,0,0,1,0,.28h0a.2.2,0,0,1-.13,0h0A.2.2,0,0,1,5.15,26.81ZM2.8,26.08a.2.2,0,0,1,.06-.28h0a.2.2,0,0,1,.28.06h0a.2.2,0,0,1-.06.28h0a.19.19,0,0,1-.11,0H3A.2.2,0,0,1,2.8,26.08Zm3,0a.2.2,0,0,1-.06-.28h0A.2.2,0,0,1,6,25.79H6a.2.2,0,0,1,.06.28h0a.2.2,0,0,1-.17.09h0A.2.2,0,0,1,5.8,26.13Z"/><path class="cls-68" d="M6.37,25.33a.2.2,0,0,1-.14-.06.2.2,0,0,1-.06-.14A.21.21,0,0,1,6.22,25a.21.21,0,0,1,.29,0,.2.2,0,0,1,.06.14.2.2,0,0,1-.2.2Z"/><path class="cls-69" d="M24.46,15.68a.2.2,0,0,1-.14-.06.2.2,0,0,1-.06-.14.2.2,0,0,1,.06-.14.21.21,0,0,1,.29,0,.2.2,0,0,1,.06.14.2.2,0,0,1-.06.14A.2.2,0,0,1,24.46,15.68Z"/><path class="cls-70" d="M24.25,16.38a.2.2,0,0,1,.2-.2h0a.2.2,0,0,1,.2.2h0a.2.2,0,0,1-.2.2h0A.2.2,0,0,1,24.25,16.38Z"/><path class="cls-71" d="M24.46,17.49a.2.2,0,0,1-.14-.06.21.21,0,0,1-.06-.14.2.2,0,0,1,.06-.14.21.21,0,0,1,.29,0,.2.2,0,0,1,.06.14.21.21,0,0,1-.06.14A.2.2,0,0,1,24.46,17.49Z"/><path class="cls-72" d="M24.46,15.68a.2.2,0,0,1-.2-.2V12.55a.2.2,0,1,1,.4,0v2.93A.2.2,0,0,1,24.46,15.68Z"/><path class="cls-73" d="M20.06,27.57a.2.2,0,0,1-.14-.06.21.21,0,0,1-.06-.14.2.2,0,0,1,.06-.14.21.21,0,0,1,.29,0,.2.2,0,0,1-.14.34Z"/><path class="cls-74" d="M19.86,28.23a.2.2,0,0,1,.2-.2h0a.2.2,0,0,1,.2.2h0a.2.2,0,0,1-.2.2h0A.2.2,0,0,1,19.86,28.23Z"/><path class="cls-75" d="M20.06,29.3a.21.21,0,0,1-.14-.06.2.2,0,0,1-.06-.14.21.21,0,0,1,.06-.14.21.21,0,0,1,.29,0,.21.21,0,0,1,.06.14.2.2,0,0,1-.06.14A.21.21,0,0,1,20.06,29.3Z"/><path class="cls-76" d="M21.16,19.33a.2.2,0,0,1-.14-.06.2.2,0,0,1-.06-.14A.21.21,0,0,1,21,19a.21.21,0,0,1,.29,0,.21.21,0,0,1,.06.14.2.2,0,0,1-.06.14A.21.21,0,0,1,21.16,19.33Z"/><path class="cls-77" d="M26.6,19.13a.2.2,0,0,1,.2-.2h0a.2.2,0,0,1,.2.2h0a.2.2,0,0,1-.2.2h0A.2.2,0,0,1,26.6,19.13Zm-.94,0a.2.2,0,0,1,.2-.2h0a.2.2,0,0,1,.2.2h0a.2.2,0,0,1-.2.2h0A.2.2,0,0,1,25.66,19.13Zm-.94,0a.2.2,0,0,1,.2-.2h0a.2.2,0,0,1,.2.2h0a.2.2,0,0,1-.2.2h0A.2.2,0,0,1,24.72,19.13Zm-.94,0a.2.2,0,0,1,.2-.2h0a.2.2,0,0,1,.2.2h0a.2.2,0,0,1-.2.2h0A.2.2,0,0,1,23.78,19.13Zm-.94,0a.2.2,0,0,1,.2-.2h0a.2.2,0,0,1,.2.2h0a.2.2,0,0,1-.2.2h0A.2.2,0,0,1,22.84,19.13Zm-.94,0a.2.2,0,0,1,.2-.2h0a.2.2,0,0,1,.2.2h0a.2.2,0,0,1-.2.2h0A.2.2,0,0,1,21.9,19.13Z"/><path class="cls-78" d="M27.74,19.33a.2.2,0,0,1-.14-.06.2.2,0,0,1-.06-.14A.21.21,0,0,1,27.6,19a.21.21,0,0,1,.29,0,.2.2,0,0,1-.14.35Z"/><path class="cls-79" d="M19,40.4V38.33h1.44v.29H19.34v.58h1v.29h-1v.62h1.09v.29Z"/><path class="cls-80" d="M23.17,40.4V38.33h.36V40.4Z"/><path class="cls-81" d="M21.66,40.4H20.9V38.33h.79c.62,0,.95.36.95,1A.93.93,0,0,1,21.66,40.4Zm0-1.79h-.36v1.49h.34c.46,0,.7-.2.7-.76S22.07,38.62,21.61,38.62Z"/><path class="cls-82" d="M25.61,40.4,25.47,40h-1l-.15.41h-.37l.8-2.08h.48L26,40.4ZM25,38.56l-.42,1.18h.84Z"/><path class="cls-83" d="M18.18,40.4V38.76l-.7,1.65h-.36l-.7-1.65V40.4h-.35V38.33h.53l.6,1.42.1.27a2.76,2.76,0,0,1,.1-.27l.6-1.42h.53V40.4Z"/><path class="cls-84" d="M5,43.86V42.21l-.7,1.65H3.95l-.7-1.65v1.65H2.9V41.78h.53L4,43.19l.1.27a2.77,2.77,0,0,1,.1-.27l.6-1.42h.53v2.08Z"/><path class="cls-85" d="M15.59,43.86V41.78H17v.29H15.94v.58h1v.29h-1v.62H17v.29Z"/><path class="cls-86" d="M19.69,43.86V42.21L19,43.86h-.36l-.7-1.65v1.65h-.35V41.78h.53l.6,1.42.1.27a2.77,2.77,0,0,1,.1-.27l.6-1.42H20v2.08Z"/><polyline class="cls-87" points="24.3 41.78 24.3 43.85 23.86 43.85 22.77 42.23 22.77 43.85 22.41 43.85 22.41 41.78 22.87 41.78 23.94 43.39 23.94 41.78 24.3 41.78"/></g></g></svg>